/* XPM */
static char *result[] = {
/* columns rows colors chars-per-pixel */
"64 64 4 1 ",
"  c #A87878",
". c #C09890",
"X c #CCA4A2",
"o c #D0A8A8",
/* pixels */
"................................................................",
"................................................................",
"................................................................",
"................................................................",
"................................................................",
"................................................................",
"................................................................",
"................................................................",
"................................................................",
"................................................................",
"................................................................",
"................................................................",
"................................................................",
"................................................................",
"................................................................",
"................................................................",
"................oooooooooooooooo................................",
"................oooooooooooooooo................................",
"................oooooooooooooooo................................",
"................oooooooooooooooo................................",
"................ooooooooooooXXXX................................",
"................ooooooooooooXXXX................................",
"................ooooooooooooXXXX................................",
"................ooooooooooooXXXX................................",
"oooooooo........................XXXXoooooooooooo................",
"oooooooo........................XXXXoooooooooooo................",
"oooooooo........................XXXXoooooooooooo................",
"oooooooo........................XXXXoooooooooooo................",
"oooooooo........................oooooooooooooooo................",
"oooooooo........................oooooooooooooooo................",
"oooooooo........................oooooooooooooooo................",
"oooooooo........................oooooooooooooooo................",
"................................oooooooooooooooo................",
"................................oooooooooooooooo................",
"................................oooooooooooooooo................",
"................................oooooooooooooooo................",
"................................oooooooooooooooo................",
"................................oooooooooooooooo................",
"................................oooooooooooooooo................",
"................................oooooooooooooooo................",
"................................................................",
"................................................................",
"................................................................",
"................................................................",
"................................................................",
"................................................................",
"................................................................",
"................................................................",
"................................................................",
"................................................................",
"................................................................",
"................................................................",
"................................................................",
"................................................................",
"................................................................",
"................................................................",
"........        ................................................",
"........        ................................................",
"........        ................................................",
"........        ................................................",
"........        ................................................",
"........        ................................................",
"........        ................................................",
"........        ................................................"
};
