/* XPM */
static char *result[] = {
/* columns rows colors chars-per-pixel */
"64 64 6 1 ",
"  c #581818",
". c #703030",
"X c #706054",
"o c #585860",
"O c #787868",
"+ c #805048",
/* pixels */
"++++++++++++++++................                ........OOOOOOOO",
"++++++++++++++++................                ........OOOOOOOO",
"++++++++++++++++................                ........OOOOOOOO",
"++++++++++++++++................                ........OOOOOOOO",
"++++++++++++++++................                ........OOOOOOOO",
"++++++++++++++++................                ........OOOOOOOO",
"++++++++++++++++................                ........OOOOOOOO",
"++++++++++++++++................                ........OOOOOOOO",
"++++++++++++++++........................                ........",
"++++++++++++++++........................                ........",
"++++++++++++++++........................                ........",
"++++++++++++++++........................                ........",
"++++++++++++++++........................                ........",
"++++++++++++++++........................                ........",
"++++++++++++++++........................                ........",
"++++++++++++++++........................                ........",
"++++++++........................................                ",
"++++++++........................................                ",
"++++++++........................................                ",
"++++++++........................................                ",
"++++++++........................................                ",
"++++++++........................................                ",
"++++++++........................................                ",
"++++++++........................................                ",
"........................................                        ",
"........................................                        ",
"........................................                        ",
"........................................                        ",
"........................................                        ",
"........................................                        ",
"........................................                        ",
"........................................                        ",
"........................................                        ",
"........................................                        ",
"........................................                        ",
"........................................                        ",
"........................................                        ",
"........................................                        ",
"........................................                        ",
"........................................                        ",
"++++++++++++++++................                        OOOOOOOO",
"++++++++++++++++................                        OOOOOOOO",
"++++++++++++++++................                        OOOOOOOO",
"++++++++++++++++................                        OOOOOOOO",
"++++++++++++++++................                        XXXXOOOO",
"++++++++++++++++................                        XXXXOOOO",
"++++++++++++++++................                        XXXXOOOO",
"++++++++++++++++................                        XXXXOOOO",
"++++++++++++++++                                OOOOXXXX        ",
"++++++++++++++++                                OOOOXXXX        ",
"++++++++++++++++                                OOOOXXXX        ",
"++++++++++++++++                                OOOOXXXX        ",
"++++++++++++++++                                OOOOOOOO        ",
"++++++++++++++++                                OOOOOOOO        ",
"++++++++++++++++                                OOOOOOOO        ",
"++++++++++++++++                                OOOOOOOO        ",
"                                OOOOOOOOOOOOOOOOoooooooooooooooo",
"                                OOOOOOOOOOOOOOOOoooooooooooooooo",
"                                OOOOOOOOOOOOOOOOoooooooooooooooo",
"                                OOOOOOOOOOOOOOOOoooooooooooooooo",
"                                OOOOOOOOOOOOOOOOoooooooooooooooo",
"                                OOOOOOOOOOOOOOOOoooooooooooooooo",
"                                OOOOOOOOOOOOOOOOoooooooooooooooo",
"                                OOOOOOOOOOOOOOOOoooooooooooooooo"
};
