/* XPM */
static char *result[] = {
/* columns rows colors chars-per-pixel */
"64 64 6 1 ",
"  c #703030",
". c #585860",
"X c #787868",
"o c #805048",
"O c #A87878",
"+ c #C09890",
/* pixels */
"                OOOOOOOOoooooooo++++++++++++++++ooooooooOOOOOOOO",
"                OOOOOOOOoooooooo++++++++++++++++ooooooooOOOOOOOO",
"                OOOOOOOOoooooooo++++++++++++++++ooooooooOOOOOOOO",
"                OOOOOOOOoooooooo++++++++++++++++ooooooooOOOOOOOO",
"                OOOOOOOOoooooooo++++++++++++++++ooooooooOOOOOOOO",
"                OOOOOOOOoooooooo++++++++++++++++ooooooooOOOOOOOO",
"                OOOOOOOOoooooooo++++++++++++++++ooooooooOOOOOOOO",
"                OOOOOOOOoooooooo++++++++++++++++ooooooooOOOOOOOO",
"                OOOOOOOO        oooooooooooooooo                ",
"                OOOOOOOO        oooooooooooooooo                ",
"                OOOOOOOO        oooooooooooooooo                ",
"                OOOOOOOO        oooooooooooooooo                ",
"                OOOOOOOO        oooooooooooooooo                ",
"                OOOOOOOO        oooooooooooooooo                ",
"                OOOOOOOO        oooooooooooooooo                ",
"                OOOOOOOO        oooooooooooooooo                ",
"        OOOOOOOOOOOOOOOOOOOOOOOO                                ",
"        OOOOOOOOOOOOOOOOOOOOOOOO                                ",
"        OOOOOOOOOOOOOOOOOOOOOOOO                                ",
"        OOOOOOOOOOOOOOOOOOOOOOOO                                ",
"        OOOOOOOOOOOOOOOOOOOOOOOO                                ",
"        OOOOOOOOOOOOOOOOOOOOOOOO                                ",
"        OOOOOOOOOOOOOOOOOOOOOOOO                                ",
"        OOOOOOOOOOOOOOOOOOOOOOOO                                ",
"        OOOOOOOOOOOOOOOOOOOOOOOOOOOOOOOO                        ",
"        OOOOOOOOOOOOOOOOOOOOOOOOOOOOOOOO                        ",
"        OOOOOOOOOOOOOOOOOOOOOOOOOOOOOOOO                        ",
"        OOOOOOOOOOOOOOOOOOOOOOOOOOOOOOOO                        ",
"        OOOOOOOOOOOOOOOOOOOOOOOOOOOOOOOO                        ",
"        OOOOOOOOOOOOOOOOOOOOOOOOOOOOOOOO                        ",
"        OOOOOOOOOOOOOOOOOOOOOOOOOOOOOOOO                        ",
"        OOOOOOOOOOOOOOOOOOOOOOOOOOOOOOOO                        ",
"        oooooooooooooooooooooooo                        oooooooo",
"        oooooooooooooooooooooooo                        oooooooo",
"        oooooooooooooooooooooooo                        oooooooo",
"        oooooooooooooooooooooooo                        oooooooo",
"        oooooooooooooooooooooooo                        oooooooo",
"        oooooooooooooooooooooooo                        oooooooo",
"        oooooooooooooooooooooooo                        oooooooo",
"        oooooooooooooooooooooooo                        oooooooo",
"XXXXXXXX        oooooooooooooooo                        oooooooo",
"XXXXXXXX        oooooooooooooooo                        oooooooo",
"XXXXXXXX        oooooooooooooooo                        oooooooo",
"XXXXXXXX        oooooooooooooooo                        oooooooo",
"XXXXXXXX        oooooooooooooooo                        oooooooo",
"XXXXXXXX        oooooooooooooooo                        oooooooo",
"XXXXXXXX        oooooooooooooooo                        oooooooo",
"XXXXXXXX        oooooooooooooooo                        oooooooo",
"XXXXXXXX                                        oooooooooooooooo",
"XXXXXXXX                                        oooooooooooooooo",
"XXXXXXXX                                        oooooooooooooooo",
"XXXXXXXX                                        oooooooooooooooo",
"XXXXXXXX                                        oooooooooooooooo",
"XXXXXXXX                                        oooooooooooooooo",
"XXXXXXXX                                        oooooooooooooooo",
"XXXXXXXX                                        oooooooooooooooo",
"........XXXXXXXXXXXXXXXX                OOOOOOOO                ",
"........XXXXXXXXXXXXXXXX                OOOOOOOO                ",
"........XXXXXXXXXXXXXXXX                OOOOOOOO                ",
"........XXXXXXXXXXXXXXXX                OOOOOOOO                ",
"........XXXXXXXXXXXXXXXX                OOOOOOOO                ",
"........XXXXXXXXXXXXXXXX                OOOOOOOO                ",
"........XXXXXXXXXXXXXXXX                OOOOOOOO                ",
"........XXXXXXXXXXXXXXXX                OOOOOOOO                "
};
