/* XPM */
static char *result[] = {
/* columns rows colors chars-per-pixel */
"64 64 6 1 ",
"  c #703030",
". c #7C4842",
"X c #805048",
"o c #A87878",
"O c #BA908A",
"+ c #C09890",
/* pixels */
"                        XXXXXXXXXXXXXXXXXXXXXXXX                ",
"                        XXXXXXXXXXXXXXXXXXXXXXXX                ",
"                        XXXXXXXXXXXXXXXXXXXXXXXX                ",
"                        XXXXXXXXXXXXXXXXXXXXXXXX                ",
"                        ....XXXXXXXXXXXXXXXX....                ",
"                        ....XXXXXXXXXXXXXXXX....                ",
"                        ....XXXXXXXXXXXXXXXX....                ",
"                        ....XXXXXXXXXXXXXXXX....                ",
"ooooooooXXXXXXXXXXXX....                        ....XXXXXXXXXXXX",
"ooooooooXXXXXXXXXXXX....                        ....XXXXXXXXXXXX",
"ooooooooXXXXXXXXXXXX....                        ....XXXXXXXXXXXX",
"ooooooooXXXXXXXXXXXX....                        ....XXXXXXXXXXXX",
"ooooooooXXXXXXXXXXXXXXXX                        XXXXXXXXXXXXXXXX",
"ooooooooXXXXXXXXXXXXXXXX                        XXXXXXXXXXXXXXXX",
"ooooooooXXXXXXXXXXXXXXXX                        XXXXXXXXXXXXXXXX",
"ooooooooXXXXXXXXXXXXXXXX                        XXXXXXXXXXXXXXXX",
"oooooooooooooooo++++++++oooooooo++++++++oooooooo++++++++XXXXXXXX",
"oooooooooooooooo++++++++oooooooo++++++++oooooooo++++++++XXXXXXXX",
"oooooooooooooooo++++++++oooooooo++++++++oooooooo++++++++XXXXXXXX",
"oooooooooooooooo++++++++oooooooo++++++++oooooooo++++++++XXXXXXXX",
"oooooooooooooooo++++OOOOooooooooOOOOOOOOooooooooOOOO++++XXXXXXXX",
"oooooooooooooooo++++OOOOooooooooOOOOOOOOooooooooOOOO++++XXXXXXXX",
"oooooooooooooooo++++OOOOooooooooOOOOOOOOooooooooOOOO++++XXXXXXXX",
"oooooooooooooooo++++OOOOooooooooOOOOOOOOooooooooOOOO++++XXXXXXXX",
"++++++++ooooooooooooooooOOOOOOOOooooooooOOOOOOOOoooooooooooooooo",
"++++++++ooooooooooooooooOOOOOOOOooooooooOOOOOOOOoooooooooooooooo",
"++++++++ooooooooooooooooOOOOOOOOooooooooOOOOOOOOoooooooooooooooo",
"++++++++ooooooooooooooooOOOOOOOOooooooooOOOOOOOOoooooooooooooooo",
"++++++++oooooooooooooooo++++++++oooooooo++++++++oooooooooooooooo",
"++++++++oooooooooooooooo++++++++oooooooo++++++++oooooooooooooooo",
"++++++++oooooooooooooooo++++++++oooooooo++++++++oooooooooooooooo",
"++++++++oooooooooooooooo++++++++oooooooo++++++++oooooooooooooooo",
"++++++++++++++++++++++++++++++++oooooooooooooooooooooooo++++++++",
"++++++++++++++++++++++++++++++++oooooooooooooooooooooooo++++++++",
"++++++++++++++++++++++++++++++++oooooooooooooooooooooooo++++++++",
"++++++++++++++++++++++++++++++++oooooooooooooooooooooooo++++++++",
"++++++++++++++++++++++++++++++++oooooooooooooooooooooooo++++++++",
"++++++++++++++++++++++++++++++++oooooooooooooooooooooooo++++++++",
"++++++++++++++++++++++++++++++++oooooooooooooooooooooooo++++++++",
"++++++++++++++++++++++++++++++++oooooooooooooooooooooooo++++++++",
"++++++++++++++++++++++++++++++++++++++++++++++++++++++++++++++++",
"++++++++++++++++++++++++++++++++++++++++++++++++++++++++++++++++",
"++++++++++++++++++++++++++++++++++++++++++++++++++++++++++++++++",
"++++++++++++++++++++++++++++++++++++++++++++++++++++++++++++++++",
"++++++++++++++++++++++++++++++++++++++++++++++++++++++++++++++++",
"++++++++++++++++++++++++++++++++++++++++++++++++++++++++++++++++",
"++++++++++++++++++++++++++++++++++++++++++++++++++++++++++++++++",
"++++++++++++++++++++++++++++++++++++++++++++++++++++++++++++++++",
"++++++++++++++++++++++++++++++++++++++++++++++++++++++++++++++++",
"++++++++++++++++++++++++++++++++++++++++++++++++++++++++++++++++",
"++++++++++++++++++++++++++++++++++++++++++++++++++++++++++++++++",
"++++++++++++++++++++++++++++++++++++++++++++++++++++++++++++++++",
"++++++++++++++++++++++++++++++++++++++++++++++++++++++++++++++++",
"++++++++++++++++++++++++++++++++++++++++++++++++++++++++++++++++",
"++++++++++++++++++++++++++++++++++++++++++++++++++++++++++++++++",
"++++++++++++++++++++++++++++++++++++++++++++++++++++++++++++++++",
"++++++++++++++++++++++++++++++++++++++++++++++++++++++++++++++++",
"++++++++++++++++++++++++++++++++++++++++++++++++++++++++++++++++",
"++++++++++++++++++++++++++++++++++++++++++++++++++++++++++++++++",
"++++++++++++++++++++++++++++++++++++++++++++++++++++++++++++++++",
"++++++++++++++++++++++++++++++++++++++++++++++++++++++++++++++++",
"++++++++++++++++++++++++++++++++++++++++++++++++++++++++++++++++",
"++++++++++++++++++++++++++++++++++++++++++++++++++++++++++++++++",
"++++++++++++++++++++++++++++++++++++++++++++++++++++++++++++++++"
};
