/* XPM */
static char *result[] = {
/* columns rows colors chars-per-pixel */
"64 64 8 1 ",
"  c #581818",
". c #703030",
"X c #7C4842",
"o c #787868",
"O c #805048",
"+ c #A87878",
"@ c #BA908A",
"# c #C09890",
/* pixels */
"oooooooo........########++++++++++++++++++++++++OOOOOOOOOOOOOOOO",
"oooooooo........########++++++++++++++++++++++++OOOOOOOOOOOOOOOO",
"oooooooo........########++++++++++++++++++++++++OOOOOOOOOOOOOOOO",
"oooooooo........########++++++++++++++++++++++++OOOOOOOOOOOOOOOO",
"oooooooo........########++++++++++++++++++++++++OOOOOOOOOOOOOOOO",
"oooooooo........########++++++++++++++++++++++++OOOOOOOOOOOOOOOO",
"oooooooo........########++++++++++++++++++++++++OOOOOOOOOOOOOOOO",
"oooooooo........########++++++++++++++++++++++++OOOOOOOOOOOOOOOO",
"        OOOOOOOO++++++++++++++++++++++++OOOOOOOOOOOOOOOO++++++++",
"        OOOOOOOO++++++++++++++++++++++++OOOOOOOOOOOOOOOO++++++++",
"        OOOOOOOO++++++++++++++++++++++++OOOOOOOOOOOOOOOO++++++++",
"        OOOOOOOO++++++++++++++++++++++++OOOOOOOOOOOOOOOO++++++++",
"        OOOOOOOO++++++++++++++++++++++++OOOOOOOOOOOOOOOO++++++++",
"        OOOOOOOO++++++++++++++++++++++++OOOOOOOOOOOOOOOO++++++++",
"        OOOOOOOO++++++++++++++++++++++++OOOOOOOOOOOOOOOO++++++++",
"        OOOOOOOO++++++++++++++++++++++++OOOOOOOOOOOOOOOO++++++++",
"        OOOOOOOOOOOOOOOO++++++++OOOOOOOOOOOOOOOO++++++++########",
"        OOOOOOOOOOOOOOOO++++++++OOOOOOOOOOOOOOOO++++++++########",
"        OOOOOOOOOOOOOOOO++++++++OOOOOOOOOOOOOOOO++++++++########",
"        OOOOOOOOOOOOOOOO++++++++OOOOOOOOOOOOOOOO++++++++########",
"        OOOOOOOOOOOOOOOO++++++++OOOOOOOOOOOOOOOO++++++++########",
"        OOOOOOOOOOOOOOOO++++++++OOOOOOOOOOOOOOOO++++++++########",
"        OOOOOOOOOOOOOOOO++++++++OOOOOOOOOOOOOOOO++++++++########",
"        OOOOOOOOOOOOOOOO++++++++OOOOOOOOOOOOOOOO++++++++########",
"        OOOOOOOOOOOOOOOOOOOOOOOOOOOOOOOO........++++++++########",
"        OOOOOOOOOOOOOOOOOOOOOOOOOOOOOOOO........++++++++########",
"        OOOOOOOOOOOOOOOOOOOOOOOOOOOOOOOO........++++++++########",
"        OOOOOOOOOOOOOOOOOOOOOOOOOOOOOOOO........++++++++########",
"        OOOOOOOOOOOOOOOOOOOOOOOOOOOOOOOO........++++++++########",
"        OOOOOOOOOOOOOOOOOOOOOOOOOOOOOOOO........++++++++########",
"        OOOOOOOOOOOOOOOOOOOOOOOOOOOOOOOO........++++++++########",
"        OOOOOOOOOOOOOOOOOOOOOOOOOOOOOOOO........++++++++########",
"        ........OOOOOOOO................########++++++++########",
"        ........OOOOOOOO................########++++++++########",
"        ........OOOOOOOO................########++++++++########",
"        ........OOOOOOOO................########++++++++########",
"        ........XXXXOOOO................########++++++++########",
"        ........XXXXOOOO................########++++++++########",
"        ........XXXXOOOO................########++++++++########",
"        ........XXXXOOOO................########++++++++########",
"........OOOOXXXX................########++++++++++++++++########",
"........OOOOXXXX................########++++++++++++++++########",
"........OOOOXXXX................########++++++++++++++++########",
"........OOOOXXXX................########++++++++++++++++########",
"........OOOOOOOO................####@@@@++++++++++++++++########",
"........OOOOOOOO................####@@@@++++++++++++++++########",
"........OOOOOOOO................####@@@@++++++++++++++++########",
"........OOOOOOOO................####@@@@++++++++++++++++########",
"oooooooo................OOOOOOOO++++++++@@@@####++++++++OOOOOOOO",
"oooooooo................OOOOOOOO++++++++@@@@####++++++++OOOOOOOO",
"oooooooo................OOOOOOOO++++++++@@@@####++++++++OOOOOOOO",
"oooooooo................OOOOOOOO++++++++@@@@####++++++++OOOOOOOO",
"oooooooo................OOOOOOOO++++++++########++++++++OOOOOOOO",
"oooooooo................OOOOOOOO++++++++########++++++++OOOOOOOO",
"oooooooo................OOOOOOOO++++++++########++++++++OOOOOOOO",
"oooooooo................OOOOOOOO++++++++########++++++++OOOOOOOO",
"oooooooo........OOOOOOOO++++++++########################++++++++",
"oooooooo........OOOOOOOO++++++++########################++++++++",
"oooooooo........OOOOOOOO++++++++########################++++++++",
"oooooooo........OOOOOOOO++++++++########################++++++++",
"oooooooo........OOOOOOOO++++++++########################++++++++",
"oooooooo........OOOOOOOO++++++++########################++++++++",
"oooooooo........OOOOOOOO++++++++########################++++++++",
"oooooooo........OOOOOOOO++++++++########################++++++++"
};
