/* XPM */
static char *result[] = {
/* columns rows colors chars-per-pixel */
"64 64 6 1 ",
"  c #581818",
". c #703030",
"X c #787868",
"o c #805048",
"O c #A87878",
"+ c #C09890",
/* pixels */
"ooooooooOOOOOOOO++++++++++++++++++++++++++++++++OOOOOOOOOOOOOOOO",
"ooooooooOOOOOOOO++++++++++++++++++++++++++++++++OOOOOOOOOOOOOOOO",
"ooooooooOOOOOOOO++++++++++++++++++++++++++++++++OOOOOOOOOOOOOOOO",
"ooooooooOOOOOOOO++++++++++++++++++++++++++++++++OOOOOOOOOOOOOOOO",
"ooooooooOOOOOOOO++++++++++++++++++++++++++++++++OOOOOOOOOOOOOOOO",
"ooooooooOOOOOOOO++++++++++++++++++++++++++++++++OOOOOOOOOOOOOOOO",
"ooooooooOOOOOOOO++++++++++++++++++++++++++++++++OOOOOOOOOOOOOOOO",
"ooooooooOOOOOOOO++++++++++++++++++++++++++++++++OOOOOOOOOOOOOOOO",
"ooooooooOOOOOOOOOOOOOOOOOOOOOOOOOOOOOOOO................oooooooo",
"ooooooooOOOOOOOOOOOOOOOOOOOOOOOOOOOOOOOO................oooooooo",
"ooooooooOOOOOOOOOOOOOOOOOOOOOOOOOOOOOOOO................oooooooo",
"ooooooooOOOOOOOOOOOOOOOOOOOOOOOOOOOOOOOO................oooooooo",
"ooooooooOOOOOOOOOOOOOOOOOOOOOOOOOOOOOOOO................oooooooo",
"ooooooooOOOOOOOOOOOOOOOOOOOOOOOOOOOOOOOO................oooooooo",
"ooooooooOOOOOOOOOOOOOOOOOOOOOOOOOOOOOOOO................oooooooo",
"ooooooooOOOOOOOOOOOOOOOOOOOOOOOOOOOOOOOO................oooooooo",
"ooooooooooooooooOOOOOOOOOOOOOOOO........................oooooooo",
"ooooooooooooooooOOOOOOOOOOOOOOOO........................oooooooo",
"ooooooooooooooooOOOOOOOOOOOOOOOO........................oooooooo",
"ooooooooooooooooOOOOOOOOOOOOOOOO........................oooooooo",
"ooooooooooooooooOOOOOOOOOOOOOOOO........................oooooooo",
"ooooooooooooooooOOOOOOOOOOOOOOOO........................oooooooo",
"ooooooooooooooooOOOOOOOOOOOOOOOO........................oooooooo",
"ooooooooooooooooOOOOOOOOOOOOOOOO........................oooooooo",
"        oooooooooooooooo........................................",
"        oooooooooooooooo........................................",
"        oooooooooooooooo........................................",
"        oooooooooooooooo........................................",
"        oooooooooooooooo........................................",
"        oooooooooooooooo........................................",
"        oooooooooooooooo........................................",
"        oooooooooooooooo........................................",
"        ........................................        ........",
"        ........................................        ........",
"        ........................................        ........",
"        ........................................        ........",
"        ........................................        ........",
"        ........................................        ........",
"        ........................................        ........",
"        ........................................        ........",
"        ................................                ........",
"        ................................                ........",
"        ................................                ........",
"        ................................                ........",
"        ................................                ........",
"        ................................                ........",
"        ................................                ........",
"        ................................                ........",
"                ................                        oooooooo",
"                ................                        oooooooo",
"                ................                        oooooooo",
"                ................                        oooooooo",
"                ................                        oooooooo",
"                ................                        oooooooo",
"                ................                        oooooooo",
"                ................                        oooooooo",
"XXXXXXXXXXXXXXXX........                                ........",
"XXXXXXXXXXXXXXXX........                                ........",
"XXXXXXXXXXXXXXXX........                                ........",
"XXXXXXXXXXXXXXXX........                                ........",
"XXXXXXXXXXXXXXXX........                                ........",
"XXXXXXXXXXXXXXXX........                                ........",
"XXXXXXXXXXXXXXXX........                                ........",
"XXXXXXXXXXXXXXXX........                                ........"
};
