/* XPM */
static char *result[] = {
/* columns rows colors chars-per-pixel */
"64 64 7 1 ",
"  c #581818",
". c #6A2A2A",
"X c #703030",
"o c #787868",
"O c #805048",
"+ c #A87878",
"@ c #C09890",
/* pixels */
"XXXXXXXX        XXXXXXXX                                oooooooo",
"XXXXXXXX        XXXXXXXX                                oooooooo",
"XXXXXXXX        XXXXXXXX                                oooooooo",
"XXXXXXXX        XXXXXXXX                                oooooooo",
"XXXXXXXX        ........                                oooooooo",
"XXXXXXXX        ........                                oooooooo",
"XXXXXXXX        ........                                oooooooo",
"XXXXXXXX        ........                                oooooooo",
"@@@@@@@@XXXX....        ....XXXX                        oooooooo",
"@@@@@@@@XXXX....        ....XXXX                        oooooooo",
"@@@@@@@@XXXX....        ....XXXX                        oooooooo",
"@@@@@@@@XXXX....        ....XXXX                        oooooooo",
"@@@@@@@@XXXXXXXX        ........                        oooooooo",
"@@@@@@@@XXXXXXXX        ........                        oooooooo",
"@@@@@@@@XXXXXXXX        ........                        oooooooo",
"@@@@@@@@XXXXXXXX        ........                        oooooooo",
"@@@@@@@@OOOOOOOOXXXX....        ....XXXX                XXXXXXXX",
"@@@@@@@@OOOOOOOOXXXX....        ....XXXX                XXXXXXXX",
"@@@@@@@@OOOOOOOOXXXX....        ....XXXX                XXXXXXXX",
"@@@@@@@@OOOOOOOOXXXX....        ....XXXX                XXXXXXXX",
"@@@@@@@@OOOOOOOOXXXXXXXX        XXXXXXXX                XXXXXXXX",
"@@@@@@@@OOOOOOOOXXXXXXXX        XXXXXXXX                XXXXXXXX",
"@@@@@@@@OOOOOOOOXXXXXXXX        XXXXXXXX                XXXXXXXX",
"@@@@@@@@OOOOOOOOXXXXXXXX        XXXXXXXX                XXXXXXXX",
"@@@@@@@@OOOOOOOOXXXXXXXXXXXXXXXXXXXXXXXXXXXXXXXX                ",
"@@@@@@@@OOOOOOOOXXXXXXXXXXXXXXXXXXXXXXXXXXXXXXXX                ",
"@@@@@@@@OOOOOOOOXXXXXXXXXXXXXXXXXXXXXXXXXXXXXXXX                ",
"@@@@@@@@OOOOOOOOXXXXXXXXXXXXXXXXXXXXXXXXXXXXXXXX                ",
"@@@@@@@@OOOOOOOOXXXXXXXXXXXXXXXXXXXXXXXXXXXX....                ",
"@@@@@@@@OOOOOOOOXXXXXXXXXXXXXXXXXXXXXXXXXXXX....                ",
"@@@@@@@@OOOOOOOOXXXXXXXXXXXXXXXXXXXXXXXXXXXX....                ",
"@@@@@@@@OOOOOOOOXXXXXXXXXXXXXXXXXXXXXXXXXXXX....                ",
"++++++++OOOOOOOOOOOOOOOOXXXXXXXXXXXXXXXX        ....XXXX        ",
"++++++++OOOOOOOOOOOOOOOOXXXXXXXXXXXXXXXX        ....XXXX        ",
"++++++++OOOOOOOOOOOOOOOOXXXXXXXXXXXXXXXX        ....XXXX        ",
"++++++++OOOOOOOOOOOOOOOOXXXXXXXXXXXXXXXX        ....XXXX        ",
"++++++++OOOOOOOOOOOOOOOOXXXXXXXXXXXXXXXX        ....XXXX        ",
"++++++++OOOOOOOOOOOOOOOOXXXXXXXXXXXXXXXX        ....XXXX        ",
"++++++++OOOOOOOOOOOOOOOOXXXXXXXXXXXXXXXX        ....XXXX        ",
"++++++++OOOOOOOOOOOOOOOOXXXXXXXXXXXXXXXX        ....XXXX        ",
"                        XXXXXXXXXXXXXXXXXXXX....                ",
"                        XXXXXXXXXXXXXXXXXXXX....                ",
"                        XXXXXXXXXXXXXXXXXXXX....                ",
"                        XXXXXXXXXXXXXXXXXXXX....                ",
"                        XXXXXXXXXXXXXXXXXXXX....                ",
"                        XXXXXXXXXXXXXXXXXXXX....                ",
"                        XXXXXXXXXXXXXXXXXXXX....                ",
"                        XXXXXXXXXXXXXXXXXXXX....                ",
"++++++++                        XXXXXXXX        ....XXXX        ",
"++++++++                        XXXXXXXX        ....XXXX        ",
"++++++++                        XXXXXXXX        ....XXXX        ",
"++++++++                        XXXXXXXX        ....XXXX        ",
"++++++++                        XXXX....        ....XXXX        ",
"++++++++                        XXXX....        ....XXXX        ",
"++++++++                        XXXX....        ....XXXX        ",
"++++++++                        XXXX....        ....XXXX        ",
"++++++++OOOOOOOOXXXXXXXX                ........                ",
"++++++++OOOOOOOOXXXXXXXX                ........                ",
"++++++++OOOOOOOOXXXXXXXX                ........                ",
"++++++++OOOOOOOOXXXXXXXX                ........                ",
"++++++++OOOOOOOOXXXXXXXX                XXXXXXXX                ",
"++++++++OOOOOOOOXXXXXXXX                XXXXXXXX                ",
"++++++++OOOOOOOOXXXXXXXX                XXXXXXXX                ",
"++++++++OOOOOOOOXXXXXXXX                XXXXXXXX                "
};
