/* XPM */
static char *result[] = {
/* columns rows colors chars-per-pixel */
"64 64 10 1 ",
"  c gray19",
". c #505060",
"X c #F04028",
"o c #D01058",
"O c #787884",
"+ c #9090A0",
"@ c #F08888",
"# c #D0D0D8",
"$ c #F8F8F8",
"% c None",
/* pixels */
"%%%%%%%%%%%%%%%%%%%%%%%%%%%%%%%%%%%%%%%%%%%%%%%%%%%%%%%%%%%%%%%%",
"%%%%%%%%%%%%%%%%%%%%%%%%%%%%%%%%%%%%%%%%%%%%%%%%%%%%%%%%%%%%%%%%",
"%%%%%%%%%%%%%%%%%%%%%%%%%%%%%%%%%%%%%%%%%%%%%%%%%%%%%%%%%%%%%%%%",
"%%%%%%%%%%%%%%%%%%%%%%%%%%%%%%%%%%%%%%%%%%%%%%%%%%%%%%%%%%%%%%%%",
"%%%%%%%%%%%%%%%%%%%%%%%%                %%%%%%%%%%%%%%%%%%%%%%%%",
"%%%%%%%%%%%%%%%%%%%%%%%%                %%%%%%%%%%%%%%%%%%%%%%%%",
"%%%%%%%%%%%%%%%%%%%%%%%%                %%%%%%%%%%%%%%%%%%%%%%%%",
"%%%%%%%%%%%%%%%%%%%%%%%%                %%%%%%%%%%%%%%%%%%%%%%%%",
"%%%%%%%%%%%%%%%%        @@@@XXXXXXXXXXXX        %%%%%%%%%%%%%%%%",
"%%%%%%%%%%%%%%%%        @@@@XXXXXXXXXXXX        %%%%%%%%%%%%%%%%",
"%%%%%%%%%%%%%%%%        @@@@XXXXXXXXXXXX        %%%%%%%%%%%%%%%%",
"%%%%%%%%%%%%%%%%        @@@@XXXXXXXXXXXX        %%%%%%%%%%%%%%%%",
"%%%%%%%%%%%%    @@@@@@@@@@@@@@@@XXXXXXXXXXXXXXXX    %%%%%%%%%%%%",
"%%%%%%%%%%%%    @@@@@@@@@@@@@@@@XXXXXXXXXXXXXXXX    %%%%%%%%%%%%",
"%%%%%%%%%%%%    @@@@@@@@@@@@@@@@XXXXXXXXXXXXXXXX    %%%%%%%%%%%%",
"%%%%%%%%%%%%    @@@@@@@@@@@@@@@@XXXXXXXXXXXXXXXX    %%%%%%%%%%%%",
"%%%%%%%%    XXXX@@@@@@@@@@@@@@@@XXXXXXXXXXXXXXXXXXXX    %%%%%%%%",
"%%%%%%%%    XXXX@@@@@@@@@@@@@@@@XXXXXXXXXXXXXXXXXXXX    %%%%%%%%",
"%%%%%%%%    XXXX@@@@@@@@@@@@@@@@XXXXXXXXXXXXXXXXXXXX    %%%%%%%%",
"%%%%%%%%    XXXX@@@@@@@@@@@@@@@@XXXXXXXXXXXXXXXXXXXX    %%%%%%%%",
"%%%%%%%%    XXXXXXXX@@@@@@@@XXXXXXXXXXXXXXXXXXXXXXXX    %%%%%%%%",
"%%%%%%%%    XXXXXXXX@@@@@@@@XXXXXXXXXXXXXXXXXXXXXXXX    %%%%%%%%",
"%%%%%%%%    XXXXXXXX@@@@@@@@XXXXXXXXXXXXXXXXXXXXXXXX    %%%%%%%%",
"%%%%%%%%    XXXXXXXX@@@@@@@@XXXXXXXXXXXXXXXXXXXXXXXX    %%%%%%%%",
"%%%%    XXXXXXXXXXXXXXXXXXXXXXXXXXXXXXXXXXXXXXXXXXXXXXXX    %%%%",
"%%%%    XXXXXXXXXXXXXXXXXXXXXXXXXXXXXXXXXXXXXXXXXXXXXXXX    %%%%",
"%%%%    XXXXXXXXXXXXXXXXXXXXXXXXXXXXXXXXXXXXXXXXXXXXXXXX    %%%%",
"%%%%    XXXXXXXXXXXXXXXXXXXXXXXXXXXXXXXXXXXXXXXXXXXXXXXX    %%%%",
"%%%%    XXXXXXXXXXXXXXXXXXXXXXXXXXXXXXXXXXXXXXXXXXXXXXXX    %%%%",
"%%%%    XXXXXXXXXXXXXXXXXXXXXXXXXXXXXXXXXXXXXXXXXXXXXXXX    %%%%",
"%%%%    XXXXXXXXXXXXXXXXXXXXXXXXXXXXXXXXXXXXXXXXXXXXXXXX    %%%%",
"%%%%    XXXXXXXXXXXXXXXXXXXXXXXXXXXXXXXXXXXXXXXXXXXXXXXX    %%%%",
"%%%%    ....XXXXXXXXXXXXXXXX        XXXXXXXXXXXXXXXX....    %%%%",
"%%%%    ....XXXXXXXXXXXXXXXX        XXXXXXXXXXXXXXXX....    %%%%",
"%%%%    ....XXXXXXXXXXXXXXXX        XXXXXXXXXXXXXXXX....    %%%%",
"%%%%    ....XXXXXXXXXXXXXXXX        XXXXXXXXXXXXXXXX....    %%%%",
"%%%%    ####....oooooooo    $$$$####    oooooooo....####    %%%%",
"%%%%    ####....oooooooo    $$$$####    oooooooo....####    %%%%",
"%%%%    ####....oooooooo    $$$$####    oooooooo....####    %%%%",
"%%%%    ####....oooooooo    $$$$####    oooooooo....####    %%%%",
"%%%%%%%%    ####++++....    ####++++    ....++++####    %%%%%%%%",
"%%%%%%%%    ####++++....    ####++++    ....++++####    %%%%%%%%",
"%%%%%%%%    ####++++....    ####++OO    ....++++####    %%%%%%%%",
"%%%%%%%%    ####++++....    ####++OO    ....++++####    %%%%%%%%",
"%%%%%%%%    ############++++        OO++############    %%%%%%%%",
"%%%%%%%%    ############++++        OO++############    %%%%%%%%",
"%%%%%%%%    ############++++        ++++############    %%%%%%%%",
"%%%%%%%%    ############++++        ++++############    %%%%%%%%",
"%%%%%%%%%%%%    ################################    %%%%%%%%%%%%",
"%%%%%%%%%%%%    ################################    %%%%%%%%%%%%",
"%%%%%%%%%%%%    ################################    %%%%%%%%%%%%",
"%%%%%%%%%%%%    ################################    %%%%%%%%%%%%",
"%%%%%%%%%%%%%%%%        ################        %%%%%%%%%%%%%%%%",
"%%%%%%%%%%%%%%%%        ################        %%%%%%%%%%%%%%%%",
"%%%%%%%%%%%%%%%%        ################        %%%%%%%%%%%%%%%%",
"%%%%%%%%%%%%%%%%        ################        %%%%%%%%%%%%%%%%",
"%%%%%%%%%%%%%%%%%%%%%%%%                %%%%%%%%%%%%%%%%%%%%%%%%",
"%%%%%%%%%%%%%%%%%%%%%%%%                %%%%%%%%%%%%%%%%%%%%%%%%",
"%%%%%%%%%%%%%%%%%%%%%%%%                %%%%%%%%%%%%%%%%%%%%%%%%",
"%%%%%%%%%%%%%%%%%%%%%%%%                %%%%%%%%%%%%%%%%%%%%%%%%",
"%%%%%%%%%%%%%%%%%%%%%%%%%%%%%%%%%%%%%%%%%%%%%%%%%%%%%%%%%%%%%%%%",
"%%%%%%%%%%%%%%%%%%%%%%%%%%%%%%%%%%%%%%%%%%%%%%%%%%%%%%%%%%%%%%%%",
"%%%%%%%%%%%%%%%%%%%%%%%%%%%%%%%%%%%%%%%%%%%%%%%%%%%%%%%%%%%%%%%%",
"%%%%%%%%%%%%%%%%%%%%%%%%%%%%%%%%%%%%%%%%%%%%%%%%%%%%%%%%%%%%%%%%"
};
