/* XPM */
static char *result[] = {
/* columns rows colors chars-per-pixel */
"64 64 6 1 ",
"  c gray47",
". c #F88070",
"X c #B0B0A0",
"o c #98D0F8",
"O c #D8E0E0",
"+ c #F8F8F8",
/* pixels */
"................XXXXXXXXXXXX        XXXXXXXXXXXX................",
"................XXXXXXXXXXXX        XXXXXXXXXXXX................",
"................XXXXXXXXXXXX        XXXXXXXXXXXX................",
"................XXXXXXXXXXXX        XXXXXXXXXXXX................",
"............XXXXXXXXXXXX    ++++++++    XXXXXXXXXXXX............",
"............XXXXXXXXXXXX    ++++++++    XXXXXXXXXXXX............",
"............XXXXXXXXXXXX    ++++++++    XXXXXXXXXXXX............",
"............XXXXXXXXXXXX    ++++++++    XXXXXXXXXXXX............",
"........XXXXXXXXXXXX    ++++++++++++++++    XXXXXXXXXXXX........",
"........XXXXXXXXXXXX    ++++++++++++++++    XXXXXXXXXXXX........",
"........XXXXXXXXXXXX    ++++++++++++++++    XXXXXXXXXXXX........",
"........XXXXXXXXXXXX    ++++++++++++++++    XXXXXXXXXXXX........",
"....XXXXXXXXXXXX    ++++++++++++++++++++++++    XXXXXXXXXXXX....",
"....XXXXXXXXXXXX    ++++++++++++++++++++++++    XXXXXXXXXXXX....",
"....XXXXXXXXXXXX    ++++++++++++++++++++++++    XXXXXXXXXXXX....",
"....XXXXXXXXXXXX    ++++++++++++++++++++++++    XXXXXXXXXXXX....",
"XXXXXXXXXXXX    ++++++++oooooooooooooooo++++++++    XXXXXXXXXXXX",
"XXXXXXXXXXXX    ++++++++oooooooooooooooo++++++++    XXXXXXXXXXXX",
"XXXXXXXXXXXX    ++++++++oooooooooooooooo++++++++    XXXXXXXXXXXX",
"XXXXXXXXXXXX    ++++++++oooooooooooooooo++++++++    XXXXXXXXXXXX",
"XXXXXXXX    ++++++++++++++++++++++++++++++++++++++++    XXXXXXXX",
"XXXXXXXX    ++++++++++++++++++++++++++++++++++++++++    XXXXXXXX",
"XXXXXXXX    ++++++++++++++++++++++++++++++++++++++++    XXXXXXXX",
"XXXXXXXX    ++++++++++++++++++++++++++++++++++++++++    XXXXXXXX",
"XXXX    OOOO++++oooo++++++++++++++++++++++++oooo++++OOOO    XXXX",
"XXXX    OOOO++++oooo++++++++++++++++++++++++oooo++++OOOO    XXXX",
"XXXX    OOOO++++oooo++++++++++++++++++++++++oooo++++OOOO    XXXX",
"XXXX    OOOO++++oooo++++++++++++++++++++++++oooo++++OOOO    XXXX",
"    OOOOOOOO++++oooo++++++++++++++++++++++++oooo++++OOOOOOOO    ",
"    OOOOOOOO++++oooo++++++++++++++++++++++++oooo++++OOOOOOOO    ",
"    OOOOOOOO++++oooo++++++++++++++++++++++++oooo++++OOOOOOOO    ",
"    OOOOOOOO++++oooo++++++++++++++++++++++++oooo++++OOOOOOOO    ",
"    OOOOOOOO++++oooo++++++++++++++++++++++++oooo++++OOOOOOOO    ",
"    OOOOOOOO++++oooo++++++++++++++++++++++++oooo++++OOOOOOOO    ",
"    OOOOOOOO++++oooo++++++++++++++++++++++++oooo++++OOOOOOOO    ",
"    OOOOOOOO++++oooo++++++++++++++++++++++++oooo++++OOOOOOOO    ",
"XXXX    OOOO++++oooo++++++++++++++++++++++++oooo++++OOOO    XXXX",
"XXXX    OOOO++++oooo++++++++++++++++++++++++oooo++++OOOO    XXXX",
"XXXX    OOOO++++oooo++++++++++++++++++++++++oooo++++OOOO    XXXX",
"XXXX    OOOO++++oooo++++++++++++++++++++++++oooo++++OOOO    XXXX",
"XXXXXXXX    ++++++++++++++++++++++++++++++++++++++++    XXXXXXXX",
"XXXXXXXX    ++++++++++++++++++++++++++++++++++++++++    XXXXXXXX",
"XXXXXXXX    ++++++++++++++++++++++++++++++++++++++++    XXXXXXXX",
"XXXXXXXX    ++++++++++++++++++++++++++++++++++++++++    XXXXXXXX",
"XXXXXXXXXXXX    ++++++++oooooooooooooooo++++++++    XXXXXXXXXXXX",
"XXXXXXXXXXXX    ++++++++oooooooooooooooo++++++++    XXXXXXXXXXXX",
"XXXXXXXXXXXX    ++++++++oooooooooooooooo++++++++    XXXXXXXXXXXX",
"XXXXXXXXXXXX    ++++++++oooooooooooooooo++++++++    XXXXXXXXXXXX",
"....XXXXXXXXXXXX    ++++++++++++++++++++++++    XXXXXXXXXXXX....",
"....XXXXXXXXXXXX    ++++++++++++++++++++++++    XXXXXXXXXXXX....",
"....XXXXXXXXXXXX    ++++++++++++++++++++++++    XXXXXXXXXXXX....",
"....XXXXXXXXXXXX    ++++++++++++++++++++++++    XXXXXXXXXXXX....",
"........XXXXXXXXXXXX    ++++++++++++++++    XXXXXXXXXXXX........",
"........XXXXXXXXXXXX    ++++++++++++++++    XXXXXXXXXXXX........",
"........XXXXXXXXXXXX    ++++++++++++++++    XXXXXXXXXXXX........",
"........XXXXXXXXXXXX    ++++++++++++++++    XXXXXXXXXXXX........",
"............XXXXXXXXXXXX    ++++++++    XXXXXXXXXXXX............",
"............XXXXXXXXXXXX    ++++++++    XXXXXXXXXXXX............",
"............XXXXXXXXXXXX    ++++++++    XXXXXXXXXXXX............",
"............XXXXXXXXXXXX    ++++++++    XXXXXXXXXXXX............",
"................XXXXXXXXXXXX        XXXXXXXXXXXX................",
"................XXXXXXXXXXXX        XXXXXXXXXXXX................",
"................XXXXXXXXXXXX        XXXXXXXXXXXX................",
"................XXXXXXXXXXXX        XXXXXXXXXXXX................"
};
