/* XPM */
static char *result[] = {
/* columns rows colors chars-per-pixel */
"64 64 13 1 ",
"  c black",
". c #682828",
"X c #383878",
"o c #784040",
"O c #C03838",
"+ c #A87840",
"@ c #F86848",
"# c #B89838",
"$ c #D89070",
"% c #F8D858",
"& c #70A0C0",
"* c #F8C090",
"= c None",
/* pixels */
"================================================================",
"================================================================",
"===================..........................===================",
"===================..........................===================",
"===================..........................===================",
"================...OOO@@@@@@@@@@@@@@@@@@@@OOO...================",
"================...OOO@@@@@@@@@@@@@@@@@@@@OOO...================",
"================...OOO@@@@@@@@@@@@@@@@@@@@OOO...================",
"================...@@@@@@@@@@@@@@@@@@@@@@@@@@...================",
"================...@@@@@@@@@@@@@@@@@@@@@@@@@@...================",
"================...@@@@@@@@@@@@@@@@@@@@@@@@@@...================",
"=============...OOO@@@@@@@@@@@@@@@@@@@@@@@@@@OOO...=============",
"=============...OOO@@@@@@@@@@@@@@@@@@@@@@@@@@OOO...=============",
"=============...OOO@@@@@@@@@@@@@@@@@@@@@@@@@@OOO...=============",
"=============...OOOOOO@@@@@@@@@@@@@@@@@@@@OOOOOO...=============",
"=============...OOOOOO@@@@@@@@@@@@@@@@@@@@OOOOOO...=============",
"=============...OOOOOO@@@@@@@@@@@@@@@@@@@@OOOOOO...=============",
"=============...OOOOOO@@@@@@@@@@@@@@@@@@@@OOOOOO...=============",
"=============   OOOOOOOOOOOOOOOOOOOOOOOOOOOOOOOO   =============",
"=============   OOOOOOOOOOOOOOOOOOOOOOOOOOOOOOOO   =============",
"=============   OOOOOOOOOOOOOOOOOOOOOOOOOOOOOOOO   =============",
"=============   ...OOOOOOOOOOOOOOOOOOOOOOOOOO...   =============",
"=============   ...OOOOOOOOOOOOOOOOOOOOOOOOOO...   =============",
"=============   ...OOOOOOOOOOOOOOOOOOOOOOOOOO...   =============",
"==========   +++ooo...OOOOOOO      OOOOOOO...ooo+++   ==========",
"==========   +++ooo...OOOOOOO      OOOOOOO...ooo+++   ==========",
"==========   +++ooo...OOOOOOO      OOOOOOO...ooo+++   ==========",
"==========   $$$   ooo....................ooo   $$$   ==========",
"==========   $$$   ooo....................ooo   $$$   ==========",
"==========   $$$   ooo....................ooo   $$$   ==========",
"=============      ooooooo+++oooooo+++ooooooo      =============",
"=============      ooooooo+++oooooo+++ooooooo      =============",
"=============      ooooooo+++oooooo+++ooooooo      =============",
"=============      ooooooo+++oooooo+++ooooooo      =============",
"================          oooooooooooo          ================",
"================          oooooooooooo          ================",
"================          oooooooooooo          ================",
"=============   XXXooo####            ####ooo      =============",
"=============   XXXooo####            ####ooo      =============",
"=============   XXXooo####            ####ooo      =============",
"==========ooo***XXXOOO####OOOOOOOOOOOO####OOOXXX***ooo==========",
"==========ooo***XXXOOO####OOOOOOOOOOOO####OOOXXX***ooo==========",
"==========ooo***XXXOOO####OOOOOOOOOOOO####OOOXXX***ooo==========",
"==========ooo$$$oooOOOoooo%%%%%%%%%%%%ooooOOOooo$$$ooo==========",
"==========ooo$$$oooOOOoooo%%%%%%%%%%%%ooooOOOooo$$$ooo==========",
"==========ooo$$$oooOOOoooo%%%%%%%%%%%%ooooOOOooo$$$ooo==========",
"=============ooo      ####%%%%%%%%%%%%####      ooo=============",
"=============ooo      ####%%%%%%%%%%%%####      ooo=============",
"=============ooo      ####%%%%%%%%%%%%####      ooo=============",
"=============ooo      ####%%%%%%%%%%%%####      ooo=============",
"================XXX&&&####################&&&XXX================",
"================XXX&&&####################&&&XXX================",
"================XXX&&&####################&&&XXX================",
"================      &&&&###oooooo###&&&&      ================",
"================      &&&&###oooooo###&&&&      ================",
"================      &&&&###oooooo###&&&&      ================",
"================   XXXXXXX            XXXXXXX   ================",
"================   XXXXXXX            XXXXXXX   ================",
"================   XXXXXXX            XXXXXXX   ================",
"===================       ============       ===================",
"===================       ============       ===================",
"===================       ============       ===================",
"================================================================",
"================================================================"
};
