/* XPM */
static char *result[] = {
/* columns rows colors chars-per-pixel */
"64 64 16 1 ",
"  c black",
". c #682828",
"X c #383878",
"o c #784040",
"O c #C03838",
"+ c #A87840",
"@ c #F86848",
"# c #B89838",
"$ c #D89070",
"% c #F8D858",
"& c #70A0C0",
"* c #B492AA",
"= c #F8C090",
"- c #B0B0D0",
"; c #E8E8F8",
": c None",
/* pixels */
"::::::::::::::::::::::::::::::::::::::::::::::::::::::::::::::::",
"::::::::::::::::::::::::::::::::::::::::::::::::::::::::::::::::",
":::::::::::::::::::..........................:::::::::::::::::::",
":::::::::::::::::::..........................:::::::::::::::::::",
":::::::::::::::::::..........................:::::::::::::::::::",
"::::::::::::::::...OOO@@@@@@@@@@@@@@@@@@@@OOO...::::::::::::::::",
"::::::::::::::::...OOO@@@@@@@@@@@@@@@@@@@@OOO...::::::::::::::::",
"::::::::::::::::...OOO@@@@@@@@@@@@@@@@@@@@OOO...::::::::::::::::",
":::::::::::::...OOO@@@@@@@@@@@@@@@@@@@@@@@@@@...::::::::::::::::",
":::::::::::::...OOO@@@@@@@@@@@@@@@@@@@@@@@@@@...::::::::::::::::",
":::::::::::::...OOO@@@@@@@@@@@@@@@@@@@@@@@@@@...::::::::::::::::",
"::::::::::......;;;@@@@@@@@@@@@@@@@@@@@@@@@@@OOO...:::::::::::::",
"::::::::::......;;;@@@@@@@@@@@@@@@@@@@@@@@@@@OOO...:::::::::::::",
"::::::::::......;;;@@@@@@@@@@@@@@@@@@@@@@@@@@OOO...:::::::::::::",
"::::::::  ;;;...;;;OOO@@@@@@@@@@@@@@@@@@@@OOOOOO...:::::::::::::",
"::::::::  ;;;...;;;OOO@@@@@@@@@@@@@@@@@@@@OOOOOO...:::::::::::::",
"::::::::  ;;;...;;;OOO@@@@@@@@@@@@@@@@@@@@OOOOOO...:::::::::::::",
"::::::::  ;;;...;;;OOO@@@@@@@@@@@@@@@@@@@@OOOOOO...:::::::::::::",
"::::::::  ;;;OOO---OOOOOOOOOOOOOOOOOOOOOOOOOOOOO...:::::::::::::",
"::::::::  ;;;OOO**-OOOOOOOOOOOOOOOOOOOOOOOOOOOOO...:::::::::::::",
"::::::::  ;;;OOO**-OOOOOOOOOOOOOOOOOOOOOOOOOOOOO...:::::::::::::",
"::::::::  ;;;-**OOOOOOOOOOOOOOOOOOOOOOOOOOOOO...   :::::::::::::",
"::::::::  ;;;---OOOOOOOOOOOOOOOOOOOOOOOOOOOOO...   :::::::::::::",
"::::::::  ;;;---OOOOOOOOOOOOOOOOOOOOOOOOOOOOO...   :::::::::::::",
"::::::::::   ---------OOOOOOOOOOOOOOOO.......ooo   :::::::::::::",
"::::::::::   ---------OOOOOOOOOOOOOOOO.......ooo   :::::::::::::",
"::::::::::   ---------OOOOOOOOOOOOOOOO.......ooo   :::::::::::::",
":::::::::::::oooXXX...................oooooooooo   :::::::::::::",
":::::::::::::oooXXX...................oooooooooo   :::::::::::::",
":::::::::::::oooXXX...................oooooooooo   :::::::::::::",
":::::::::::::ooo$$$$$$    $$$$$$+++===$$$$ooo   ::::::::::::::::",
":::::::::::::ooo$$$$$$    $$$$$$+++===$$$$ooo   ::::::::::::::::",
":::::::::::::ooo$$$$$$    $$$$$$+++===$$$$ooo   ::::::::::::::::",
":::::::::::::ooo$$$$$$    $$$$$$+++===$$$$ooo   ::::::::::::::::",
"::::::::::::::::ooo===oooo===$$$$$$===$$$$   :::::::::::::::::::",
"::::::::::::::::ooo===oooo===$$$$$$===$$$$   :::::::::::::::::::",
"::::::::::::::::ooo===oooo===$$$$$$===$$$$   :::::::::::::::::::",
":::::::::::::::::::ooo$$$$$$$$$$$$$ooooooo###   ::::::::::::::::",
":::::::::::::::::::ooo$$$$$$$$$$$$$ooooooo###   ::::::::::::::::",
":::::::::::::::::::ooo$$$$$$$$$$$$$ooooooo###   ::::::::::::::::",
":::::::::::::::::::...ooooooo      ...####%%%%%%   :::::::::::::",
":::::::::::::::::::...ooooooo      ...####%%%%%%   :::::::::::::",
":::::::::::::::::::...ooooooo      ...####%%%%%%   :::::::::::::",
":::::::::::::::::::...OOOO   XXXXXX   ####%%%ooo   :::::::::::::",
":::::::::::::::::::...OOOO   XXXXXX   ####%%%ooo   :::::::::::::",
":::::::::::::::::::...OOOO   XXXXXX   ####%%%ooo   :::::::::::::",
":::::::::::::::::::   OOOO...XXXXXX   ....ooo###   :::::::::::::",
":::::::::::::::::::   OOOO...XXXXXX   ....ooo###   :::::::::::::",
":::::::::::::::::::   OOOO...XXXXXX   ....ooo###   :::::::::::::",
":::::::::::::::::::   OOOO...XXXXXX   ....ooo###   :::::::::::::",
"::::::::::::::::::::::       $$$$$$       ###   ::::::::::::::::",
"::::::::::::::::::::::       $$$$$$       ###   ::::::::::::::::",
"::::::::::::::::::::::       $$$$$$       ###   ::::::::::::::::",
"::::::::::::::::::::::    &&&oooooo&&&       :::::::::::::::::::",
"::::::::::::::::::::::    &&&oooooo&&&       :::::::::::::::::::",
"::::::::::::::::::::::    &&&oooooo&&&       :::::::::::::::::::",
"::::::::::::::::::::::    XXXOOOXXX   ::::::::::::::::::::::::::",
"::::::::::::::::::::::    XXXOOOXXX   ::::::::::::::::::::::::::",
"::::::::::::::::::::::    XXXOOOXXX   ::::::::::::::::::::::::::",
"::::::::::::::::::::::::::         :::::::::::::::::::::::::::::",
"::::::::::::::::::::::::::         :::::::::::::::::::::::::::::",
"::::::::::::::::::::::::::         :::::::::::::::::::::::::::::",
"::::::::::::::::::::::::::::::::::::::::::::::::::::::::::::::::",
"::::::::::::::::::::::::::::::::::::::::::::::::::::::::::::::::"
};
