/* XPM */
static char *result[] = {
/* columns rows colors chars-per-pixel */
"64 64 15 1 ",
"  c black",
". c #682828",
"X c #383878",
"o c #784040",
"O c #C03838",
"+ c #F86848",
"@ c #B89838",
"# c #D89070",
"$ c #F8D858",
"% c #70A0C0",
"& c #B492AA",
"* c #F8C090",
"= c #B0B0D0",
"- c #E8E8F8",
"; c None",
/* pixels */
";;;;;;;;;;;;;;;;;;;;;;;;;;;;;;;;;;;;;;;;;;;;;;;;;;;;;;;;;;;;;;;;",
";;;;;;;;;;;;;;;;;;;;;;;;;;;;;;;;;;;;;;;;;;;;;;;;;;;;;;;;;;;;;;;;",
";;;;;;;;;;;;;;;;;;;;;;;;;;;;;;;;;;;;;;;;;;;;;;;;;;;;;;;;;;;;;;;;",
";;;;;;;;;;;;;;;;;;;;;;..........................;;;;;;;;;;;;;;;;",
";;;;;;;;;;;;;;;;;;;;;;..........................;;;;;;;;;;;;;;;;",
";;;;;;;;;;;;;;;;;;;;;;..........................;;;;;;;;;;;;;;;;",
";;;;;;;;;;;;;;;;;;;...OOOO+++++++++++++++++++OOO...;;;;;;;;;;;;;",
";;;;;;;;;;;;;;;;;;;...OOOO+++++++++++++++++++OOO...;;;;;;;;;;;;;",
";;;;;;;;;;;;;;;;;;;...OOOO+++++++++++++++++++OOO...;;;;;;;;;;;;;",
";;;;;;;;;;;;;;;;;;;...OOOO+++++++++++++++++++OOO...;;;;;;;;;;;;;",
";;;;;;;;;;;;;;;;...OOO++++++++++++++++++++++++++...;;;;;;;;;;;;;",
";;;;;;;;;;;;;;;;...OOO++++++++++++++++++++++++++...;;;;;;;;;;;;;",
";;;;;;;;;;;;;;;;...OOO++++++++++++++++++++++++++...;;;;;;;;;;;;;",
";;;;;;;;;;;;;......---++++++++++++++++++++++++++OOO...;;;;;;;;;;",
";;;;;;;;;;;;;......---++++++++++++++++++++++++++OOO...;;;;;;;;;;",
";;;;;;;;;;;;;......---++++++++++++++++++++++++++OOO...;;;;;;;;;;",
";;;;;;;;;;   ---...---OOOO+++++++++++++++++++OOOOOO...;;;;;;;;;;",
";;;;;;;;;;   ---...---OOOO+++++++++++++++++++OOOOOO...;;;;;;;;;;",
";;;;;;;;;;   ---...---OOOO+++++++++++++++++++OOOOOO...;;;;;;;;;;",
";;;;;;;;;;   ---OOO===OOOOOOOOOOOOOOOOOOOOOOOOOOOOO...;;;;;;;;;;",
";;;;;;;;;;   ---OOO===OOOOOOOOOOOOOOOOOOOOOOOOOOOOO...;;;;;;;;;;",
";;;;;;;;;;   ---OOO&&=OOOOOOOOOOOOOOOOOOOOOOOOOOOOO...;;;;;;;;;;",
";;;;;;;;;;   ---==&OOOOOOOOOOOOOOOOOOOOOOOOOOOOO...   ;;;;;;;;;;",
";;;;;;;;;;   ---==&OOOOOOOOOOOOOOOOOOOOOOOOOOOOO...   ;;;;;;;;;;",
";;;;;;;;;;   ---===OOOOOOOOOOOOOOOOOOOOOOOOOOOOO...   ;;;;;;;;;;",
";;;;;;;;;;   ---===OOOOOOOOOOOOOOOOOOOOOOOOOOOOO...   ;;;;;;;;;;",
";;;;;;;;;;;;;   ==========OOOOOOOOOOOOOOOO......ooo   ;;;;;;;;;;",
";;;;;;;;;;;;;   ==========OOOOOOOOOOOOOOOO......ooo   ;;;;;;;;;;",
";;;;;;;;;;;;;   ==========OOOOOOOOOOOOOOOO......ooo   ;;;;;;;;;;",
";;;;;;;;;;;;;;;;oooXXX....................ooooooooo   ;;;;;;;;;;",
";;;;;;;;;;;;;;;;oooXXX....................ooooooooo   ;;;;;;;;;;",
";;;;;;;;;;;;;;;;oooXXX....................ooooooooo   ;;;;;;;;;;",
";;;;;;;;;;;;;;;;ooo#######   ######ooo****###ooo   ;;;;;;;;;;;;;",
";;;;;;;;;;;;;;;;ooo#######   ######ooo****###ooo   ;;;;;;;;;;;;;",
";;;;;;;;;;;;;;;;ooo#######   ######ooo****###ooo   ;;;;;;;;;;;;;",
";;;;;;;;;;;;;;;;;;;ooo****ooo***######****###   ;;;;;;;;;;;;;;;;",
";;;;;;;;;;;;;;;;;;;ooo****ooo***######****###   ;;;;;;;;;;;;;;;;",
";;;;;;;;;;;;;;;;;;;ooo****ooo***######****###   ;;;;;;;;;;;;;;;;",
";;;;;;;;;;;;;;;;;;;;;;oooo############ooooooo@@@   ;;;;;;;;;;;;;",
";;;;;;;;;;;;;;;;;;;;;;oooo############ooooooo@@@   ;;;;;;;;;;;;;",
";;;;;;;;;;;;;;;;;;;;;;oooo############ooooooo@@@   ;;;;;;;;;;;;;",
";;;;;;;;;;;;;;;;;;;;;;oooo############ooooooo@@@   ;;;;;;;;;;;;;",
";;;;;;;;;;;;;;;;;;;;;;    ooooooXXX...oooo@@@$$$$$$   ;;;;;;;;;;",
";;;;;;;;;;;;;;;;;;;;;;    ooooooXXX...oooo@@@$$$$$$   ;;;;;;;;;;",
";;;;;;;;;;;;;;;;;;;;;;    ooooooXXX...oooo@@@$$$$$$   ;;;;;;;;;;",
";;;;;;;;;;;;;;;;;;;   *******XXXXXXXXXOOOO@@@$$$ooo   ;;;;;;;;;;",
";;;;;;;;;;;;;;;;;;;   *******XXXXXXXXXOOOO@@@$$$ooo   ;;;;;;;;;;",
";;;;;;;;;;;;;;;;;;;   *******XXXXXXXXXOOOO@@@$$$ooo   ;;;;;;;;;;",
";;;;;;;;;;;;;;;;;;;   #######XXXXXX   OOOO...ooo@@@   ;;;;;;;;;;",
";;;;;;;;;;;;;;;;;;;   #######XXXXXX   OOOO...ooo@@@   ;;;;;;;;;;",
";;;;;;;;;;;;;;;;;;;   #######XXXXXX   OOOO...ooo@@@   ;;;;;;;;;;",
";;;;;;;;;;;;;;;;;;;;;;    ooo      %%%%%%%XXX@@@   ;;;;;;;;;;;;;",
";;;;;;;;;;;;;;;;;;;;;;    ooo      %%%%%%%XXX@@@   ;;;;;;;;;;;;;",
";;;;;;;;;;;;;;;;;;;;;;    ooo      %%%%%%%XXX@@@   ;;;;;;;;;;;;;",
";;;;;;;;;;;;;;;;;;;;;;;;;;            XXXXXXXXXX   ;;;;;;;;;;;;;",
";;;;;;;;;;;;;;;;;;;;;;;;;;            XXXXXXXXXX   ;;;;;;;;;;;;;",
";;;;;;;;;;;;;;;;;;;;;;;;;;            XXXXXXXXXX   ;;;;;;;;;;;;;",
";;;;;;;;;;;;;;;;;;;;;;;;;;            XXXXXXXXXX   ;;;;;;;;;;;;;",
";;;;;;;;;;;;;;;;;;;;;;;;;;;;;;;;;;;;;;          ;;;;;;;;;;;;;;;;",
";;;;;;;;;;;;;;;;;;;;;;;;;;;;;;;;;;;;;;          ;;;;;;;;;;;;;;;;",
";;;;;;;;;;;;;;;;;;;;;;;;;;;;;;;;;;;;;;          ;;;;;;;;;;;;;;;;",
";;;;;;;;;;;;;;;;;;;;;;;;;;;;;;;;;;;;;;;;;;;;;;;;;;;;;;;;;;;;;;;;",
";;;;;;;;;;;;;;;;;;;;;;;;;;;;;;;;;;;;;;;;;;;;;;;;;;;;;;;;;;;;;;;;",
";;;;;;;;;;;;;;;;;;;;;;;;;;;;;;;;;;;;;;;;;;;;;;;;;;;;;;;;;;;;;;;;"
};
