/* XPM */
static char *result[] = {
/* columns rows colors chars-per-pixel */
"64 64 13 1 ",
"  c black",
". c #5A3030",
"X c #682828",
"o c #383878",
"O c #784040",
"+ c #C03838",
"@ c #A87840",
"# c #F86848",
"$ c #B89838",
"% c #D89070",
"& c #F8D858",
"* c #70A0C0",
"= c None",
/* pixels */
"================================================================",
"================================================================",
"===================XXXXXXXXXXXXXXXXXXXXXXXXXX===================",
"===================XXXXXXXXXXXXXXXXXXXXXXXXXX===================",
"===================XXXXXXXXXXXXXXXXXXXXXXXXXX===================",
"================XXX+++####################+++XXX================",
"================XXX+++####################+++XXX================",
"================XXX+++####################+++XXX================",
"================XXX##########################XXX================",
"================XXX##########################XXX================",
"================XXX##########################XXX================",
"=============XXX+++##########################+++XXX=============",
"=============XXX+++##########################+++XXX=============",
"=============XXX+++##########################+++XXX=============",
"=============XXX++++++####################++++++XXX=============",
"=============XXX++++++####################++++++XXX=============",
"=============XXX++++++####################++++++XXX=============",
"=============XXX++++++####################++++++XXX=============",
"=============   ++++++++++++++++++++++++++++++++   =============",
"=============   ++++++++++++++++++++++++++++++++   =============",
"=============   ++++++++++++++++++++++++++++++++   =============",
"=============   XXX++++++++++++++++++++++++++XXX   =============",
"=============   XXX++++++++++++++++++++++++++XXX   =============",
"=============   XXX++++++++++++++++++++++++++XXX   =============",
"==========   @@@OOOXXX+++++++      +++++++XXXOOO@@@   ==========",
"==========   @@@OOOXXX+++++++      +++++++XXXOOO@@@   ==========",
"==========   @@@OOOXXX+++++++      +++++++XXXOOO@@@   ==========",
"==========   %%%   OOOXXXXXXXXXXXXXXXXXXXXOOO   %%%   ==========",
"==========   %%%   OOOXXXXXXXXXXXXXXXXXXXXOOO   %%%   ==========",
"==========   %%%   OOOXXXXXXXXXXXXXXXXXXXXOOO   %%%   ==========",
"==========OOO      OOOOOOO@@@OOOOOO@@@OOOOOOO      =============",
"==========OOO      OOOOOOO@@@OOOOOO@@@OOOOOOO      =============",
"==========OOO      OOOOOOO@@@OOOOOO@@@OOOOO..      =============",
"==========OOO      OOOOOOO@@@OOOOOO@@@OOOOO..      =============",
"==========OOO%%%ooo       OOOOOOOOOOOO       .OO================",
"==========OOO%%%ooo       .OOOOOOOOOO.       OOO================",
"==========OOO%%%ooo       .OOOOOOOOOO.       OOO================",
"==========OOOooooooOOOOO..            ..OOooo   ================",
"==========OOOooooooOOOOOOO            OOOOooo   ================",
"==========OOOooooooOOOOOOO            OOOOooo   ================",
"=============   ooo+++$$$$++++++++++++$$$$OOOooo   =============",
"=============   ooo+++$$$$++++++++++++$$$$OOOooo   =============",
"=============   ooo+++$$$$++++++++++++$$$$OOOooo   =============",
"================OOO+++OOOO&&&&&&&&&&&&OOOO+++ooo%%%   ==========",
"================OOO+++OOOO&&&&&&&&&&&&OOOO+++ooo%%%   ==========",
"================OOO+++OOOO&&&&&&&&&&&&OOOO+++ooo%%%   ==========",
"================   +++$$$$&&&&&&&&&&&&$$$$+++%%%%%%   ==========",
"================   +++$$$$&&&&&&&&&&&&$$$$+++%%%%%%   ==========",
"================   +++$$$$&&&&&&&&&&&&$$$$+++%%%%%%   ==========",
"================   +++$$$$&&&&&&&&&&&&$$$$+++%%%%%%   ==========",
"================   ooo$$$$$$$&&&&&&$$$$$$$ooo      =============",
"================   ooo$$$$$$$&&&&&&$$$$$$$ooo      =============",
"================   ooo$$$$$$$&&&&&&$$$$$$$ooo      =============",
"===================ooooooo$$$OOOOOO$$$       ===================",
"===================ooooooo$$$OOOOOO$$$       ===================",
"===================ooooooo$$$OOOOOO$$$       ===================",
"===================   *******         ==========================",
"===================   *******         ==========================",
"===================   *******         ==========================",
"======================       ===================================",
"======================       ===================================",
"======================       ===================================",
"================================================================",
"================================================================"
};
