/* XPM */
static char *result[] = {
/* columns rows colors chars-per-pixel */
"48 64 14 1 ",
"  c black",
". c #682828",
"X c #383878",
"o c #784040",
"O c #C03838",
"+ c #A87840",
"@ c #F86848",
"# c #C07C64",
"$ c #D89070",
"% c #70A0C0",
"& c #F8C090",
"* c #B0B0D0",
"= c #E8E8F8",
"- c None",
/* pixels */
"------------------------------------------------",
"------------------------------------------------",
"-----------..........................-----------",
"-----------..........................-----------",
"-----------..........................-----------",
"--------...OOO@@@@@@@@@@@@@@@@@@@@OOO...--------",
"--------...OOO@@@@@@@@@@@@@@@@@@@@OOO...--------",
"--------...OOO@@@@@@@@@@@@@@@@@@@@OOO...--------",
"--------...@@@@@@@@@@@@@@@@@@@@@@@@@@...--------",
"--------...@@@@@@@@@@@@@@@@@@@@@@@@@@...--------",
"--------...@@@@@@@@@@@@@@@@@@@@@@@@@@...--------",
"-----...OOO@@@@@@@@@@@@@@@@@@@@@@@@@@OOO...-----",
"-----...OOO@@@@@@@@@@@@@@@@@@@@@@@@@@OOO...-----",
"-----...OOO@@@@@@@@@@@@@@@@@@@@@@@@@@OOO...-----",
"-----   OOOOOO@@@@@@@@@@@@@@@@@@@@OOOOOO   -----",
"-----   OOOOOO@@@@@@@@@@@@@@@@@@@@OOOOOO   -----",
"-----   OOOOOO@@@@@@@@@@@@@@@@@@@@OOOOOO   -----",
"-----   OOOOOO@@@@@@@@@@@@@@@@@@@@OOOOOO   -----",
"-----   OOOOOOOOOOOOO======OOOOOOOOOOOOO   -----",
"-----   OOOOOOOOOOOOO======OOOOOOOOOOOOO   -----",
"-----   OOOOOOOOOOOOO======OOOOOOOOOOOOO   -----",
"--   +++...***OOOO***OOOOOO***OOOO***...+++   --",
"--   +++...***OOOO***OOOOOO***OOOO***...+++   --",
"--   +++...***OOOO***OOOOOO***OOOO***...+++   --",
"--   $$$   XXX====================XXX   $$$   --",
"--   $$$   XXX====================XXX   $$$   --",
"--   $$$   XXX====================XXX   $$$   --",
"-----   ooo$$$XXXXXXXXXXXXXXXXXXXX$$$ooo   -----",
"-----   ooo$$$XXXXXXXXXXXXXXXXXXXX$$$ooo   -----",
"-----   ooo$$$XXXXXXXXXXXXXXXXXXXX$$$ooo   -----",
"-----   $$$$$$&&&&   &&&&&&   &&&&$$$$$$   -----",
"-----   $$$$$$&&&&   &&&&&&   &&&&$$$$$$   -----",
"-----   $$$$$$&&&&   &&&&&&   &&&&$$$$$$   -----",
"-----   $$$$$$&&&&   &&&&&&   &&&&$$$$$$   -----",
"--------ooo$$$$$$$ooo&&&&&&ooo$$$$$$$ooo--------",
"--------ooo$$$$$##ooo&&&&&&ooo##$$$$$ooo--------",
"--------ooo$$$$$##ooo&&&&&&ooo##$$$$$ooo--------",
"-----   XXX   oooo#$$$$$$$$$$#oooo   XXX   -----",
"-----   XXX   oooo$$$$$$$$$$$$oooo   XXX   -----",
"-----   XXX   oooo$$$$$$$$$$$$oooo   XXX   -----",
"--ooo&&&XXXXXXOOOO            OOOOXXXXXX&&&ooo--",
"--ooo&&&XXXXXXOOOO            OOOOXXXXXX&&&ooo--",
"--ooo&&&XXXXXXOOOO            OOOOXXXXXX&&&ooo--",
"--ooo$$$$$$XXXOOOOOOO******OOOOOOOXXX$$$$$$ooo--",
"--ooo$$$$$$XXXOOOOOOO******OOOOOOOXXX$$$$$$ooo--",
"--ooo$$$$$$XXXOOOOOOO******OOOOOOOXXX$$$$$$ooo--",
"-----ooo      OOOO@@@======@@@OOOO      ooo-----",
"-----ooo      OOOO@@@======@@@OOOO      ooo-----",
"-----ooo      OOOO@@@======@@@OOOO      ooo-----",
"-----ooo      OOOO@@@======@@@OOOO      ooo-----",
"--------XXX%%%XXXX            XXXX%%%XXX--------",
"--------XXX%%%XXXX            XXXX%%%XXX--------",
"--------XXX%%%XXXX            XXXX%%%XXX--------",
"--------      %%%%%%%      %%%%%%%      --------",
"--------      %%%%%%%      %%%%%%%      --------",
"--------      %%%%%%%      %%%%%%%      --------",
"--------   XXXXXXX   ------   XXXXXXX   --------",
"--------   XXXXXXX   ------   XXXXXXX   --------",
"--------   XXXXXXX   ------   XXXXXXX   --------",
"-----------       ------------       -----------",
"-----------       ------------       -----------",
"-----------       ------------       -----------",
"------------------------------------------------",
"------------------------------------------------"
};
