/* XPM */
static char *result[] = {
/* columns rows colors chars-per-pixel */
"48 64 16 1 ",
"  c black",
". c #682828",
"X c #383878",
"o c #784040",
"O c #C03838",
"+ c #A87840",
"@ c #F86848",
"# c #B89838",
"$ c #D89070",
"% c #F8D858",
"& c #70A0C0",
"* c #B492AA",
"= c #F8C090",
"- c #B0B0D0",
"; c #E8E8F8",
": c None",
/* pixels */
"::::::::::::::::::::::::::::::::::::::::::::::::",
"::::::::::::::::::::::::::::::::::::::::::::::::",
":::::::::::..........................:::::::::::",
":::::::::::..........................:::::::::::",
":::::::::::..........................:::::::::::",
"::::::::...OOO@@@@@@@@@@@@@@@@@@@@OOO...::::::::",
"::::::::...OOO@@@@@@@@@@@@@@@@@@@@OOO...::::::::",
"::::::::...OOO@@@@@@@@@@@@@@@@@@@@OOO...::::::::",
"::::::::...@@@@@@@@@@@@@@@@@@@@@@@@@@OOO...:::::",
"::::::::...@@@@@@@@@@@@@@@@@@@@@@@@@@OOO...:::::",
"::::::::...@@@@@@@@@@@@@@@@@@@@@@@@@@OOO...:::::",
":::::...OOO@@@@@@@@@@@@@@@@@@@@@@@@@@;;;......::",
":::::...OOO@@@@@@@@@@@@@@@@@@@@@@@@@@;;;......::",
":::::...OOO@@@@@@@@@@@@@@@@@@@@@@@@@@;;;......::",
":::::...OOOOOO@@@@@@@@@@@@@@@@@@@@OOO;;;...;;;  ",
":::::...OOOOOO@@@@@@@@@@@@@@@@@@@@OOO;;;...;;;  ",
":::::...OOOOOO@@@@@@@@@@@@@@@@@@@@OOO;;;...;;;  ",
":::::...OOOOOO@@@@@@@@@@@@@@@@@@@@OOO;;;...;;;  ",
":::::...OOOOOOOOOOOOOOOOOOOOOOOOOOOOO---OOO;;;  ",
":::::...OOOOOOOOOOOOOOOOOOOOOOOOOOOOO-**OOO;;;  ",
":::::...OOOOOOOOOOOOOOOOOOOOOOOOOOOOO-**OOO;;;  ",
":::::   ...OOOOOOOOOOOOOOOOOOOOOOOOOOOOO**-;;;  ",
":::::   ...OOOOOOOOOOOOOOOOOOOOOOOOOOOOO---;;;  ",
":::::   ...OOOOOOOOOOOOOOOOOOOOOOOOOOOOO---;;;  ",
":::::   ooo.......OOOOOOOOOOOOOOOO---------   ::",
":::::   ooo.......OOOOOOOOOOOOOOOO---------   ::",
":::::   ooo.......OOOOOOOOOOOOOOOO---------   ::",
":::::   oooooooooo...................XXXooo:::::",
":::::   oooooooooo...................XXXooo:::::",
":::::   oooooooooo...................XXXooo:::::",
"::::::::   ooo$$$$===+++$$$$$$    $$$$$$ooo:::::",
"::::::::   ooo$$$$===+++$$$$$$    $$$$$$ooo:::::",
"::::::::   ooo$$$$===+++$$$$$$    $$$$$$ooo:::::",
"::::::::   ooo$$$$===+++$$$$$$    $$$$$$ooo:::::",
":::::::::::   $$$$===$$$$$$===oooo===ooo::::::::",
":::::::::::   $$$$===$$$$$$===oooo===ooo::::::::",
":::::::::::   $$$$===$$$$$$===oooo===ooo::::::::",
"::::::::   ###ooooooo$$$$$$$$$$$$$ooo:::::::::::",
"::::::::   ###ooooooo$$$$$$$$$$$$$ooo:::::::::::",
"::::::::   ###ooooooo$$$$$$$$$$$$$ooo:::::::::::",
":::::   %%%%%%####...      ooooooo...:::::::::::",
":::::   %%%%%%####...      ooooooo...:::::::::::",
":::::   %%%%%%####...      ooooooo...:::::::::::",
":::::   ooo%%%####   XXXXXX   OOOO...:::::::::::",
":::::   ooo%%%####   XXXXXX   OOOO...:::::::::::",
":::::   ooo%%%####   XXXXXX   OOOO...:::::::::::",
":::::   ###ooo....   XXXXXX...OOOO   :::::::::::",
":::::   ###ooo....   XXXXXX...OOOO   :::::::::::",
":::::   ###ooo....   XXXXXX...OOOO   :::::::::::",
":::::   ###ooo....   XXXXXX...OOOO   :::::::::::",
"::::::::   ###       $$$$$$       ::::::::::::::",
"::::::::   ###       $$$$$$       ::::::::::::::",
"::::::::   ###       $$$$$$       ::::::::::::::",
":::::::::::       &&&oooooo&&&    ::::::::::::::",
":::::::::::       &&&oooooo&&&    ::::::::::::::",
":::::::::::       &&&oooooo&&&    ::::::::::::::",
"::::::::::::::::::   XXXOOOXXX    ::::::::::::::",
"::::::::::::::::::   XXXOOOXXX    ::::::::::::::",
"::::::::::::::::::   XXXOOOXXX    ::::::::::::::",
":::::::::::::::::::::         ::::::::::::::::::",
":::::::::::::::::::::         ::::::::::::::::::",
":::::::::::::::::::::         ::::::::::::::::::",
"::::::::::::::::::::::::::::::::::::::::::::::::",
"::::::::::::::::::::::::::::::::::::::::::::::::"
};
