/* XPM */
static char *result[] = {
/* columns rows colors chars-per-pixel */
"64 64 217 2 ",
"   c #000000",
".  c #04050D",
"X  c #0B0805",
"o  c #140405",
"O  c #110809",
"+  c #1C0B0C",
"@  c #19120A",
"#  c #070914",
"$  c #12181A",
"%  c #230D0D",
"&  c #271613",
"*  c #381919",
"=  c #330909",
"-  c #20201B",
";  c #381B20",
":  c #3C2020",
">  c #531212",
",  c #5B1514",
"<  c #5A1819",
"1  c #540C0C",
"2  c #621D1C",
"3  c #5F1F22",
"4  c #472625",
"5  c #5C2425",
"6  c #58202B",
"7  c #542F2C",
"8  c #632525",
"9  c #692929",
"0  c #682829",
"q  c #722A2B",
"w  c #722525",
"e  c #7E312C",
"r  c #79382F",
"t  c #622C34",
"y  c #633334",
"u  c #6C3233",
"i  c #6D3539",
"p  c #6E393B",
"a  c #733B3D",
"s  c #753938",
"d  c #6F312E",
"f  c #594918",
"g  c #6E5E1E",
"h  c #7D433B",
"j  c #6E542D",
"k  c #7C6B2A",
"l  c #31316B",
"z  c #393568",
"x  c #252A75",
"c  c #2C3279",
"v  c #223171",
"b  c #333476",
"n  c #333579",
"m  c #383879",
"M  c #33397F",
"N  c #272E68",
"B  c #2C2C59",
"V  c #753C40",
"C  c #753A41",
"Z  c #4A3965",
"A  c #5F465A",
"S  c #704040",
"D  c #794141",
"F  c #7F4848",
"G  c #574B78",
"H  c #5D527D",
"J  c #4F4A6D",
"K  c #785C77",
"L  c #6F5471",
"P  c #74747C",
"I  c #78787D",
"U  c #6D7079",
"Y  c #7D734C",
"T  c #851F1D",
"R  c #992B2B",
"E  c #943030",
"W  c #9C3131",
"Q  c #872829",
"!  c #B72E32",
"~  c #A13232",
"^  c #AC3333",
"/  c #B23232",
"(  c #BB3436",
")  c #B93838",
"_  c #B73B37",
"`  c #B02E2B",
"'  c #C22D2A",
"]  c #C13434",
"[  c #C23638",
"{  c #C13838",
"}  c #CB3B3A",
"|  c #C93A33",
" . c #D43D3D",
".. c #D53C38",
"X. c #D2372F",
"o. c #E23D35",
"O. c #824F3E",
"+. c #86533F",
"@. c #977837",
"#. c #8D762C",
"$. c #A67B37",
"%. c #DB4F3F",
"&. c #824545",
"*. c #844C43",
"=. c #894B4A",
"-. c #8C544A",
";. c #95594C",
":. c #845050",
">. c #8A5757",
",. c #9D5E52",
"<. c #965752",
"1. c #9E4044",
"2. c #BC4549",
"3. c #BC5057",
"4. c #BB4D53",
"5. c #9E6053",
"6. c #A86B5A",
"7. c #B16C57",
"8. c #B06F5C",
"9. c #AA715D",
"0. c #B3725D",
"q. c #B9755D",
"w. c #BB5861",
"e. c #8F6264",
"r. c #926464",
"t. c #986869",
"y. c #9F7275",
"u. c #B9616D",
"i. c #B96773",
"p. c #AB756A",
"a. c #DD5C42",
"s. c #C44E52",
"d. c #C6565A",
"f. c #E15441",
"g. c #ED5E44",
"h. c #E15F43",
"j. c #ED4D43",
"k. c #C2775F",
"l. c #EF6045",
"z. c #EE6248",
"x. c #F36446",
"c. c #F96948",
"v. c #F96545",
"b. c #C47F66",
"n. c #EF7B67",
"m. c #988434",
"M. c #B89837",
"N. c #B29033",
"B. c #BFA237",
"V. c #C6A539",
"C. c #D0AF3C",
"Z. c #D3B244",
"A. c #CA8469",
"S. c #C78468",
"D. c #D68C6E",
"F. c #D68C6C",
"G. c #DB9271",
"H. c #DD9C78",
"J. c #D69370",
"K. c #E4966F",
"L. c #E39975",
"P. c #E89B77",
"I. c #F38B70",
"U. c #DCA67A",
"Y. c #E6A47D",
"T. c #F7A47C",
"R. c #FADA59",
"E. c #E3C34C",
"W. c #FFE55B",
"Q. c #FFED5D",
"!. c #FFF55F",
"~. c #FFF062",
"^. c #293985",
"/. c #3E3E85",
"(. c #363A87",
"). c #41418D",
"_. c #4D488D",
"`. c #937E91",
"'. c #B87383",
"]. c #C27F8C",
"[. c #6795B3",
"{. c #77A9CB",
"}. c #99859B",
"|. c #92929C",
" X c #8D8D95",
".X c #B6869B",
"XX c #8A8AA9",
"oX c #8385B2",
"OX c #B29BB7",
"+X c #E4AA82",
"@X c #EAB28A",
"#X c #F5BB8B",
"$X c #FCB389",
"%X c #FBC392",
"&X c #FFCA95",
"*X c #FFCE99",
"=X c #FFD39B",
"-X c #80B7DC",
";X c #AEB8DB",
":X c #ADB4D7",
">X c #B3B4D4",
",X c #B8BADA",
"<X c #ACACCB",
"1X c #C4B2C5",
"2X c #89C3EA",
"3X c #B5C1E4",
"4X c #ADC4E9",
"5X c #D0C4D1",
"6X c #D2D1DF",
"7X c #D3DBF3",
"8X c #EAEAFA",
"9X c #ECFAFF",
"0X c #EAF3FF",
"qX c #F6F6FF",
"wX c #F3FAFF",
"eX c #FDFDFF",
"rX c None",
/* pixels */
"rXrXrXrXrXrXrXrXrXrXrXrXrXrXrXrXrXrXrXrXrXrXrXrXrXrXrXrXrXrXrXrXrXrXrXrXrXrXrXrXrXrXrXrXrXrXrXrXrXrXrXrXrXrXrXrXrXrXrXrXrXrXrXrX",
"rXrXrXrXrXrXrXrXrXrXrXrXrXrXrXrXrXrXrXrXrXrXrXrXrXrXrXrXrXrXrXrXrXrXrXrXrXrXrXrXrXrXrXrXrXrXrXrXrXrXrXrXrXrXrXrXrXrXrXrXrXrXrXrX",
"rXrXrXrXrXrXrXrXrXrXrXrXrXrXrXrXrXrXrXrXrXrXrXrXrXrXrXrXrXrXrXrXrXrXrXrXrXrXrXrXrXrXrXrXrXrXrXrXrXrXrXrXrXrXrXrXrXrXrXrXrXrXrXrX",
"rXrXrXrXrXrXrXrXrXrXrXrXrXrXrXrXrXrXrXrXrXrXrXrXrXrXrXrXrXrXrXrXrXrXrXrXrXrXrXrXrXrXrXrXrXrXrXrXrXrXrXrXrXrXrXrXrXrXrXrXrXrXrXrX",
"rXrXrXrXrXrXrXrXrXrXrXrXrXrXrXrXrXrXrXrXrXrXrXrXrXrXrXrXrXrXrXrXrXrXrXrXrXrXrXrXrXrXrXrXrXrXrXrXrXrXrXrXrXrXrXrXrXrXrXrXrXrXrXrX",
"rXrXrXrXrXrXrXrXrXrXrXrXrXrXrXrX< < < < < < < 2 < < < 5 < < < 5 < < < < 2 < < < < , rXrXrXrXrXrXrXrXrXrXrXrXrXrXrXrXrXrXrXrXrXrX",
"rXrXrXrXrXrXrXrXrXrXrXrXrXrXrXrX< 0 r Q r Q Q r e Q r E r Q r E r Q O.Q r Q e q w < rXrXrXrXrXrXrXrXrXrXrXrXrXrXrXrXrXrXrXrXrXrX",
"rXrXrXrXrXrXrXrXrXrXrXrXrX< , > ` %.) c.c.c.c.c.c.c.c.c.c.c.c.c.c.c.c.c.c.c.v.{ } / > 1 < rXrXrXrXrXrXrXrXrXrXrXrXrXrXrXrXrXrXrX",
"rXrXrXrXrXrXrXrXrXrXrXrXrX< < 5 ^ ) ( l.c.c.c.c.c.c.c.c.x.c.c.c.c.c.c.c.c.c.g.( { ^ 5 < < rXrXrXrXrXrXrXrXrXrXrXrXrXrXrXrXrXrXrX",
"rXrXrXrXrXrXrXrXrXrXrXrXrX< < 5 ^ %.{ l.c.c.c.x.c.c.x.c.c.c.c.x.c.c.c.c.c.c.l.) %.^ 9 w < rXrXrXrXrXrXrXrXrXrXrXrXrXrXrXrXrXrXrX",
"rXrXrXrXrXrXrXrXrXrXrXrXrX< < 5 l.c.c.c.c.c.c.c.c.x.c.c.c.c.c.c.c.c.c.c.c.c.c.c.c.x.[ } ` < < < rXrXrXrXrXrXrXrXrXrXrXrXrXrXrXrX",
"rXrXrXrXrXrXrXrXrXrXrXrXrX< < 5 h.c.c.c.x.c.c.c.c.c.x.c.c.c.c.c.c.c.c.c.c.c.c.c.c.g.( ] ^ < < < rXrXrXrXrXrXrXrXrXrXrXrXrXrXrXrX",
"rXrXrXrXrXrXrXrXrXrXrXrXrX< q 0 %.c.c.c.c.c.c.c.c.c.x.c.c.c.c.c.c.c.c.c.c.z.c.c.c.x.s.s.2.< < < rXrXrXrXrXrXrXrXrXrXrXrXrXrXrXrX",
"rXrXrXrXrXrXrXrXrXrX< > Q ..} [ l.c.c.c.c.c.c.c.c.c.c.c.c.x.c.x.c.c.c.c.c.c.c.c.v.I.9XwX6X, < < , < < < rXrXrXrXrXrXrXrXrXrXrXrX",
"rXrXrXrXrXrXrXrXrXrX< 8 E } ] ( g.c.c.c.x.c.c.x.c.c.c.c.c.c.c.c.c.c.c.c.c.c.c.c.v.n.8X8X5X< < < < < < < rXrXrXrXrXrXrXrXrXrXrXrX",
"rXrXrXrXrXrXrXrXrXrX< 8 E [ ( ( g.z.z.x.c.c.c.c.c.c.c.x.c.c.v.c.c.c.c.x.x.c.x.z.g.n.9X8X5X, < < < < < < rXrXrXrXrXrXrXrXrXrXrXrX",
"rXrXrXrXrXrXrXrXrXrX< 0 E [ { { ( ( ! g.c.c.c.x.c.c.c.c.c.v.c.c.c.c.c.c.c.c.g.! ! d.wX8X5X2 , < eXwXeXU     rXrXrXrXrXrXrXrXrXrX",
"rXrXrXrXrXrXrXrXrXrX< < E [ { ) { { ( g.c.c.c.c.c.c.c.c.c.c.c.c.c.c.c.c.c.c.g.( ( d.9X8X5X, < < wX8XqXP     rXrXrXrXrXrXrXrXrXrX",
"rXrXrXrXrXrXrXrXrXrX< < E [ { { { { ( x.c.c.c.c.c.c.c.c.c.c.c.c.c.c.c.c.c.c.l.( ( d.9X0X5X, 2 2 wX8XqXP     rXrXrXrXrXrXrXrXrXrX",
"rXrXrXrXrXrXrXrXrXrX< < E } { { ) { ( %.f.f.f.f.f.f.f.f.f.f.f.f.f.f.f.f.f.f.%.( ] d.7X6X1XT Q <.wX8XqXP     rXrXrXrXrXrXrXrXrXrX",
"rXrXrXrXrXrXrXrXrXrX< < W [ { ) { { { ( ) ( ( ( ( ( ( ( ( ( ( ( ( ( ( ( ( ( ( { ] 4.;X:XOX' ' d.9X8XqXP     rXrXrXrXrXrXrXrXrXrX",
"rXrXrXrXrXrXrXrXrXrX2 < E } [ { { { { ) { { { { { { ) { { { ) { ) { { { { { { { ] 4.4XOX.X' ' d.0X8XqXP     rXrXrXrXrXrXrXrXrXrX",
"rXrXrXrXrXrXrXrXrXrX= * w ~ W W ) { { { { { { { { { { ) { { { { { { { { { { { { ( s..X'.u.d.w..X0X8XqXP     rXrXrXrXrXrXrXrXrXrX",
"rXrXrXrXrXrXrXrXrXrX    & 9 8 5 ^ { { { { { ) { { { { { { { { { { { ) { { ) { { ] ] ' ! s.OX>X3X8X8XqXU     rXrXrXrXrXrXrXrXrXrX",
"rXrXrXrXrXrXrXrXrXrX    = 9 0 5 / } [ [ { [ { { { { { { { { ) { { { { ) { { { ] ' ] ! ' s.;X<X,XqXqXeXP     rXrXrXrXrXrXrXrXrXrX",
"rXrXrXrXrXrXrXrXrXrX    * s u u E ~ W ~ W W ) { { ) { { { { { { { { { { { { 2.i.i.i.i.u.'.:X>X<X X|.|.I     rXrXrXrXrXrXrXrXrXrX",
"rXrXrXrXrXrXrXrXrXrX    : &.D D 9 8 8 8 5 5 ^ { { { { { ) { { { ) ( { { { ( 4.4X;X;X;X;X:X>X>XXX        rXrXrXrXrXrXrXrXrXrXrXrX",
"rXrXrXrXrXrXrXrXrXrX    : F D D 9 8 9 9 0 5 _ } } [ [ [ } [ [ { | | [ [ | [ s.3X,X>X>X>X>X>X,XXX        rXrXrXrXrXrXrXrXrXrXrXrX",
"rXrXrXrXrXrXrXrXrXrX    : F h D i d u u 9 u E ~ W ~ ~ ~ ~ W ~ ~ ~ W ~ W W W 1.}.`.}.oXoXXX}.}.`.        rXrXrXrXrXrXrXrXrXrXrXrX",
"rXrXrXrXrXrXrXrXrXrX    * F D V S h D D D D 9 5 8 8 8 8 8 8 8 8 8 8 8 8 8 8 8 2 < 3 c x Z r d r.rXrXrXrXrXrXrXrXrXrXrXrXrXrXrXrX",
"rXrXrXrXrXrXrXrXrXrX    : F a V D D D D D S 9 0 0 0 0 9 0 9 9 0 0 9 9 0 9 0 0 0 8 t (.m Z s a r.rXrXrXrXrXrXrXrXrXrXrXrXrXrXrXrX",
"rXrXrXrXrXrXrXrXrXrX    * =.&.&.D D h p p V 8 3 5 8 8 8 9 < 5 3 3 3 8 q 9 q 9 3 3 6 ^.c z a a r.rXrXrXrXrXrXrXrXrXrXrXrXrXrXrXrX",
"rXrXrXrXrXrXrXrXrXrXrXrXrX% & & i F a 6.q.p.S.A.J.h s p i q.7.8.7.7.k.o % % * k.7.8.y.y.t.a a r.rXrXrXrXrXrXrXrXrXrXrXrXrXrXrXrX",
"rXrXrXrXrXrXrXrXrXrXrXrXrX      y V p A.L.G.#X*X=X<.a D i P.G.G.G.G.$X      & T.L.G.G.K.A.p a r.rXrXrXrXrXrXrXrXrXrXrXrXrXrXrXrX",
"rXrXrXrXrXrXrXrXrXrXrXrXrX      t &.V A.G.D.#X#X*X:.i p t P.G.D.D.F.T.      @ P.F.D.G.L.b.0 9 >.rXrXrXrXrXrXrXrXrXrXrXrXrXrXrXrX",
"rXrXrXrXrXrXrXrXrXrXrXrXrXrXrXrX  & + 0.G.D.#X%X&Xb.0.0.0.G.D.F.@X@X#X* 4 4 h #X@XH.;.,.9.rXrXrXrXrXrXrXrXrXrXrXrXrXrXrXrXrXrXrX",
"rXrXrXrXrXrXrXrXrXrXrXrXrXrXrXrX      9.G.D.#X#X%XH.G.G.K.D.D.F.&X#X*Xi F V <.*X&X+Xt p r.rXrXrXrXrXrXrXrXrXrXrXrXrXrXrXrXrXrXrX",
"rXrXrXrXrXrXrXrXrXrXrXrXrXrXrXrX      0.P.D.#X*X*XH.D.J.J.J.G.F.&X%X=Xt p i >.=X=X+X8 9 >.rXrXrXrXrXrXrXrXrXrXrXrXrXrXrXrXrXrXrX",
"rXrXrXrXrXrXrXrXrXrXrXrX        k g g ;.,.,.6.9.9.A.G.D.G.J.J.F.+XP.+X7.0.8.0.9.6.p.rXrXrXrXrXrXrXrXrXrXrXrXrXrXrXrXrXrXrXrXrXrX",
"rXrXrXrXrXrXrXrXrXrXrXrX        #.V.V.+.a p C a y b.G.G.F.F.J.J.D.D.D.G.G.L.S.y i e.rXrXrXrXrXrXrXrXrXrXrXrXrXrXrXrXrXrXrXrXrXrX",
"rXrXrXrXrXrXrXrXrXrXrXrX        #.M.M.j a C a O.s A.K.K.K.K.Y.Y.G.G.L.L.G.L.A.p a r.rXrXrXrXrXrXrXrXrXrXrXrXrXrXrXrXrXrXrXrXrXrX",
"rXrXrXrXrXrXrXrXrXrX    Y m.m.#.Z.E.E.7.@.$.C Z Z L K K K 7 7 7 6.,.,.,.,.5.;.u 9 >.rXrXrXrXrXrXrXrXrXrXrXrXrXrXrXrXrXrXrXrXrXrX",
"rXrXrXrXrXrXrXrXrXrX    k ~.W.W.R.R.W.V.M.V.J ^.m b c b /.      &.a p C p C p 8 3 :.rXrXrXrXrXrXrXrXrXrXrXrXrXrXrXrXrXrXrXrXrXrX",
"rXrXrXrXrXrXrXrXrXrX    k W.R.R.R.R.R.Z.M.B.J ^.m b m m /.      =.D V V h D a 0 8 :.rXrXrXrXrXrXrXrXrXrXrXrXrXrXrXrXrXrXrXrXrXrX",
"rXrXrXrXrXrXrXrXrXrX    #.!.W.W.W.Q.Q.V.N.B.z N x c b m /.      &.V V S S S h 5 2 :.rXrXrXrXrXrXrXrXrXrXrXrXrXrXrXrXrXrXrXrXrXrX",
"rXrXrXrXrXrXrXrXrXrX    : -.O.F O.F h U.T.%X@X@X%XH b m m l l v | ) ) ) ) ) ^ 5 8 :.rXrXrXrXrXrXrXrXrXrXrXrXrXrXrXrXrXrXrXrXrXrX",
"rXrXrXrXrXrXrXrXrXrX    : D a V a a y +X%X%X%X%X&XH b m m m m ^.X.{ { { ) [ / 0 2 :.rXrXrXrXrXrXrXrXrXrXrXrXrXrXrXrXrXrXrXrXrXrX",
"rXrXrXrXrXrXrXrXrXrX    ; D C C V h i U.&X%X%X%X*XH b m m /./.^.X.) {  . . .{ 9 w >.rXrXrXrXrXrXrXrXrXrXrXrXrXrXrXrXrXrXrXrXrXrX",
"rXrXrXrXrXrXrXrXrXrX    f M.N.N.*.S p S.H.J.H.G.P.G b m /.  . .  .{  .  o o o X X   rXrXrXrXrXrXrXrXrXrXrXrXrXrXrXrXrXrXrXrXrXrX",
"rXrXrXrXrXrXrXrXrXrX    f Z.M.M.h a h b.G.J.D.D.K.G b m ).       .{  .              rXrXrXrXrXrXrXrXrXrXrXrXrXrXrXrXrXrXrXrXrXrX",
"rXrXrXrXrXrXrXrXrXrX    f Z.Z.Z.-.h p A.L.L.P.P.T._.(./.).      j. .j.              rXrXrXrXrXrXrXrXrXrXrXrXrXrXrXrXrXrXrXrXrXrX",
"rXrXrXrXrXrXrXrXrXrXrXrX  X O X y D D &.&.-.* @ & . . .   [.[.{.o o +       # b l B - $   rXrXrXrXrXrXrXrXrXrXrXrXrXrXrXrXrXrXrX",
"rXrXrXrXrXrXrXrXrXrXrXrX        y D h V D &.O   X         -X{.{.            # /.m N       rXrXrXrXrXrXrXrXrXrXrXrXrXrXrXrXrXrXrX",
"rXrXrXrXrXrXrXrXrXrXrXrX        t =.&.&.&.=.+             2X{.2X            # ).).l       rXrXrXrXrXrXrXrXrXrXrXrXrXrXrXrXrXrXrX",
"rXrXrXrXrXrXrXrXrXrXrXrXrXrXrXrX  X O O O O               $ $ $ l z v ` ^ ^ Q . # .       rXrXrXrXrXrXrXrXrXrXrXrXrXrXrXrXrXrXrX",
"rXrXrXrXrXrXrXrXrXrXrXrXrXrXrXrX                                ).m ^.X.] } ~             rXrXrXrXrXrXrXrXrXrXrXrXrXrXrXrXrXrXrX",
"rXrXrXrXrXrXrXrXrXrXrXrXrXrXrXrX                                /.m ^.X.) ( R             rXrXrXrXrXrXrXrXrXrXrXrXrXrXrXrXrXrXrX",
"rXrXrXrXrXrXrXrXrXrXrXrXrXrXrXrX                                )./.(.o. .f.^             rXrXrXrXrXrXrXrXrXrXrXrXrXrXrXrXrXrXrX",
"rXrXrXrXrXrXrXrXrXrXrXrXrXrXrXrXrXrXrXrXrXrXrXrXrXrXrXrXrXrXrXrX                    rXrXrXrXrXrXrXrXrXrXrXrXrXrXrXrXrXrXrXrXrXrX",
"rXrXrXrXrXrXrXrXrXrXrXrXrXrXrXrXrXrXrXrXrXrXrXrXrXrXrXrXrXrXrXrX                    rXrXrXrXrXrXrXrXrXrXrXrXrXrXrXrXrXrXrXrXrXrX",
"rXrXrXrXrXrXrXrXrXrXrXrXrXrXrXrXrXrXrXrXrXrXrXrXrXrXrXrXrXrXrXrX                    rXrXrXrXrXrXrXrXrXrXrXrXrXrXrXrXrXrXrXrXrXrX",
"rXrXrXrXrXrXrXrXrXrXrXrXrXrXrXrXrXrXrXrXrXrXrXrXrXrXrXrXrXrXrXrXrXrXrXrXrXrXrXrXrXrXrXrXrXrXrXrXrXrXrXrXrXrXrXrXrXrXrXrXrXrXrXrX",
"rXrXrXrXrXrXrXrXrXrXrXrXrXrXrXrXrXrXrXrXrXrXrXrXrXrXrXrXrXrXrXrXrXrXrXrXrXrXrXrXrXrXrXrXrXrXrXrXrXrXrXrXrXrXrXrXrXrXrXrXrXrXrXrX",
"rXrXrXrXrXrXrXrXrXrXrXrXrXrXrXrXrXrXrXrXrXrXrXrXrXrXrXrXrXrXrXrXrXrXrXrXrXrXrXrXrXrXrXrXrXrXrXrXrXrXrXrXrXrXrXrXrXrXrXrXrXrXrXrX"
};
