/* XPM */
static char *_42c8911f7fc45dbff3709c78d9fac63TKUsTRDGyduwQ1Re[] = {
/* columns rows colors chars-per-pixel */
"64 64 16 1 ",
"  c None",
". c black",
"X c #5A1819",
"o c #682828",
"O c #383878",
"+ c #784040",
"@ c #C03838",
"# c #F86848",
"$ c #B89838",
"% c #D89070",
"& c #F8D858",
"* c #70A0C0",
"= c #B492AA",
"- c #F8C090",
"; c #B0B0D0",
": c white",
/* pixels */
"                                                                ",
"                                                                ",
"                                                                ",
"                                                                ",
"                XXXXXXXXXXXXXXXXXXXXXXXXXX                      ",
"                XXXXXXXXXXXXXXXXXXXXXXXXXX                      ",
"                XXXXXXXXXXXXXXXXXXXXXXXXXX                      ",
"             XXX@@@####################@@@XXX                   ",
"             XXX@@@####################@@@XXX                   ",
"             XXX@@@####################@@@XXX                   ",
"             XXX##########################@@@XXX                ",
"             XXX##########################@@@XXX                ",
"             XXX##########################@@@XXX                ",
"          XXX@@@##########################:::XXXXXX             ",
"          XXX@@@##########################:::XXXXXX             ",
"          XXX@@@##########################:::XXXXXX             ",
"          XXX@@@@@@####################@@@:::XXX:::...          ",
"          XXX@@@@@@####################@@@:::XXX:::...          ",
"          XXX@@@@@@####################@@@:::XXX:::...          ",
"          XXX@@@@@@####################@@@:::XXX:::...          ",
"          XXX@@@@@@@@@@@@@@@@@@@@@@@@@@@@@;;;@@@:::...          ",
"          XXX@@@@@@@@@@@@@@@@@@@@@@@@@@@@@;==@@@:::...          ",
"          XXX@@@@@@@@@@@@@@@@@@@@@@@@@@@@@;==@@@:::...          ",
"          ...XXX@@@@@@@@@@@@@@@@@@@@@@@@@@@@@==;:::...          ",
"          ...XXX@@@@@@@@@@@@@@@@@@@@@@@@@@@@@;;;:::...          ",
"          ...XXX@@@@@@@@@@@@@@@@@@@@@@@@@@@@@;;;:::...          ",
"          ...+++XXXXXXX@@@@@@@@@@@@@@@@;;;;;;;;;...             ",
"          ...+++XXXXXXX@@@@@@@@@@@@@@@@;;;;;;;;;...             ",
"          ...+++XXXXXXX@@@@@@@@@@@@@@@@;;;;;;;;;...             ",
"          ...++++++++++XXXXXXXXXXXXXXXXXXXOOO+++                ",
"          ...++++++++++XXXXXXXXXXXXXXXXXXXOOO+++                ",
"          ...++++++++++XXXXXXXXXXXXXXXXXXXOOO+++                ",
"             ...+++%%%---++++%%%%%%....%%%%%%+++                ",
"             ...+++%%%---++++%%%%%%....%%%%%%+++                ",
"             ...+++%%%---++++%%%%%%....%%%%%%+++                ",
"                ...%%%---%%%%%%%---++++---+++                   ",
"                ...%%%---%%%%%%%---++++---+++                   ",
"                ...%%%---%%%%%%%---++++---+++                   ",
"            ....&&&++++++%%%%%%%%%%%%%%+++                      ",
"            ....&&&++++++%%%%%%%%%%%%%%+++                      ",
"            ....&&&++++++%%%%%%%%%%%%%%+++                      ",
"         ...&&&&&&&$$$OOOOOOO...oooooooooo                      ",
"         ...&&&&&&&$$$OOOOOOO...oooooooooo                      ",
"         ...&&&&&&&$$$OOOOOOO...oooooooooo                      ",
"         ...&&&&&&&$$$OOOOOOO...oooooooooo                      ",
"         ...+++++++$$$$$$OOOOOOO@@@@@@@ooo                      ",
"         ...+++++++$$$$$$OOOOOOO@@@@@@@ooo                      ",
"         ...+++++++$$$$$$OOOOOOO@@@@@@@ooo                      ",
"         ...$$$$+++ooooooOOOO...@@@.......                      ",
"         ...$$$$+++ooooooOOOO...@@@.......                      ",
"         ...$$$$+++ooooooOOOO...@@@.......                      ",
"            ....++++++.......***.......OOO...                   ",
"            ....++++++.......***.......OOO...                   ",
"            ....++++++.......***.......OOO...                   ",
"                ................OOO@@@@......                   ",
"                ................OOO@@@@......                   ",
"                ................OOO@@@@......                   ",
"                ................OOO@@@@......                   ",
"                                ..........                      ",
"                                ..........                      ",
"                                ..........                      ",
"                                                                ",
"                                                                ",
"                                                                "
};
