/* XPM */
static char *result[] = {
/* columns rows colors chars-per-pixel */
"64 64 9 1 ",
"  c black",
". c #485020",
"X c #708038",
"o c #A8A050",
"O c #A0B070",
"+ c #C0B878",
"@ c #D0C8A8",
"# c #E8E8F8",
"$ c None",
/* pixels */
"$$$$$$$$$$$$$$$$$$$$$$$$$$$$$$$$$$$$$$$$$$$$$$$$$$$$$$$$$$$$$$$$",
"$$$$$$$$$$$$$$$$$$$$$$$$$$$$$$$$$$$$$$$$$$$$$$$$$$$$$$$$$$$$$$$$",
"$$$$$$$$$$$$$$$$$$$$$$$$$$$$$$$$$$$$$$$$$$$$$$$$$$$$$$$$$$$$$$$$",
"$$$$$$$$$$$$$$$$$$$$$$$$$$$$$$$$$$$$$$$$$$$$$$$$$$$$$$$$$$$$$$$$",
"$$$$$$$$$$$$$$$$$$$$$$$$$$$$$$$$$$$$$$$$$$$$$$$$$$$$$$$$$$$$$$$$",
"$$$$$$$$$$$$$$$$$$$$$$$$$$$$$$$$$$$$$$$$$$$$$$$$$$$$$$$$$$$$$$$$",
"$$$$$$$$$$$$$$$$$$$$$$$$$$$$$$$$$$$$$$$$$$$$$$$$$$$$$$$$$$$$$$$$",
"$$$$$$$$$$$$$$$$$$$$$$$$$$$$$$$$$$$$$$$$$$$$$$$$$$$$$$$$$$$$$$$$",
"$$$$$$$$$$$$$$$$$$$$$$$$$$$$$$$$$$$$$$$$$$$$$$$$$$$$$$$$$$$$$$$$",
"$$$$$$$$$$$$$$$$$$$$$$$$$$$$$$$$$$$$$$$$$$$$$$$$$$$$$$$$$$$$$$$$",
"$$$$$$$$$$$$$$$$$$$$$$$$$$$$$$$$$$$$$$$$$$$$$        $$$$$$$$$$$",
"$$$$$$$$$$$$$$$$$$$$$$$$$$$$$$$$$$$$$$$$$$$$$        $$$$$$$$$$$",
"$$$$$$$$$$$$$$$$$$$$$$$$$$$$$$$$$$$$$$$$$    OOOOOOOO  $$$$$$$$$",
"$$$$$$$$$$$$$$$$$$$$$$$$$$$$$$$$$$$$$$$$$    OOOOOOOO  $$$$$$$$$",
"$$$$$$$$$$$$$$$$$$$$$$$$$$$$$$$$$$$$$$$  OOOOOOOOOOOOOO  $$$$$$$",
"$$$$$$$$$$$$$$$$$$$$$$$$$$$$$$$$$$$$$$$  OOOOOOOOOOOOOO  $$$$$$$",
"$$$$$$$$$$$$$$$$$$$$$$$$$$$$$$$$$$$$$$$        OOOOOOOOXX  $$$$$",
"$$$$$$$$$$$$$$$$$$$$$$$$$$$$$$$$$$$$$$$        OOOOOOOOXX  $$$$$",
"$$$$$$$$$$$$$$$$$$$$$$$$$$$$$$$$$$$$$$$$$        OOOOOOOO  $$$$$",
"$$$$$$$$$$$$$$$$$$$$$$$$$$$$$$$$$$$$$$$$$        OOOOOOOO  $$$$$",
"$$$$$$$$$$$$$$$$$$$$$$$$$..  $$$$  ..$$$$$$$$    ..OOOOOOXX  $$$",
"$$$$$$$$$$$$$$$$$$$$$$$$$..  $$$$  ..$$$$$$$$    ..OOOOOOXX  $$$",
"$$$$$$$$$$$$$$$$$$$$$$$$$  OO  ..OO  $$$$$$$$$$    OOOOOOXX  $$$",
"$$$$$$$$$$$$$$$$$$$$$$$$$  OO  ..OO  $$$$$$$$$$    OOOOOOXX  $$$",
"$$$$$$$$$        $$....$$  OO  ..OO  $$..          ..OOXXXX  $$$",
"$$$$$$$$$        $$....$$  OO  ..OO  $$..          ..OOXXXX  $$$",
"$$$$$$$  OOOOXX  $$..OO..  XX    XX  ..OO  OO        XXXXXX  $$$",
"$$$$$$$  OOOOXX  $$..OO..  XX    XX  ..OO  OO        XXXXXX  $$$",
"$$$$$  OOOOOO  $$$$..OO..  XX....XX  ..OO  OOXX      XXXXXX  $$$",
"$$$$$  OOOOOO  $$$$..OO..  XX....XX  ..OO  OOXX      XXXXXX  $$$",
"$$$$$  OOOO..  $$$$..XX..XXXXXXXXXXXX..XX..XXXXXXXX..XXXX  $$$$$",
"$$$$$  OOOO..  $$$$..XX..XXXXXXXXXXXX..XX..XXXXXXXX..XXXX  $$$$$",
"$$$  OOOOOO..  $$$$..XXXXXXXX    XXXXXXXXXX  XXXXXX..XX....$$$$$",
"$$$  OOOOOO..  $$$$..XXXXXXXX    XXXXXXXXXX  XXXXXX..XX....$$$$$",
"$$$  OOOO..XX  $$..XXXXXXXX  OOOO  XXXXXXXX..      XX++++..$$$$$",
"$$$  OOOO..XX  $$..XXXXXXXX  OOOO  XXXXXXXX..      XX++++..$$$$$",
"$$$  OOXXXX      ..XXXX..  XXOOOOXX  ..XXXXXX....    ++++  $$$$$",
"$$$  OOXXXX      ..XXXX..  XXOOOOXX  ..XXXXXX....    ++++  $$$$$",
"$$$  XXXX..  oo..XX....XXXXOOOOOOOOXXXX....XX..oooooo    $$$$$$$",
"$$$  XXXX..  oo..XX....XXXXOOOOOOOOXXXX....XX..oooooo    $$$$$$$",
"$$$$$..++..oo  XX..XX####XXOOOOOOOOXX####XX..XX      $$$$$$$$$$$",
"$$$$$..++..oo  XX..XX####XXOOOOOOOOXX####XX..XX      $$$$$$$$$$$",
"$$$$$..oo      ..++..##  ##XXOOOOXX##  ##..++..  ++  $$$$$$$$$$$",
"$$$$$..oo      ..++..##  ##XXOOOOXX##  ##..++..  ++  $$$$$$$$$$$",
"$$$$$$$  @@..oo..++@@..####XXOOOOXX####..@@++..oo..@@  $$$$$$$$$",
"$$$$$$$  @@..oo..++@@..####XXOOOOXX####..@@++..oo..@@  $$$$$$$$$",
"$$$$$$$..++  ..oo..@@++@@OOOOOOOOOOOO@@++@@..oo    ++  $$$$$$$$$",
"$$$$$$$..++  ..oo..@@++@@OOOOOOOOOOOO@@++@@..oo    ++  $$$$$$$$$",
"$$$$$..oo  ++  ..  ++++++@@@@++++@@@@++++++    oo  ++....$$$$$$$",
"$$$$$..oo  ++  ..  ++++++@@@@++++@@@@++++++    oo  ++....$$$$$$$",
"$$$$$..  ++++  $$$$  ++++++        ++++++  $$$$....  ++++..$$$$$",
"$$$$$..  ++++  $$$$  ++++++        ++++++  $$$$....  ++++..$$$$$",
"$$$$$$$      $$$$$$$$      $$$$$$$$      $$$$$$$$$$$$      $$$$$",
"$$$$$$$      $$$$$$$$      $$$$$$$$      $$$$$$$$$$$$      $$$$$",
"$$$$$$$$$$$$$$$$$$$$$$$$$$$$$$$$$$$$$$$$$$$$$$$$$$$$$$$$$$$$$$$$",
"$$$$$$$$$$$$$$$$$$$$$$$$$$$$$$$$$$$$$$$$$$$$$$$$$$$$$$$$$$$$$$$$",
"$$$$$$$$$$$$$$$$$$$$$$$$$$$$$$$$$$$$$$$$$$$$$$$$$$$$$$$$$$$$$$$$",
"$$$$$$$$$$$$$$$$$$$$$$$$$$$$$$$$$$$$$$$$$$$$$$$$$$$$$$$$$$$$$$$$",
"$$$$$$$$$$$$$$$$$$$$$$$$$$$$$$$$$$$$$$$$$$$$$$$$$$$$$$$$$$$$$$$$",
"$$$$$$$$$$$$$$$$$$$$$$$$$$$$$$$$$$$$$$$$$$$$$$$$$$$$$$$$$$$$$$$$",
"$$$$$$$$$$$$$$$$$$$$$$$$$$$$$$$$$$$$$$$$$$$$$$$$$$$$$$$$$$$$$$$$",
"$$$$$$$$$$$$$$$$$$$$$$$$$$$$$$$$$$$$$$$$$$$$$$$$$$$$$$$$$$$$$$$$",
"$$$$$$$$$$$$$$$$$$$$$$$$$$$$$$$$$$$$$$$$$$$$$$$$$$$$$$$$$$$$$$$$",
"$$$$$$$$$$$$$$$$$$$$$$$$$$$$$$$$$$$$$$$$$$$$$$$$$$$$$$$$$$$$$$$$"
};
