/* XPM */
static char *ZW5fZl9hbmltXzI_[] = {
/* columns rows colors chars-per-pixel */
"64 64 230 2 ",
"   c #000000",
".  c #0B0C05",
"X  c #070805",
"o  c #0E1007",
"O  c #0F100A",
"+  c #111406",
"@  c #12140A",
"#  c #16190A",
"$  c #1A1D0C",
"%  c #111D00",
"&  c #1A1B12",
"*  c #1E220E",
"=  c #1A2700",
"-  c #1D2011",
";  c #21250F",
":  c #232F00",
">  c #283407",
",  c #313A05",
"<  c #232512",
"1  c #252A12",
"2  c #292D14",
"3  c #26291A",
"4  c #2C2B1C",
"5  c #272619",
"6  c #312E1B",
"7  c #2E3415",
"8  c #2E341C",
"9  c #333B13",
"0  c #33331A",
"q  c #353B18",
"w  c #3B3C1B",
"e  c #313617",
"r  c #343422",
"t  c #3A3C27",
"y  c #373B26",
"u  c #363635",
"i  c #272924",
"p  c #201F14",
"a  c #423F29",
"s  c #3B4415",
"d  c #3D441A",
"f  c #3F491B",
"g  c #374215",
"h  c #3E490D",
"j  c #3C422A",
"k  c #3D4421",
"l  c #444C1D",
"z  c #434A1A",
"x  c #49521F",
"c  c #4B581A",
"v  c #50581F",
"b  c #556910",
"n  c #454D22",
"m  c #44422B",
"M  c #48482A",
"N  c #524E28",
"B  c #4A5221",
"V  c #4F5925",
"C  c #475124",
"Z  c #525C25",
"A  c #555D2A",
"S  c #58572A",
"D  c #484736",
"F  c #4D5535",
"G  c #545D3B",
"H  c #595737",
"J  c #504E33",
"K  c #625E3C",
"L  c #566129",
"P  c #5A642B",
"I  c #5D692D",
"U  c #566127",
"Y  c #5C6432",
"T  c #5D6738",
"R  c #616D2E",
"E  c #62652D",
"W  c #64742B",
"Q  c #697A2C",
"!  c #657725",
"~  c #6A6532",
"^  c #616D32",
"/  c #6B6B33",
"(  c #656A3C",
")  c #647232",
"_  c #697634",
"`  c #6C7B35",
"'  c #6E7E39",
"]  c #69743C",
"[  c #7B7B3C",
"{  c #737838",
"}  c #676944",
"|  c #726D47",
" . c #6C7446",
".. c #79744C",
"X. c #787B48",
"o. c #777A54",
"O. c #6E6B57",
"+. c #6F7070",
"@. c #5D6741",
"#. c #817D3D",
"$. c #827D6B",
"%. c #6E8134",
"&. c #728335",
"*. c #718239",
"=. c #77883C",
"-. c #7A8C3D",
";. c #768837",
":. c #7F913F",
">. c #6D802D",
",. c #7B8B43",
"<. c #7E8E4A",
"1. c #768446",
"2. c #7F9141",
"3. c #7D8A58",
"4. c #7A8355",
"5. c #7A8063",
"6. c #84833D",
"7. c #82953E",
"8. c #85844D",
"9. c #868943",
"0. c #819442",
"q. c #82934C",
"w. c #889B46",
"e. c #9B954A",
"r. c #979346",
"t. c #8B8A52",
"y. c #848858",
"u. c #928D58",
"i. c #8B995C",
"p. c #889758",
"a. c #999759",
"s. c #918B45",
"d. c #A69D4F",
"f. c #92A45C",
"g. c #8FA355",
"h. c #ADA453",
"j. c #B3AA56",
"k. c #BBB159",
"l. c #878A6B",
"z. c #8E9C63",
"x. c #889564",
"c. c #979A64",
"v. c #868B75",
"b. c #979973",
"n. c #8B9175",
"m. c #A29D6F",
"M. c #94A365",
"N. c #96A569",
"B. c #9DAD6D",
"V. c #98A965",
"C. c #9CA973",
"Z. c #ABA46A",
"A. c #AAA468",
"S. c #B2AC6E",
"D. c #A9A679",
"F. c #B2AC7B",
"G. c #A1B171",
"H. c #A9BA76",
"J. c #ABBB7A",
"K. c #A7B876",
"L. c #BCB575",
"P. c #BCB575",
"I. c #BBB367",
"U. c #C0B75C",
"Y. c #C5BB5E",
"T. c #C1B877",
"R. c #C2BA7A",
"E. c #C9BF7B",
"W. c #C7BB60",
"Q. c #AFC17C",
"!. c #B2C37C",
"~. c #B7C97F",
"^. c #CEC362",
"/. c #D4C865",
"(. c #CBC27D",
"). c #D2CA7F",
"_. c #7E7F82",
"`. c #8D8C98",
"'. c #818383",
"]. c #9FA882",
"[. c #A6AA85",
"{. c #B8B78A",
"}. c #B3BB96",
"|. c #ABB68E",
" X c #A4A3AE",
".X c #9B9BA6",
"XX c #C3BB83",
"oX c #C6BE8B",
"OX c #C1BA92",
"+X c #B9CB82",
"@X c #B6C883",
"#X c #BDD087",
"$X c #CDC481",
"%X c #CBC28B",
"&X c #D4CB84",
"*X c #D5CA87",
"=X c #DCD38A",
"-X c #D9D087",
";X c #C9C49D",
":X c #C8C296",
">X c #D3CA98",
",X c #CFD391",
"<X c #E2D88D",
"1X c #E6DA92",
"2X c #EBE193",
"3X c #F4E999",
"4X c #CBC5A3",
"5X c #D3CAAC",
"6X c #D3C9A8",
"7X c #D4CCB4",
"8X c #DCD3B4",
"9X c #DCD4BA",
"0X c #D3CFB1",
"qX c #E1D7BF",
"wX c #D1E593",
"eX c #BDBCC9",
"rX c #D5D7DB",
"tX c #D4D1CB",
"yX c #EEE3C8",
"uX c #F1EDD7",
"iX c #DCDEE4",
"pX c #DFE0E4",
"aX c #EAEAFB",
"sX c #F3F2FF",
"dX c #FEFEFF",
"fX c #F9F7FF",
"gX c #E8E8F3",
"hX c #DEE2D1",
"jX c None",
"kX c black",
/* pixels */
"jXjXjXjXjXjXjXjXjXjXjXjXjXjXjXjXjXjXjXjXjXjXjXjXjXjXjXjXjXjXjXjXjXjXjXjXjXjXjXjXjXjXjXjXjXjX                  jXjXjXjXjXjXjXjXjX",
"jXjXjXjXjXjXjXjXjXjXjXjXjXjXjXjXjXjXjXjXjXjXjXjXjXjXjXjXjXjXjXjXjXjXjXjXjXjXjXjXjXjXjXjXjXjX                  jXjXjXjXjXjXjXjXjX",
"jXjXjXjXjXjXjXjXjXjXjXjXjXjXjXjXjXjXjXjXjXjXjXjXjXjXjXjXjXjXjXjXjXjXjXjXjXjXjXjXjXjXjXjXjXjX# 4 3 5 3 3 3 3 & jXjXjXjXjXjXjXjXjX",
"jXjXjXjXjXjXjXjXjXjXjXjXjXjXjXjXjXjXjXjXjXjXjXjXjXjXjXjXjXjXjXjXjXjXjXjXjXjXjXjXjXjX        G J.B.B.B.B.B.K.o.      jXjXjXjXjXjX",
"jXjXjXjXjXjXjXjXjXjXjXjXjXjXjXjXjXjXjXjXjXjXjXjXjXjXjXjXjXjXjXjXjXjXjXjXjXjXjXjXjXjX        @.+XK.K.K.H.H.!.4.      jXjXjXjXjXjX",
"jXjXjXjXjXjXjXjXjXjXjXjXjXjXjXjXjXjXjXjXjXjXjXjXjXjXjXjXjXjXjXjXjXjXjXjXjXjXjXjXjXjX3 j y 8 o.J.B.G.G.G.G.G.p.8 j 8 jXjXjXjXjXjX",
"jXjXjXjXjXjXjXjXjXjXjXjXjXjXjXjXjXjXjXjXjXjXjXjXjXjXjXjXjXjXjXjXjXjXjXjXjXjXjX      4.!.H.H.G.G.G.G.G.B.G.G.G.H.J.x.    jXjXjXjX",
"jXjXjXjXjXjXjXjXjXjXjXjXjXjXjXjXjXjXjXjXjXjXjXjXjXjXjXjXjXjXjXjXjXjXjXjXjXjXjX      3.#X~.~.!.!.K.B.G.G.G.G.G.G.H.p.    jXjXjXjX",
"jXjXjXjXjXjXjXjXjXjXjXjXjXjXjXjXjXjXjXjXjXjXjXjXjXjXjXjXjXjXjXjXjXjXjXjXjXjXjX      j T G G G F 4.H.G.G.G.G.G.G.G.z.7 7 jXjXjXjX",
"jXjXjXjXjXjXjXjXjXjXjXjXjXjXjXjXjXjXjXjXjXjXjXjXjXjXjXjXjXjXjXjXjXjXjXjXjXjXjX                  F Q.B.G.G.B.G.B.G.B.=.`     jXjX",
"jXjXjXjXjXjXjXjXjXjXjXjXjXjXjXjXjXjXjXjXjXjXjXjXjXjXjXjXjXjXjXjXjXjXjXjXjXjXjX                  F Q.G.G.B.G.G.G.G.V.' )     jXjX",
"jXjXjXjXjXjXjXjXjXjXjXjXjXjXjXjXjXjXjXjXjXjXjXjXjXjXjXjXjXjXjXjXjXjXjXjXjXjXjX                  G ,XH.B.B.G.G.B.G.V.Q I     jXjX",
"jXjXjXjXjXjXjXjXjXjXjXjXjXjXjXjXjXjXjXjXjXjXjXjXjXjXjXjXjXjXjXjXjXjXjXjXjXjXjX                  k 3.p.G.G.G.B.G.G.B.2. .    jXjX",
"jXjXjXjXjXjXjXjXjXjXjXjXjXjXjXjXjXjXjXjXjXjXjXjXjXB d     jXjXjXjX    l B jXjXjXjXjX                M @XG.G.G.G.G.G.G.z.    jXjX",
"jXjXjXjXjXjXjXjXjXjXjXjXjXjXjXjXjXjXjXjXjXjXjXjXjXV n     jXjXjXjXX   B Z jXjXjXjXjX                D #XK.B.B.G.G.G.G.z.    jXjX",
"jXjXjXjXjXjXjXjXjXjXjXjXjXjXjXjXjXjXjXjXjXjXjXjXjX7 e m y jXjXjXjXj j 7 2 jXjXjXjXjXjX              y p.i.G.G.G.G.B.G.M.1 7 jXjX",
"jXjXjXjXjXjX                  jXjXjXjXjXjXjXjXjXjX  & +XB.    B l G.@XO   jXjXjXjXjXjXjXjXjX        * z ^ J.G.G.G.B.G.B.;.%.    ",
"jXjXjXjXjXjX                  jXjXjXjXjXjXjXjXjXjX  & !.N.  X l B G.J.O   jXjXjXjXjXjXjXjXjX        * v ] H.G.G.G.G.G.V.%.`     ",
"jXjXjXjXjXjXM G F G G n d $   jXjXjXB C B jXjXjXjX  & J.z.    x l G.K.O   jXjXjXB l V V jXjXjXjX    o * F Q.G.G.G.G.G.B.' _     ",
"jXjXjXjX    z.@X!.Q.@Xg.w.q   jXjXjXl B l l jXjXjX  & Q.N.  X B l G.H.@   jXjXl C l B B jXjXjXjXjX      t !.G.G.B.G.G.N.' `     ",
"jXjXjXjX    p.K.G.G.K.q.7.e   jXjXjXB l l l jXjXjX  & !.M.    V B G.H.O   jXjXl z z x U jXjXjXjXjX      t @XG.G.G.G.G.B.` _     ",
"jXjX    @.} N.C.G.G.J.G 1 @ jXjXjXjXl I i. .z V d   @ g.1.    * $ q.p..   l l 1.y.i.k # .               1 X.1.K.G.B.q.q.%._     ",
"jXjX    B.@XG.G.B.G.+Xt   jXjXjXjXjXz  .+Xi.s B q   @ *.W         _ &..   d f V.J.#Xy                   # z I Q.G.V.W ` *._     ",
"jXjX    z.G.G.G.G.G.Q.y   jXjXjXjXjXz  .J.p.z B d   O -._         ` ;..   d z z.G.!.r     X             # x T H.G.V.` %.*.`     ",
"jXjX    z.G.G.G.K. ._ <   jXjXjXjXjXz ] |.p.s x d   + -.` e q q q ' =..   d z z.G.!.y   F z.y           X O e w.,.,.' %.*.`     ",
"jXjX    z.K.B.G.H.Y f #   jXjXjXjXjXz  .@Xp.s x w   @ -.` B V x x ' ;..   d z z.K.~.r    .wXG               - =._ ` *.' *._     ",
"kXkX@ X z.G.G.G.H.^ x #   jXjXjXjXjXz ] H.q.d B d X $ -.' B B B V ' *.# X z z p.G.H.r    .+XF   X           * 2.*.*.*.*.*._     ",
"    y.x.B.B.G.G.J.^ x $   jXjXjXjXjXl L <._ z n B ^ ) ' ' ` ` ` ` ' &.) ^ B l ` -.q.1   } @X<.) e           * -.%.*.' %.%.`     ",
"    G.!.G.G.K.H.@XT l #   kXjXjXjXjXn U &.R z z V :.=.' *.7.2.:.:.*.*.=.,.V z ^ ' ;.;    .+Xg.7.k           * -.*.' ' %.,.*.    ",
"    N.G.G.G.z.i.M.^ U $   kXjXjXjXjXn U =._ V Z U *.' *.' U P L P ' *.` &.U V _ *.:.1   @.G.q.*.C @ $ $ # . 7 -.' *.*.' P A     ",
"    N.G.G.K.Y x n ) -.2   jXjXjXjXjXl P *.*.' %.' *.' *._   X X X _ *.*.*.' ' ' %.-.1   C ,.*.' ' ` ` ' I f Z *.*.%.*.)   X jXjX",
"    N.G.G.K.A f z ^ 0.2   jXjXjXjXjXl U *.*.*.*.*.*.*.*._         ` *.' %.*.*.*.*.-.<   C *.%.' *.=.=.-._ l P *.*.' *.)     jXjX",
"    N.G.G.J.L z d _ w.7   jXjXjXjXjXl A *.*.%.*.' *.*.-.'         *.=.*.' *.%.' *.-.1   V 2.*.*.*.*.` *.^ l Z *.*.*.;.)     jXjX",
"    N.G.G.G.Y C n W =.1   jXjXjXjXjXl L *.*.' ' *.' *.` )   X X X _ ` %.*.' ' *.*.-.1   n *.` *.%.*.*.*.^ l A *.%.*.%.^     jXjX",
"    N.G.<.,.` _ *.7 # jXjXjXjXjXl U ` ` *.*.*.*.*.*.) O * p.3.3.3.* # _ *.*.*.*.*.*.^ I e o C =.*.*.*.*.W d L *.*.` V V q g jXjX",
"    C.J.*._ -.2.w.1   jXjXjXjX1 B I -.*.*.*.*.*.*.-._   O @XQ.Q.!.X   ' -.*.*.*.*.*.;.w.7   n w.=.=.-.2._ d V %.` R 9 d Z Z jXjX",
"    z.B.*.*.) I ` 1   jXjXjXjX1 V I *.*.%.' ` ` _ I L X - K.G.G.G.# . P R _ ` ' *.*.` ,.e   d _ ^ ^ ^ ^ I x P <.9.=.A A n x jXjX",
"    *.=.*.=.* . X e l l V *   1 B U =.' *.) n V f X & ` ` G.G.B.G._ _ # X l B _ *.*.*.*.A z 1 X . o . X 7 &.9.L.S.S.S.A.l n jXjX",
"    %.-.` &.#     7 B f l *   ; l P -.*.=.) d z e   O :.=.G.G.G.G.;.=..   q d ` ;.;.*.-.P x ;           7 w.a.$XE.XX(.L.x Z jXjX",
"    V A <.r.1 o . B E I / 7 X e L P _ _ _ I V U C # 7 q.<.G.G.B.G.<.q.1 # B Z R _ ) _ _ P P 7 . * 2 2 < w A ' (.T.T.R.Z.7 q jXjX",
"jXjX    Z.$XP l s s.d.d.j._ d I =.I l x l U &.*.*.` 1.G.G.G.G.G.G.G.G.*.' ' *.v x z x z R -.U d { h.d.j.~   r >XT.T.R.Z.    jXjX",
"jXjX    Z.*XA d 9 d.Y.U.^.[ s I 0.R g g , z ! ! ! =.2.K.G.B.B.G.B.G.G.,.=.W ! z , h s d R 0.I q #./.Y./.#.  t 2X*X*X-XL.    jXjX",
"jXjX$ + Z.(.X./ / / ~ ~ ~ E A I ) I Z  .v.n.D.].z.` ,.G.G.G.G.G.G.G.G.1.` N.[.v.v.v.( U I ) I L E ~ ~ ~ S 0 N #.......}     jXjX",
"jXjXV z S.E.j.h.U.6       l 7.P d P >.[.dXsXsXsXrX! 1.K.G.G.B.G.G.G.G.*.! iXsXsXaXdXC.>.U d I 0.d       w /.#.          jXjXjXjX",
"jXjXB z L.*XU.k.^.6       n 0.P 9 U &.[.fXaXdXdXhXb ` J.K.G.G.G.G.G.J.Q b pXfXaXaXfXC.;.Z 9 I 0.k       t /.#.          jXjXjXjX",
"jXjXjXjX1.t.H N N K } p   q W { t.' c n.dXtX+.+._.}.[.q.i.G.B.G.G.p.q.|.}.'.+.rXaXfXl.V  .t.] W 7   + < z 6.S kX      jXjXjXjXjX",
"jXjXjXjXz l .     c.3XM   2 s t.1Xt.: v.dX X    u dXiX! ' G.G.B.G.%.W gXdXi   eXfXdXo.> a.1X1.s ;   ; Z x l 7 jXjXjXjXjXjXjXjXjX",
"jXjXjXjXx Z o     u.2Xm   2 l 8.-X8.: v.dX X    u dXrXW =.G.G.B.G.*.Q pXdXi   eXfXdXo.> t.-X8.l 1   $ x z B B jXjXjXjXjXjXjXjXjX",
"jXjXjXjX* + O.$.$...X.~ ~ S g 8.).S.b.n.v.'.`.`. XfXrX! *.G.G.G.G.*.` pXsX.X`.v.v.$.b.b.S.).8.s Y ..y.D.#.n n jXjXjXjXjXjXjXjXjX",
"jXjXjXjX    OXyXuX .> r./.{ 9 8.(.>XyXm.% o.dXdXdXaXiX! =.G.G.G.G.*.Q pXaXdXdX( > : [.yX>X).X.> t.1X6XyX[.z B jXjXjXjXjXjXjXjXjX",
"jXjXjXjX    [.8X8X| g 6.k._ 9 8.E.oX9Xb., o.dXgXaXaXrX! *.G.G.B.G.*.Q iXaXgXfX .z 9 [.7XoXE.X.9 8.(.oX8XD.9 x kXjXjXjXjXjXjXjXjX",
"jXjXjXjX    m.oX<Xm   C E [ r.[ K c.9XOXa.F.tXtX0X|.|.f.M.G.G.G.B.M.M.|.}.7XtXD.a.d.OXqXu.A [ r.[ H u.<Xy.  ; V B C jXjXjXjXjXjX",
"jXjXjXjX.   c.T.&X0   7 g 6.Y.[ > y.qX>X(.oX4X6X:Xg.V.G.G.G.G.G.G.G.G.V.f.:X6X%X$XE.6XqXo.> 6./.[ = { 1X#.X @ l l l jXjXjXjXjXjX",
"jXjXjXjX+   c.E.*Xr   7 z #.k.{ 7 y.8XOXT.XX6X6X:XG.G.K.G.G.G.G.G.G.G.K.G.;X6XXXT.T.:X8X..9 { d.{ l X.T...  ; A V V jXjXjXjXjXjX",
"jXjXB V d 9 A.E.&Xr   7 z #.U.N   H *XR.T.R.R.R.{.4X;X4X;XL.L.L.P.;X4X4XOXoXXXT.T.T.R.*XJ   @ . K E.| X a r.s.e.e.9.l n jXjXjXjX",
"jXjXC l V l A.R.*X0   9 l #.U.N   J &XT.T.T.T.L.XX0X5X5X5XT.T.R.T.5X5X5X7XT.T.T.T.T.T.&XM       K 3X..  a ^.j.j.j.d.z B jXjXjXjX",
"jXjXl n l g Z.E.=Xr   7 l 6.Y.N   H =XR.T.T.T.T.XX5X5X7X5XT.R.E.E.5X5X5X5XR.T.T.T.T.R.-XD       H 1X|   w U.h.h.h.r.f C jXjXjXjX",
"jXjXl z l g S.&X<Xr   7 l 6.W.N   H <XR.T.T.T.T.XX5X5X9X0XE.$XE.(.0X7X5X5XXXT.T.T.T.E.<XJ       H <X|   w Y.h.h.h.e.f x jXjXjXjX",
"B n u.a.a.a.J a M @ kX7 V A [ 7 jX& a ..$XR.T.R.R.oXF.a D m m m m D a {.oXT.T.R.R.$X} m # jX    K -XA...K 6 n / / E l n jXjXjXjX",
"V l $X=X=X2X5     kXkXe V l l jXjXjX  D <XXX(.(.E.).A.                P.(.(.$XXXE.<Xa   jXjX    K <X&X3Xu.  + l d z B B jXjXjXjX",
"l l S.L.L.(.p     kXkXV l B l kXjXjX  m $XL.L.L.L.T.c.                Z.L.L.L.L.L.$Xr   jXjX    H $XL.XX..  # Z B B l B jXjXjXjX",
"@ + 5 4 4 6 jXjXjXkXkXkXkXkXkXkXjXjXjX@ 6 4 4 4 4 4 5 kXjXjXjXjXjXjXjX5 6 4 4 5 4 r kXkXjXjXjXjX@ 6 4 6 &   # jXjXjXjXjXjXjXjXjX",
"            jXjXjXjXkXkXkXkXkXkXjXjXjXjX              kXjXjXjXjXjXjXjX              jXjXjXjXjXjXjX          # jXjXjXjXjXjXjXjXjX",
"            jXjXjXjXkXkXkXkXkXkXjXjXjXjX              kXjXjXjXjXjXjXjX              jXjXjXjXjXjXjX            jXjXjXjXjXjXjXjXjX"
};
