/* XPM */
static char *ZW5fZl9hbmltXzE_[] = {
/* columns rows colors chars-per-pixel */
"64 64 225 2 ",
"   c #000000",
".  c #0A0C05",
"X  c #080A05",
"o  c #0F100A",
"O  c #0E1007",
"+  c #111405",
"@  c #12140A",
"#  c #16190A",
"$  c #1A1D0B",
"%  c #111D00",
"&  c #1A1B12",
"*  c #1E220E",
"=  c #1E2900",
"-  c #1D2011",
";  c #22280B",
":  c #263206",
">  c #323B07",
",  c #222612",
"<  c #242912",
"1  c #2A2D13",
"2  c #26291A",
"3  c #2C2B1C",
"4  c #272619",
"5  c #312E1B",
"6  c #2E3415",
"7  c #2E331D",
"8  c #333B13",
"9  c #33331A",
"0  c #353B18",
"q  c #3A3D1B",
"w  c #333816",
"e  c #343422",
"r  c #3A3C27",
"t  c #373B26",
"y  c #363635",
"u  c #272924",
"i  c #201F14",
"p  c #413E1F",
"a  c #423F29",
"s  c #3B4415",
"d  c #3D441B",
"f  c #3F491B",
"g  c #374215",
"h  c #3E490D",
"j  c #3D4327",
"k  c #434C1D",
"l  c #444C1A",
"z  c #4A521E",
"x  c #4A571B",
"c  c #50581F",
"v  c #556910",
"b  c #454D21",
"n  c #44422B",
"m  c #49492B",
"M  c #534F28",
"N  c #4A5221",
"B  c #4F5924",
"V  c #475122",
"C  c #525C25",
"Z  c #56592A",
"A  c #484736",
"S  c #4E5534",
"D  c #545D3B",
"F  c #595637",
"G  c #625E38",
"H  c #566128",
"J  c #5A642C",
"K  c #5D692D",
"L  c #566227",
"P  c #5D6634",
"I  c #616D2E",
"U  c #62642D",
"Y  c #64742C",
"T  c #6A7B2C",
"R  c #657725",
"E  c #6A6532",
"W  c #606D32",
"Q  c #6B6B33",
"!  c #65683C",
"~  c #647332",
"^  c #697634",
"/  c #6B7B35",
"(  c #6E7E39",
")  c #69733C",
"_  c #7C7B3B",
"`  c #737738",
"'  c #5D6742",
"]  c #646E46",
"[  c #6B6744",
"{  c #6C7546",
"}  c #79744C",
"|  c #7D7C4B",
" . c #757B47",
".. c #777C54",
"X. c #716C4C",
"o. c #6F7070",
"O. c #817D3D",
"+. c #827D6B",
"@. c #6E8134",
"#. c #718335",
"$. c #728239",
"%. c #77883B",
"&. c #7A8C3D",
"*. c #768837",
"=. c #798B39",
"-. c #7B8B43",
";. c #7A8948",
":. c #7F9142",
">. c #7D8757",
",. c #7A8063",
"<. c #84833D",
"1. c #82953E",
"2. c #85844D",
"3. c #858942",
"4. c #82934C",
"5. c #869945",
"6. c #989347",
"7. c #8B8A52",
"8. c #848958",
"9. c #928D58",
"0. c #8B9C54",
"q. c #86935E",
"w. c #8B995C",
"e. c #869555",
"r. c #989658",
"t. c #A49D4E",
"y. c #92A45D",
"u. c #8EA14E",
"i. c #ADA553",
"p. c #B4AB57",
"a. c #BCB25A",
"s. c #878A68",
"d. c #8E9C63",
"f. c #889564",
"g. c #999964",
"h. c #868B75",
"j. c #979973",
"k. c #8B9175",
"l. c #A39D69",
"z. c #A19F79",
"x. c #94A365",
"c. c #96A569",
"v. c #9CAD6D",
"b. c #99AB66",
"n. c #9CAA72",
"m. c #AAA369",
"M. c #B2AB6D",
"N. c #A0B06F",
"B. c #BBB36A",
"V. c #A9A679",
"C. c #B2AC7B",
"Z. c #A1B171",
"A. c #A9BA76",
"S. c #ABBC7A",
"D. c #A7B876",
"F. c #B3B373",
"G. c #BDB574",
"H. c #BFB877",
"J. c #C4BA5D",
"K. c #C1B977",
"L. c #C2BA7A",
"P. c #C9BE7B",
"I. c #C8BC61",
"U. c #AFC17B",
"Y. c #B2C37C",
"T. c #B7C97F",
"R. c #CEC363",
"E. c #D3C864",
"W. c #CBC27D",
"Q. c #D2CA7F",
"!. c #7E7F82",
"~. c #8D8C98",
"^. c #818383",
"/. c #9FA882",
"(. c #A6AA85",
"). c #B9BD8D",
"_. c #B8B78A",
"`. c #B3BB96",
"'. c #ABB68E",
"]. c #A4A3AE",
"[. c #9B9BA6",
"{. c #C6BE8B",
"}. c #C4BC83",
"|. c #C2BD92",
" X c #B9CB82",
".X c #B6C783",
"XX c #BDD087",
"oX c #CDC481",
"OX c #C9C18C",
"+X c #D4CB85",
"@X c #D5CA86",
"#X c #DDD38A",
"$X c #D9D085",
"%X c #CAC398",
"&X c #DBD29C",
"*X c #CFCF91",
"=X c #E2D88D",
"-X c #E6DA92",
";X c #EBE194",
":X c #F3E999",
">X c #CCC5A2",
",X c #D3CAAD",
"<X c #D9CFAD",
"1X c #D5CCB4",
"2X c #DACFB1",
"3X c #DCD2B4",
"4X c #DCD4BA",
"5X c #D4CFB1",
"6X c #E0D6BB",
"7X c #D1E593",
"8X c #BDBCC9",
"9X c #D5D7DB",
"0X c #D4D1CB",
"qX c #EEE3C8",
"wX c #F1EDD7",
"eX c #DCDEE4",
"rX c #DFE0E4",
"tX c #EAEAFB",
"yX c #F3F2FF",
"uX c #FEFEFF",
"iX c #F9F7FF",
"pX c #E8E8F3",
"aX c #DEE2D1",
"sX c None",
"dX c black",
/* pixels */
"sXsXsXsXsXsXsXsXsXsXsXsXsXsXsXsXsXsXsXsXsXsXsXsXsXsXsXsXsXsXsXsXsXsXsXsXsXsXsXsXdXdXdXdXdXdX                  sXsXsXsXsXsXsXsXsX",
"sXsXsXsXsXsXsXsXsXsXsXsXsXsXsXsXsXsXsXsXsXsXsXsXsXsXsXsXsXsXsXsXsXsXsXsXsXsXsXsXdXdXdXdXdXdX                  sXsXsXsXsXsXsXsXsX",
"sXsXsXsXsXsXsXsXsXsXsXsXsXsXsXsXsXsXsXsXsXsXsXsXsXsXsXsXsXsXsXsXsXsXsXsXsXsXsXsXdXdXdXdXdXdX& 3 2 2 2 2 2 2 & sXsXsXsXsXsXsXsXsX",
"sXsXsXsXsXsXsXsXsXsXsXsXsXsXsXsXsXsXsXsXsXsXsXsXsXsXsXsXsXsXsXsXsXsXsXsXsXsXsXsXdXdX        D D.v.v.v.n.v.Z...      sXsXsXsXsXsX",
"sXsXsXsXsXsXsXsXsXsXsXsXsXsXsXsXsXsXsXsXsXsXsXsXsXsXsXsXsXsXsXsXsXsXsXsXsXsXsXsXsXsX        '  XD.D.S.D.S.Y.>.      sXsXsXsXsXsX",
"sXsXsXsXsXsXsXsXsXsXsXsXsXsXsXsXsXsXsXsXsXsXsXsXsXsXsXsXsXsXsXsXsXsXsXsXsXsXsXsXsXsX2 j j 7  .A.N.N.Z.Z.v.D.q.7 j 7 sXsXsXsXsXsX",
"sXsXsXsXsXsXsXsXsXsXsXsXsXsXsXsXsXsXsXsXsXsXsXsXsXsXsXsXsXsXsXsXsXsXsXsXsXsXsX      >.U.D.D.Z.Z.N.N.Z.v.N.N.Z.S.S.f.    sXsXsXsX",
"sXsXsXsXsXsXsXsXsXsXsXsXsXsXsXsXsXsXsXsXsXsXsXsXsXsXsXsXsXsXsXsXsXsXsXsXsXsXsX      { S.D.D.Z.N.N.N.N.Z.N.N.Z.Z.A.q.    sXsXsXsX",
"sXsXsXsXsXsXsXsXsXsXsXsXsXsXsXsXsXsXsXsXsXsXsXsXsXsXsXsXsXsXsXsXsXsXsXsXsXsXsX      >..XU.S.U.Y.D.v.N.Z.n.Z.Z.Z.D.q.    sXsXsXsX",
"sXsXsXsXsXsXsXsXsXsXsXsXsXsXsXsXsXsXsXsXsXsXsXsXsXsXsXsXsXsXsXsXsXsXsXsXsXsXsX      ' d.q.f.q.q.c.Z.Z.N.Z.Z.v.Z.D.q.X O sXsXsXsX",
"sXsXsXsXsXsXsXsXsXsXsXsXsXsXsXsXsXsXsXsXsXsXsXsXsXsXsXsXsXsXsXsXsXsXsXsXsXsXsX      . @ @ o @   D U.N.Z.N.N.Z.v.N.x.Y K     sXsX",
"sXsXsXsXsXsXsXsXsXsXsXsXsXsXsXsXsXsXsXsXsXsXsXsXsXsXsXsXsXsXsXsXsXsXsXsXsXsXsX                  D *XS.v.Z.N.Z.Z.Z.b.@.~     sXsX",
"sXsXsXsXsXsXsXsXsXsXsXsXsXsXsXsXsXsXsXsXsXsXsXsXsXsXsXsXsXsXsXsXsXsXsXsXsXsXsX                  j >.q.D.N.N.Z.v.Z.b.-. .    sXsX",
"sXsXsXsXsXsXsXsXsXsXsXsXsXsXsXsXsXsXsXsXsXsXsXsXsXN k     sXsXsXsX    b V sXsXsXsXsX                m U.N.N.N.Z.N.Z.Z.d.    sXsX",
"sXsXsXsXsXsXsXsXsXsXsXsXsXsXsXsXsXsXsXsXsXsXsXsXsXC k     sXdXdXsXX   N C sXsXsXsXsX                A XXD.N.Z.N.N.Z.Z.d.    sXsX",
"sXsXsXsXsXsXsXsXsXsXsXsXsXsXsXsXsXsXsXsXsXsXsXsXsX6 7 n r dXdXdXsXj j 6 6 sXsXsXsXsXsX              t 0.q.D.N.Z.N.N.Z.x.< 1 sXsX",
"sXsXsXsXsXsX                  sXsXsXsXsXsXsXsXsXsX  &  Xv.    N z D.Y.o   sXsXsXsXsXsXsXsXsX        * l ) D.N.N.N.Z.Z.v.%.(     ",
"sXsXsXsXsXsX                  sXsXsXsXsXsXsXsXsXsX  & Y.c.    z k Z.S.o   sXsXsXsXsXsXsXsXsX        * c ) D.N.N.Z.N.Z.b.@./     ",
"sXsXsXsXsXsXm D D D D m d $   sXsXsXV z V sXsXsXsX  & S.d.    V z v.D.o   sXsXsXV z N C sXsXsXsX    O * S U.Z.Z.N.Z.Z.c./ ^     ",
"sXsXsXsX    d..XU.U..Xu.5.0   sXsXsXV z z k sXsXsX  & U.c.  X V b v.S.o   sXsXk k k z V sXsXsXsXsX      t .XZ.Z.Z.N.Z.v./ /     ",
"sXsXsXsX    q.D.N.Z.D.4.&.w   sXsXsXz z l l sXsXsX  & .Xc.  X N N Z.S.o   sXsXk k l z C sXsXsXsXsX      r .XZ.v.Z.Z.D.v.@.^     ",
"sXsX    ' ] c.v.N.v.S.D 1 @ sXsXsXsXk K q. .l N d   + u.;.    $ $ 3.0.o   k k ;.8.w.j $ .               <  .;.D.Z.v.;.:.$./     ",
"sXsX    v. XZ.Z.N.D..Xj   sXsXsXsXsXf { XXw.s V q   + *.K         ~ @..   d s c.U.XXe                   # l P U.Z.v.T / $.^     ",
"sXsX    d.Z.v.Z.N.N.U.t   sXsXsXsXsXs ) _.e.l N q   @ &.~         / %..   d l d.Z.Y.e     X             $ x P D.N.c./ / $./     ",
"sXsX    d.Z.Z.N.D.{ ) *   sXsXsXsXsXl ) U.q.s N d   + &./ 0 0 d 0 / $..   d l f.Z.Y.t   S f.t           X O 6 0.-.-./ $.$.^     ",
"sXsX    d.Z.N.Z.S.P s #   sXsXsXsXsXf { .Xw.s N q   o &./ N N N N $.%..   d l x.D..Xt   { 7XD               * *./ / ( $.$./     ",
"sXsX@ X d.D.N.N.S.P x $   sXsXsXsXsXl ) D.>.l N d X * %./ V B N N ( *.# X k s w.v.A.e   ] XXS   X           * &.#.$.$.( $.^     ",
"    8.f.v.N.Z.N.S.W N $   sXsXsXsXsXk H 3.~ k z N K ~ $.( / ^ ^ / $.$.~ I V k ( -.5.<   ] .X;.~ w           , &.$./ ( #.@./     ",
"    D.U.Z.Z.N.N.S.P z $   sXsXsXsXsXk H #.I k b C :.%.( #.$.$.%.$.$.( &.&.B k ~ / *.,   ] Y.0.&.j           * :.$./ $.( $.^     ",
"    c.Z.N.N.Z.Z.S.! z $   sXsXsXsXsXk J %.~ k k B %.( $.( %.$.%.%.( #.( $.B k ^ %.&.<   ] Y.0.*.d           * &.$.$.( $.%./     ",
"    c.Z.N.Z.D.Z.U.P V $   sXsXsXsXsXk H %.W l k C $.( ( ( %.$.%.$.( ( $.$.N k W %.&.<   ] .Xe.*.j           * &./ $.$.$.%./     ",
"    c.Z.N.Z.{ ) ) ~ / ,   sXsXsXsXsXk J %./ W I ~ $.$.#./ , < < < ( ( #.$.^ I / #.&.<   S 0.-.#.K V N B f 1 b %.$.$.$.^ * < sXsX",
"    c.N.N.S.B 8 8 / u.6   sXsXsXsXsXj L $.$.$.$.$.( $.&.$.        $.*.$.( $.%.$.$.&.<   V &.@.( %.&.&.:./ z J %.( @.$.^     sXsX",
"    c.D.v.D.P z k W *.<   sXsXsXsXsXz H %.$.$.@.@.( $.( W   . X X ^ / $.$.( $.( $.&.<   b $.( $.$.$.( %.W d C %.$.( $.K     sXsX",
"    c.Z.4.;./ ~ #.6 # sXsXsXsXsXz H ^ / $.$.$.( $.$.~ o < >.>.>.>.$ # ^ $.( $.( $.$.~ K 6 . N %.@.$.@.$.~ k C %.$.^ B B 0 g sXsX",
"    c.S.$.^ &.1.5.<   sXsXsXsX< V K &.$.( $.$.%.$.&./   o XXY.U.Y..   ( &.%.$.#.$.@.%.5.6   V 5.&.&.&.-.^ d B @./ Y 8 d C C sXsX",
"    d.v.$.$.~ P / ,   sXsXsXsX< V J %.#.$.( ^ ^ ^ I L X - D.n.v.Z.# . J K ^ ^ ( $.$.( -.w   d ^ K ~ W W J z J 3.<.$.Z Z b z sXsX",
"    ( %.$.&.* . . w k b C *   < z J %.( $.~ V B j X $ / ( Z.Z.Z.Z.^ ~ # . b N ^ $.$.@.$.C l , X o . . X 6 *.3.K.F.F.F.m.k b sXsX",
"    #.&.T #.#     w z f k $   , k J &.$.%.~ d k w   o &.-.Z.v.Z.Z.*.%..   0 d / %.%.%.&.J N ,           6 5.u.}.P.P.W.G.z C sXsX",
"    B C 3.0.< . . b I U Q 6 X w L K ^ ~ ^ K B L V @ 6 5.:.Z.Z.Z.Z.;.4.< $ N B I ~ ~ ~ ^ J H 6 . $ 3 1 , q C  .oXH.K.L.m.6 0 sXsX",
"sXsX    m.oXP k f 3.i.t.p.Q d K %.K k x b L #.@.@./ -.Z.v.v.n.Z.Z.v.N.$.( $.$.C V z z k I %.J d ` i.t.p.E   y #XL.H.K.m.    dXdX",
"sXsX    m.@XZ d g 6.J.J.R._ g Y 5.I d s > l R R T %.-.D.Z.Z.Z.Z.Z.D.D.-.%.Y R h > > s d I 5.J 8 O.E.J.E.O.  e -X@X@X$XG.    dXdX",
"sXsX$ O m.oX_ Q Q E E E E U L J I K C ] h.k.V./.x.T ;.D.Z.N.N.Z.N.N.Z.-./ c.(.k.s.h.] C K ~ J H U E E E Z 9 M O.} } } [     dXdX",
"sXsXB k F.L.p.i.J.5       k :.J d H @.V.uXyXyXyX9XL ;.Z.Z.Z.Z.v.N.N.n.$.R eXyXtXyXuXn.#.L d K 1.d       p E.O.          sXdXdXdX",
"sXsXV l H.oXB.a.E.9       b 5.L 8 H #.(.yXtXuXuXaXv / .XD.Z.Z.Z.Z.D.'.@.v wXiXtXtXiXn.*.C 8 J 5.b       r E.O.          sXsXsXsX",
"sXsXsXsX| 7.Z M M F [ i   0 Y ) 7.( x j.uX0Xo.o.!.`.(.:.e.Z.v.Z.Z.e.:.'.'.!.o.9XtXiXf.c ` 2.) I 6   O , k <.Z dX      sXsXsXsXsX",
"sXsXsXsXf l O     g.:Xm   1 d 7.-X7.: ,.uX].    y uX9XR $.D.Z.v.Z.( Y pXuXu   8XiXuX..: r.-X| k ,   * C z k 6 sXsXsXsXsXsXsXsXsX",
"sXsXsXsXz C +     9.;Xn   1 k 7.@X2.: h.uX].    y uX9XY ;.Z.N.N.Z.$.T rXuXu   8XiXuXo.: 7.#X;.k <   $ x k V V sXsXsXsXsXsXsXsXsX",
"sXsXsXsX& # X.+.+.O. .E E M s 2.oXC.j.j.h.h.~.~.].yX9XR -.n.N.N.N.$./ rXyX[.~.h.h.h.j.j.C.oXO.g P } 8.V.O.b b dXdXdXsXsXsXsXsXsX",
"sXsXsXsX    `.qXwXX.: 6.E._ 8 2.W.&XqXl.# X.uXuXuXtXeXR $.Z.N.N.Z.@.T rXtXuXuXP : = (.qX%X@X| : 7.-X&XqXV.l N dXdXdXsXsXsXsXsXsX",
"sXsXsXsX    (.1X6X{ 8 <.p.^ 8 2.}.{.6Xj.> ,.iXtXtXtX9XR $.D.N.Z.N.$.@.eXtXtXuXX.l 8 (.2X{.W.;.8 2.P.{.3Xz.q z dXdXsXsXsXsXsXsXsX",
"sXsXsXsX    l.oX&Xn X k U _ 6._ Z g.6X{.r.C.0X4X1X.X'.y.x.Z.Z.N.N.x.x.'.'.1X0XV.t.r.|.6X9.J _ 6. .Z 9.&X8.  , N N b sXsXsXsXsXsX",
"sXsXsXsX    r.P.+X9   1 g <.J.` : ..6X%XoXoX>X%X`.y.b.D.D.N.N.Z.N.D.D.b.y.|.>XoX}.P.%X6X} : _ I._ : ` $XO.  @ C V V sXsXsXsXsXsX",
"sXsXsXsX    g.P.@Xe   6 k <.p._ > s.6X%XG.}.1X,X%Xb.N.N.N.N.N.N.N.N.N.N.v.>X,X}.K.K.%X6X..8 _ a._ 8  .#X+.  # N b b sXsXsXsXsXsX",
"sXsXsXsX.   g.P.@X9   w l O.a._ h 8.6X%XG.}.1X1X>Xv.v.v.v.v.v.n.v.v.v.v.v.>X,X}.K.K.>X6XO.j 3.I._ :  .;X2.  + z l k sXsXsXsXsXsX",
"sXsXsXsX1 $ l.P.@Xe   6 k O.a.U . [ <X}.K.L.OX{..X`.).).).F.F.F.A.).).).|.{.{.K.K.K.{.&X! + q M E 9. .F F M U O._ ` sXsXsXsXsXsX",
"sXsXx j N l M.P.#Xe   6 k <.J.M   F $XK.K.G.G.G.}.1X1X4X2XP.P.P.P.3X2X1X1XL.G.L.L.L.K.$Xm       G :X}   p E.J.p.p.t.d z sXsXsXsX",
"sXsXl k k 8 M.W.=Xe   w k <.J.M   F =XP.K.K.L.G.}.,X,X3X<XP.P.P.W.<X2X,X,XL.K.K.K.G.P.#Xm       G =XX.  q J.i.i.i.6.k b sXsXsXsX",
"V k 9.r.r.r.F a m @ sX6 V J ` 9 dXi a X.oXL.L.H.L.{.C.a A n n n n A a _.{.L.G.L.L.oX[ n & sX    F #Xl.} G 5 b Q Q U z z sXsXsXsX",
"N z oX#X#X;X4     sXsXw B k k sXdXdX  A =XP.P.oXW.W.m.                G.W.W.W.}.P.=Xa   sXsX    G =X@X:X9.  + k k d V z sXsXsXsX",
"z k M.G.G.}.,     sXsXN z V z sXsXsX  n oXG.G.G.G.L.g.                m.K.G.G.G.G.oXr   sXsX    F {.K.P.}   # C z V z V sXsXsXsX",
"@ + 3 3 3 9 sXsXsXsXsXsXsXsXsXsXsXsXsX@ 5 3 3 3 3 5 4 sXsXsXsXsXsXsXsX4 3 3 3 4 3 9 sXsXsXsXsXsX@ e 3 3 &   # sXsXsXsXsXsXsXsXsX",
"            sXsXsXsXsXsXsXsXsXsXsXsXsXsX              sXsXsXsXsXsXsXsX              sXsXsXsXsXsXsX          # sXsXsXsXsXsXsXsXsX",
"            sXsXsXsXsXsXsXsXsXsXsXsXsXsX              sXsXsXsXsXsXsXsX              sXsXsXsXsXsXsX            sXsXsXsXsXsXsXsXsX"
};
