/* XPM */
static char *result[] = {
/* columns rows colors chars-per-pixel */
"64 102 11 1 ",
"  c gray19",
". c #505060",
"X c #535362",
"o c #C03C2A",
"O c #F04028",
"+ c #787884",
"@ c #9090A0",
"# c #F08888",
"$ c #D0D0D8",
"% c #F8F8F8",
"& c None",
/* pixels */
"&&&&&&&&&&&&&&&&&&&&&&&&&&&&&&&&&&&&&&&&&&&&&&&&&&&&&&&&&&&&&&&&",
"&&&&&&&&&&&&&&&&&&&&&&&&&&&&&&&&&&&&&&&&&&&&&&&&&&&&&&&&&&&&&&&&",
"&&&&&&&&&&&&&&&&&&&&&&&&                &&&&&&&&&&&&&&&&&&&&&&&&",
"&&&&&&&&&&&&&&&&&&&&&&&&                &&&&&&&&&&&&&&&&&&&&&&&&",
"&&&&&&&&&&&&&&&&&&&&&&&&                &&&&&&&&&&&&&&&&&&&&&&&&",
"&&&&&&&&&&&&&&&&&&&&&&&&                &&&&&&&&&&&&&&&&&&&&&&&&",
"&&&&&&&&&&&&&&          ########OOOOOOOO          &&&&&&&&&&&&&&",
"&&&&&&&&&&&&&&          ########OOOOOOOO          &&&&&&&&&&&&&&",
"&&&&&&&&&&&&&&          ########OOOOOOOO          &&&&&&&&&&&&&&",
"&&&&&&&&&&&&&&          ########OOOOOOOO          &&&&&&&&&&&&&&",
"&&&&&&&&&&&&&&          ########OOOOOOOO          &&&&&&&&&&&&&&",
"&&&&&&&&&&&   ##########OOO          OOOOOOOOOOOOO   &&&&&&&&&&&",
"&&&&&&&&&&&   ##########OOO          OOOOOOOOOOOOO   &&&&&&&&&&&",
"&&&&&&&&&&&   ##########OOO          OOOOOOOOOOOOO   &&&&&&&&&&&",
"&&&&&&     OOOOOOOOOOOOO   %%%%%$$$$$   OOOOOOOOOOOOO     &&&&&&",
"&&&&&&     OOOOOOOOOOOOO   %%%%%$$$$$   OOOOOOOOOOOOO     &&&&&&",
"&&&&&&     OOOOOOOOOOOOO   %%%%%$$$$$   OOOOOOOOOOOOO     &&&&&&",
"&&&&&&     OOOOOOOOOOOOO   %%%%%$$$$$   OOOOOOOOOOOOO     &&&&&&",
"&&&&&&     OOOOOOOOOOOOO   %%%%%$$$$$   OOOOOOOOOOOOO     &&&&&&",
"&&&&&&     OOO             $$$$$@@@@@             OOO     &&&&&&",
"&&&&&&     OOO             $$$$$@@@@@             OOO     &&&&&&",
"&&&&&&     ooO             $$$$$@@+++             Ooo     &&&&&&",
"&&&&&&     ooO             $$$$$@@+++             Ooo     &&&&&&",
"&&&&&&     ooO             $$$$$@@+++             Ooo     &&&&&&",
"&&    OOooo   .....@@@@@@@@          +@@@@@@@.....   oooOO    &&",
"&&    OOooo   .....@@@@@@@@          +@@@@@@@.....   oooOO    &&",
"&&    OOOOO   .....@@@@@@@@          @@@@@@@@.....   OOOOO    &&",
"&&         ...@@@@@@@@@@@@@@@@@@@@@@@@@@@@@@@@@@@@...         &&",
"&&         ...@@@@@@@@@@@@@@@@@@@@@@@@@@@@@@@@@@@@...         &&",
"&&         ...@@@@@@@@@@@@@@@@@@@@@@@@@@@@@@@@@@@@...         &&",
"&&         ...@@@@@@@@@@@@@@@@@@@@@@@@@@@@@@@@@@@@...         &&",
"&&         ...@@@@@@@@@@@@@@@@@@@@@@@@@@@@@@@@@@@@...         &&",
"&&    .....@@@@@@@@@@@@@@@@@@@@@@@@@@@@@@@@@@@@@@@@@@.....    &&",
"&&    .....@@@@@@@@@@@@@@@@@@@@@@@@@@@@@@@@@@@@@@@@@@.....    &&",
"&&    .....@@@@@@@@@@@@@@@@@@@@@@@@@@@@@@@@@@@@@@@@@@.....    &&",
"&&    .....@@@@@@@@@@@@@@@@@@@@@@@@@@@@@@@@@@@@@@@@@@.....    &&",
"&&    .....@@@@@@@@@@@@@@@@@@@@@@@@@@@@@@@@@@@@@@@@@@.....    &&",
"&&    .....@@@@@@@@@@@@@@@@@@@@@@@@@@@@@@@@@@@@@@@@@@.....    &&",
"&&    XX...@@@@@@@@@@@@@@@@@@@@@@@@@@@@@@@@@@@@@@@@@@...XX    &&",
"&&    XX...@@@@@@@@@@@@@@@@@@@@@@@@@@@@@@@@@@@@@@@@@@...XX    &&",
"&&&&&&     ...@@@@@@@@@@@@@@@@@@@@@@@@@@@@@@@@@@@@...     &&&&&&",
"&&&&&&     ...@@@@@@@@@@@@@@@@@@@@@@@@@@@@@@@@@@@@...     &&&&&&",
"&&&&&&     ...@@@@@@@@@@@@@@@@@@@@@@@@@@@@@@@@@@@@...     &&&&&&",
"&&&&&&     XX.@@@@@@@@@@@@@@@@@@@@@@@@@@@@@@@@@@@@.XX     &&&&&&",
"&&&&&&     XX.@@@@@@@@@@@@@@@@@@@@@@@@@@@@@@@@@@@@.XX     &&&&&&",
"&&&&&&&&&&&   ..........@@@@@@@@@@@@@@@@..........   &&&&&&&&&&&",
"&&&&&&&&&&&   ..........@@@@@@@@@@@@@@@@..........   &&&&&&&&&&&",
"&&&&&&&&&&&   ..........@@@@@@@@@@@@@@@@..........   &&&&&&&&&&&",
"&&&&&&&&&&&   XX........@@@@@@@@@@@@@@@@........XX   &&&&&&&&&&&",
"&&&&&&&&&&&&&&          ................          &&&&&&&&&&&&&&",
"&&&&&&&&&&&&&&          ................          &&&&&&&&&&&&&&",
"&&&&&&&&&&&&&&          ................          &&&&&&&&&&&&&&",
"&&&&&&&&&&&&&&          ................          &&&&&&&&&&&&&&",
"&&&&&&&&&&&&&&&&&&&                          &&&&&&&&&&&&&&&&&&&",
"&&&&&&&&&&&&&&&&&&&                          &&&&&&&&&&&&&&&&&&&",
"&&&&&&&&&&&&&&&&&&&                          &&&&&&&&&&&&&&&&&&&",
"&&&&&&&&&&&&&&&&&&&                          &&&&&&&&&&&&&&&&&&&",
"&&&&&&&&&&&        @@@@@@@@@@@@@@@@@@@@@@@@@@        &&&&&&&&&&&",
"&&&&&&&&&&&        @@@@@@@@@@@@@@@@@@@@@@@@@@        &&&&&&&&&&&",
"&&&&&&&&&&&        @@@@@@@@@@@@@@@@@@@@@@@@@@        &&&&&&&&&&&",
"&&&&&&&&&&&        @@@@@@@@@@@@@@@@@@@@@@@@@@        &&&&&&&&&&&",
"&&&&&&&&&&&        @@@@@@@@@@@@@@@@@@@@@@@@@@        &&&&&&&&&&&",
"&&&&&&     @@@@@@@@@@@@@@@@@@@@@@@@@@@@@@@@@@@@@@@@@@     &&&&&&",
"&&&&&&     @@@@@@@@@@@@@@@@@@@@@@@@@@@@@@@@@@@@@@@@@@     &&&&&&",
"&&&&&&     @@@@@@@@@@@@@@@@@@@@@@@@@@@@@@@@@@@@@@@@@@     &&&&&&",
"&&    @@@@@@@@@@@@@@@@@@@@@@@@@@@@@@@@@@@@@@@@@@@@@@@@@@@@    &&",
"&&    @@@@@@@@@@@@@@@@@@@@@@@@@@@@@@@@@@@@@@@@@@@@@@@@@@@@    &&",
"&&    @@@@@@@@@@@@@@@@@@@@@@@@@@@@@@@@@@@@@@@@@@@@@@@@@@@@    &&",
"&&    @@@@@@@@@@@@@@@@@@@@@@@@@@@@@@@@@@@@@@@@@@@@@@@@@@@@    &&",
"&&    @@@@@@@@@@@@@@@@@@@@@@@@@@@@@@@@@@@@@@@@@@@@@@@@@@@@    &&",
"&&    .....@@@@@@@@@@@@@@@@@@@@@@@@@@@@@@@@@@@@@@@@@@.....    &&",
"&&    .....@@@@@@@@@@@@@@@@@@@@@@@@@@@@@@@@@@@@@@@@@@.....    &&",
"&&    .....@@@@@@@@@@@@@@@@@@@@@@@@@@@@@@@@@@@@@@@@@@.....    &&",
"&&    .....@@@@@@@@@@@@@@@@@@@@@@@@@@@@@@@@@@@@@@@@@@.....    &&",
"&&    .....@@@@@@@@@@@@@@@@@@@@@@@@@@@@@@@@@@@@@@@@@@.....    &&",
"&&    $$$$$........@@@@@@@@@@@@@@@@@@@@@@@@@@........$$$$$    &&",
"&&    $$$$$........@@@@@@@@@@@@@@@@@@@@@@@@@@........$$$$$    &&",
"&&    $$$$$........@@@@@@@@@@@@@@@@@@@@@@@@@@........$$$$$    &&",
"&&&&&&     $$$$$$$$..........................$$$$$$$$     &&&&&&",
"&&&&&&     $$$$$$$$..........................$$$$$$$$     &&&&&&",
"&&&&&&     $$$$$$$$..........................$$$$$$$$     &&&&&&",
"&&&&&&     $$$$$$$$..........................$$$$$$$$     &&&&&&",
"&&&&&&     $$$$$$$$..........................$$$$$$$$     &&&&&&",
"&&&&&&     $$$$$$$$$$$$$$$$$$$$$$$$$$$$$$$$$$$$$$$$$$     &&&&&&",
"&&&&&&     $$$$$$$$$$$$$$$$$$$$$$$$$$$$$$$$$$$$$$$$$$     &&&&&&",
"&&&&&&     $$$$$$$$$$$$$$$$$$$$$$$$$$$$$$$$$$$$$$$$$$     &&&&&&",
"&&&&&&     $$$$$$$$$$$$$$$$$$$$$$$$$$$$$$$$$$$$$$$$$$     &&&&&&",
"&&&&&&     $$$$$$$$$$$$$$$$$$$$$$$$$$$$$$$$$$$$$$$$$$     &&&&&&",
"&&&&&&&&&&&   $$$$$$$$$$$$$$$$$$$$$$$$$$$$$$$$$$$$   &&&&&&&&&&&",
"&&&&&&&&&&&   $$$$$$$$$$$$$$$$$$$$$$$$$$$$$$$$$$$$   &&&&&&&&&&&",
"&&&&&&&&&&&   $$$$$$$$$$$$$$$$$$$$$$$$$$$$$$$$$$$$   &&&&&&&&&&&",
"&&&&&&&&&&&&&&          $$$$$$$$$$$$$$$$          &&&&&&&&&&&&&&",
"&&&&&&&&&&&&&&          $$$$$$$$$$$$$$$$          &&&&&&&&&&&&&&",
"&&&&&&&&&&&&&&          $$$$$$$$$$$$$$$$          &&&&&&&&&&&&&&",
"&&&&&&&&&&&&&&          $$$$$$$$$$$$$$$$          &&&&&&&&&&&&&&",
"&&&&&&&&&&&&&&          $$$$$$$$$$$$$$$$          &&&&&&&&&&&&&&",
"&&&&&&&&&&&&&&&&&&&&&&&&                &&&&&&&&&&&&&&&&&&&&&&&&",
"&&&&&&&&&&&&&&&&&&&&&&&&                &&&&&&&&&&&&&&&&&&&&&&&&",
"&&&&&&&&&&&&&&&&&&&&&&&&                &&&&&&&&&&&&&&&&&&&&&&&&",
"&&&&&&&&&&&&&&&&&&&&&&&&                &&&&&&&&&&&&&&&&&&&&&&&&",
"&&&&&&&&&&&&&&&&&&&&&&&&&&&&&&&&&&&&&&&&&&&&&&&&&&&&&&&&&&&&&&&&",
"&&&&&&&&&&&&&&&&&&&&&&&&&&&&&&&&&&&&&&&&&&&&&&&&&&&&&&&&&&&&&&&&"
};
