/* XPM */
static char *result[] = {
/* columns rows colors chars-per-pixel */
"64 64 4 1 ",
"  c #C8C068",
". c #888890",
"X c #F0E890",
"o c #F8F8D8",
/* pixels */
"oooooooooooooooooooooooooooooooooooooooooooooooooooooooooooo....",
"oooooooooooooooooooooooooooooooooooooooooooooooooooooooooooo....",
"oooooooooooooooooooooooooooooooooooooooooooooooooooooooooooo....",
"oooooooooooooooooooooooooooooooooooooooooooooooooooooooooooo....",
"ooooXXXXXXXXXXXXXXXXXXXXXXXXXXXXXXXXXXXXXXXXXXXXXXXXXXXXXXXX....",
"ooooXXXXXXXXXXXXXXXXXXXXXXXXXXXXXXXXXXXXXXXXXXXXXXXXXXXXXXXX....",
"ooooXXXXXXXXXXXXXXXXXXXXXXXXXXXXXXXXXXXXXXXXXXXXXXXXXXXXXXXX....",
"ooooXXXXXXXXXXXXXXXXXXXXXXXXXXXXXXXXXXXXXXXXXXXXXXXXXXXXXXXX....",
"ooooXXXXoooooooo    XXXXoooooooo    XXXXoooooooo    XXXXXXXX....",
"ooooXXXXoooooooo    XXXXoooooooo    XXXXoooooooo    XXXXXXXX....",
"ooooXXXXoooooooo    XXXXoooooooo    XXXXoooooooo    XXXXXXXX....",
"ooooXXXXoooooooo    XXXXoooooooo    XXXXoooooooo    XXXXXXXX....",
"ooooXXXXoooooooo    XXXXoooooooo    XXXXoooooooo    XXXXXXXX....",
"ooooXXXXoooooooo    XXXXoooooooo    XXXXoooooooo    XXXXXXXX....",
"ooooXXXXoooooooo    XXXXoooooooo    XXXXoooooooo    XXXXXXXX....",
"ooooXXXXoooooooo    XXXXoooooooo    XXXXoooooooo    XXXXXXXX....",
"ooooXXXX            XXXX            XXXX            XXXXXXXX....",
"ooooXXXX            XXXX            XXXX            XXXXXXXX....",
"ooooXXXX            XXXX            XXXX            XXXXXXXX....",
"ooooXXXX            XXXX            XXXX            XXXXXXXX....",
"ooooXXXXXXXXXXXXXXXXXXXXXXXXXXXXXXXXXXXXXXXXXXXXXXXXXXXXXXXX....",
"ooooXXXXXXXXXXXXXXXXXXXXXXXXXXXXXXXXXXXXXXXXXXXXXXXXXXXXXXXX....",
"ooooXXXXXXXXXXXXXXXXXXXXXXXXXXXXXXXXXXXXXXXXXXXXXXXXXXXXXXXX....",
"ooooXXXXXXXXXXXXXXXXXXXXXXXXXXXXXXXXXXXXXXXXXXXXXXXXXXXXXXXX....",
"ooooXXXXoooooooo    XXXXoooooooo    XXXXoooooooo    XXXXXXXX....",
"ooooXXXXoooooooo    XXXXoooooooo    XXXXoooooooo    XXXXXXXX....",
"ooooXXXXoooooooo    XXXXoooooooo    XXXXoooooooo    XXXXXXXX....",
"ooooXXXXoooooooo    XXXXoooooooo    XXXXoooooooo    XXXXXXXX....",
"ooooXXXXoooooooo    XXXXoooooooo    XXXXoooooooo    XXXXXXXX....",
"ooooXXXXoooooooo    XXXXoooooooo    XXXXoooooooo    XXXXXXXX....",
"ooooXXXXoooooooo    XXXXoooooooo    XXXXoooooooo    XXXXXXXX....",
"ooooXXXXoooooooo    XXXXoooooooo    XXXXoooooooo    XXXXXXXX....",
"ooooXXXX            XXXX            XXXX            XXXXXXXX....",
"ooooXXXX            XXXX            XXXX            XXXXXXXX....",
"ooooXXXX            XXXX            XXXX            XXXXXXXX....",
"ooooXXXX            XXXX            XXXX            XXXXXXXX....",
"ooooXXXXXXXXXXXXXXXXXXXXXXXXXXXXXXXXXXXXXXXXXXXXXXXXXXXXXXXX....",
"ooooXXXXXXXXXXXXXXXXXXXXXXXXXXXXXXXXXXXXXXXXXXXXXXXXXXXXXXXX....",
"ooooXXXXXXXXXXXXXXXXXXXXXXXXXXXXXXXXXXXXXXXXXXXXXXXXXXXXXXXX....",
"ooooXXXXXXXXXXXXXXXXXXXXXXXXXXXXXXXXXXXXXXXXXXXXXXXXXXXXXXXX....",
"ooooXXXXoooooooo    XXXXoooooooo    XXXXoooooooo    XXXXXXXX....",
"ooooXXXXoooooooo    XXXXoooooooo    XXXXoooooooo    XXXXXXXX....",
"ooooXXXXoooooooo    XXXXoooooooo    XXXXoooooooo    XXXXXXXX....",
"ooooXXXXoooooooo    XXXXoooooooo    XXXXoooooooo    XXXXXXXX....",
"ooooXXXXoooooooo    XXXXoooooooo    XXXXoooooooo    XXXXXXXX....",
"ooooXXXXoooooooo    XXXXoooooooo    XXXXoooooooo    XXXXXXXX....",
"ooooXXXXoooooooo    XXXXoooooooo    XXXXoooooooo    XXXXXXXX....",
"ooooXXXXoooooooo    XXXXoooooooo    XXXXoooooooo    XXXXXXXX....",
"ooooXXXX            XXXX            XXXX            XXXXXXXX....",
"ooooXXXX            XXXX            XXXX            XXXXXXXX....",
"ooooXXXX            XXXX            XXXX            XXXXXXXX....",
"ooooXXXX            XXXX            XXXX            XXXXXXXX....",
"ooooXXXXXXXXXXXXXXXXXXXXXXXXXXXXXXXXXXXXXXXXXXXXXXXXXXXXXXXX....",
"ooooXXXXXXXXXXXXXXXXXXXXXXXXXXXXXXXXXXXXXXXXXXXXXXXXXXXXXXXX....",
"ooooXXXXXXXXXXXXXXXXXXXXXXXXXXXXXXXXXXXXXXXXXXXXXXXXXXXXXXXX....",
"ooooXXXXXXXXXXXXXXXXXXXXXXXXXXXXXXXXXXXXXXXXXXXXXXXXXXXXXXXX....",
"ooooXXXXXXXXXXXXXXXXXXXXXXXXXXXXXXXXXXXXXXXXXXXXXXXXXXXXXXXX....",
"ooooXXXXXXXXXXXXXXXXXXXXXXXXXXXXXXXXXXXXXXXXXXXXXXXXXXXXXXXX....",
"ooooXXXXXXXXXXXXXXXXXXXXXXXXXXXXXXXXXXXXXXXXXXXXXXXXXXXXXXXX....",
"ooooXXXXXXXXXXXXXXXXXXXXXXXXXXXXXXXXXXXXXXXXXXXXXXXXXXXXXXXX....",
"................................................................",
"................................................................",
"................................................................",
"................................................................"
};
