/* XPM */
static char *result[] = {
/* columns rows colors chars-per-pixel */
"64 64 9 1 ",
"  c black",
". c #485020",
"X c #708038",
"o c #A8A050",
"O c #A0B070",
"+ c #C0B878",
"@ c #D0C8A8",
"# c #E8E8F8",
"$ c None",
/* pixels */
"$$$$$$$$$$$$$$$$$$$$$$$$$$$$$$$$$$$$$$$$$$$$$$$$$$$$$$$$$$$$$$$$",
"$$$$$$$$$$$$$$$$$$$$$$$$$$$$$$$$$$$$$$$$$$$$$$$$$$$$$$$$$$$$$$$$",
"$$$$$$$$$$$$$$$$$$$$$$$$$$$$$$$$$$$$$$$$$$$$$$$$$$$$$$$$$$$$$$$$",
"$$$$$$$$$$$$$$$$$$$$$$$$$$$$$$$$$$$$$$$$$$$$$$$$$$$$$$$$$$$$$$$$",
"$$$$$$$$$$$$$$$$$$$$$$$$$$$$$$$$$$$$$$$$$$$$$$$$$$$$$$$$$$$$$$$$",
"$$$$$$$$$$$$$$$$$$$$$$$$$$$$$$$$$$$$$$$$$$$$$$$$$$$$$$$$$$$$$$$$",
"$$$$$$$$$$$$$$$$$$$$$$$$$$$$$$$$$$$$$$$$$$$$$$$$$$$$$$$$$$$$$$$$",
"$$$$$$$$$$$$$$$$$$$$$$$$$$$$$$$$$$$$$$$$$$$$$$$$$$$$$$$$$$$$$$$$",
"$$$$$$$$$$$$$$$$$$$$$$$$$$$$$$$$$$$$$$$$$$$$$$$$$$$$$$$$$$$$$$$$",
"$$$$$$$$$$$$$$$$$$$$$$$$$$$$$$$$$$$$$$$$$$$$$$$$$$$$$$$$$$$$$$$$",
"$$$$$$$$$$$$$$$$$$$$$$$$$$$$$$$$$$$$$$$$$$$$$$$$$$$$$$$$$$$$$$$$",
"$$$$$$$$$$$$$$$$$$$$$$$$$$$$$$$$$$$$$$$$$$$$$        $$$$$$$$$$$",
"$$$$$$$$$$$$$$$$$$$$$$$$$$$$$$$$$$$$$$$$$$$$$        $$$$$$$$$$$",
"$$$$$$$$$$$$$$$$$$$$$$$$$$$$$$$$$$$$$$$$$    OOOOOOOO  $$$$$$$$$",
"$$$$$$$$$$$$$$$$$$$$$$$$$$$$$$$$$$$$$$$$$    OOOOOOOO  $$$$$$$$$",
"$$$$$$$$$$$$$$$$$$$$$$$$$$$$$$$$$$$$$$$  OOOOOOOOOOOOOO  $$$$$$$",
"$$$$$$$$$$$$$$$$$$$$$$$$$$$$$$$$$$$$$$$  OOOOOOOOOOOOOO  $$$$$$$",
"$$$$$$$$$$$$$$$$$$$$$$$$$$$$$$$$$$$$$$$        OOOOOOOOXX  $$$$$",
"$$$$$$$$$$$$$$$$$$$$$$$$$$$$$$$$$$$$$$$        OOOOOOOOXX  $$$$$",
"$$$$$$$$$$$$$$$$$$$$$$$$$..  $$$$  ..$$$$        OOOOOOOO  $$$$$",
"$$$$$$$$$$$$$$$$$$$$$$$$$..  $$$$  ..$$$$        OOOOOOOO  $$$$$",
"$$$$$$$$$        $$$$$$$$  OO  ..OO  $$$$$$$$    ..OOOOOOXX  $$$",
"$$$$$$$$$        $$$$$$$$  OO  ..OO  $$$$$$$$    ..OOOOOOXX  $$$",
"$$$$$$$  OOOOXX  $$....$$  OO  ..OO  $$....$$$$    OOOOOOXX  $$$",
"$$$$$$$  OOOOXX  $$....$$  OO  ..OO  $$....$$$$    OOOOOOXX  $$$",
"$$$$$  OOOOOO  $$$$..OO..  XX    XX  ..OO          ..OOXXXX  $$$",
"$$$$$  OOOOOO  $$$$..OO..  XX    XX  ..OO          ..OOXXXX  $$$",
"$$$$$  OOOO..  $$$$..OO..  XX....XX  ..OO  OO        XXXXXX  $$$",
"$$$$$  OOOO..  $$$$..OO..  XX....XX  ..OO  OO        XXXXXX  $$$",
"$$$  OOOOOO..  $$$$..XX..XXXXXXXXXXXX..XX  OOXX      XXXXXX  $$$",
"$$$  OOOOOO..  $$$$..XX..XXXXXXXXXXXX..XX  OOXX      XXXXXX  $$$",
"$$$  OOOO..XX  $$$$..XXXXXXXX    XXXXXXXX  XXXXXXXX..XXXX  $$$$$",
"$$$  OOOO..XX  $$$$..XXXXXXXX    XXXXXXXX  XXXXXXXX..XXXX  $$$$$",
"$$$  OOXXXX  $$$$..XXXXXXXX  OOOO  XXXXXXXX  XXXXXX..XX....$$$$$",
"$$$  OOXXXX  $$$$..XXXXXXXX  OOOO  XXXXXXXX  XXXXXX..XX....$$$$$",
"$$$  XXXX  ....  ..XXXX..  XXOOOOXX  ..XXXX..      XX++++..$$$$$",
"$$$  XXXX  ....  ..XXXX..  XXOOOOXX  ..XXXX..      XX++++..$$$$$",
"$$$$$  ++..oooo..XX....XXXXOOOOOOOOXXXX....XX..oooo  ++++  $$$$$",
"$$$$$  ++..oooo..XX....XXXXOOOOOOOOXXXX....XX..oooo  ++++  $$$$$",
"$$$$$..++oo    XX..XX####XXOOOOOOOOXX####XX..XX    oo    $$$$$$$",
"$$$$$..++oo    XX..XX####XXOOOOOOOOXX####XX..XX    oo    $$$$$$$",
"$$$$$$$..  ++  ..++..##  ##XXOOOOXX##  ##..++..  ....$$$$$$$$$$$",
"$$$$$$$..  ++  ..++..##  ##XXOOOOXX##  ##..++..  ....$$$$$$$$$$$",
"$$$$$$$  @@..oo..++@@..####XXOOOOXX####..@@++..++@@..$$$$$$$$$$$",
"$$$$$$$  @@..oo..++@@..####XXOOOOXX####..@@++..++@@..$$$$$$$$$$$",
"$$$$$$$  ++  ..oo..@@++@@OOOOOOOOOOOO@@++@@..oo..++  ..$$$$$$$$$",
"$$$$$$$  ++  ..oo..@@++@@OOOOOOOOOOOO@@++@@..oo..++  ..$$$$$$$$$",
"$$$$$....++  ..oo  ++++++@@@@++++@@@@++++++    ++  oooo..$$$$$$$",
"$$$$$....++  ..oo  ++++++@@@@++++@@@@++++++    ++  oooo..$$$$$$$",
"$$$..++++  $$....$$  ++++++        ++++++  $$  ++++  ....$$$$$$$",
"$$$..++++  $$....$$  ++++++        ++++++  $$  ++++  ....$$$$$$$",
"$$$      $$$$$$$$$$$$      $$$$$$$$      $$$$$$      $$$$$$$$$$$",
"$$$      $$$$$$$$$$$$      $$$$$$$$      $$$$$$      $$$$$$$$$$$",
"$$$$$$$$$$$$$$$$$$$$$$$$$$$$$$$$$$$$$$$$$$$$$$$$$$$$$$$$$$$$$$$$",
"$$$$$$$$$$$$$$$$$$$$$$$$$$$$$$$$$$$$$$$$$$$$$$$$$$$$$$$$$$$$$$$$",
"$$$$$$$$$$$$$$$$$$$$$$$$$$$$$$$$$$$$$$$$$$$$$$$$$$$$$$$$$$$$$$$$",
"$$$$$$$$$$$$$$$$$$$$$$$$$$$$$$$$$$$$$$$$$$$$$$$$$$$$$$$$$$$$$$$$",
"$$$$$$$$$$$$$$$$$$$$$$$$$$$$$$$$$$$$$$$$$$$$$$$$$$$$$$$$$$$$$$$$",
"$$$$$$$$$$$$$$$$$$$$$$$$$$$$$$$$$$$$$$$$$$$$$$$$$$$$$$$$$$$$$$$$",
"$$$$$$$$$$$$$$$$$$$$$$$$$$$$$$$$$$$$$$$$$$$$$$$$$$$$$$$$$$$$$$$$",
"$$$$$$$$$$$$$$$$$$$$$$$$$$$$$$$$$$$$$$$$$$$$$$$$$$$$$$$$$$$$$$$$",
"$$$$$$$$$$$$$$$$$$$$$$$$$$$$$$$$$$$$$$$$$$$$$$$$$$$$$$$$$$$$$$$$",
"$$$$$$$$$$$$$$$$$$$$$$$$$$$$$$$$$$$$$$$$$$$$$$$$$$$$$$$$$$$$$$$$",
"$$$$$$$$$$$$$$$$$$$$$$$$$$$$$$$$$$$$$$$$$$$$$$$$$$$$$$$$$$$$$$$$"
};
