/* XPM */
static char *result[] = {
/* columns rows colors chars-per-pixel */
"64 64 9 1 ",
"  c black",
". c #402828",
"X c #A84038",
"o c #D86830",
"O c #A08050",
"+ c #B09868",
"@ c #E0C098",
"# c #E8E8F8",
"$ c None",
/* pixels */
"$$$$$$$$$$$$$$$$$$$$$$$$$$$$$$$$$$$$$$$$$$$$$$$$$$$$$$$$$$$$$$$$",
"$$$$$$$$$$$$$$$$$$$$$$$$$$$$$$$$$$$$$$$$$$$$$$$$$$$$$$$$$$$$$$$$",
"$$$$$$$$$$$$$$$$$$$$$$$$$$$$$$$$$$$$$$$$$$$$$$$$$$$$$$$$$$$$$$$$",
"$$$$$$$$$$$$$$$$$$$$$$$$$$$$$$$$$$$$$$$$$$$$$$$$$$$$$$$$$$$$$$$$",
"$$$$$$$$$$$$$$$$$$$$$$$$$$$$$$$$$$$$$$$$$$$$$$$$$$$$$$$$$$$$$$$$",
"$$$$$$$$$$$$$$$$$$$$$$$$$$$$$$$$$$$$$$$$$$$$$$$$$$$$$$$$$$$$$$$$",
"$$$$$$$$$$$$$$$$$$$$$$$$$$$$$$$$$$$$$$$$$$$$$$$$$$$$$$$$$$$$$$$$",
"$$$$$$$$$$$$$$$$$$$$$$$$$$$$$$$$$$$$$$$$$$$$$$$$$$$$$$$$$$$$$$$$",
"$$$$$$$$$$$$$$$$$$$$$$$$$$$$$$$$$$$$$$$$$$$$$$$$$$$$$$$$$$$$$$$$",
"$$$$$$$$$$$$$$$$$$$$$$$$$$$$$$$$$$$$$$$$$$$$$$$$$$$$$$$$$$$$$$$$",
"$$$$$$$$$$$$$$$$$        $$$$$$$$$$$$$$$$$$$$$$$$$$$$$$$$$$$$$$$",
"$$$$$$$$$$$$$$$$$        $$$$$$$$$$$$$$$$$$$$$$$$$$$$$$$$$$$$$$$",
"$$$$$$$$$$$$$$$  oooooooo  $$$$$$$$$$$$$$$$$$$$$$$$$$$$$$$$$$$$$",
"$$$$$$$$$$$$$$$  oooooooo  $$$$$$$$$$$$$$$$$$$$$$$$$$$$$$$$$$$$$",
"$$$$$$$$$$$$$  oooooooooooo  $$$$$$$$$$$$$$$$$$$$$$$$$$$$$$$$$$$",
"$$$$$$$$$$$$$  oooooooooooo  $$$$$$$$$$$$$$$$$$$$$$$$$$$$$$$$$$$",
"$$$$$$$$$$$$$  oooooooooooo  $$$$$$$$$$$$$$$$$$$$$$$$$$$$$$$$$$$",
"$$$$$$$$$$$$$  oooooooooooo  $$$$$$$$$$$$$$$$$$$$$$$$$$$$$$$$$$$",
"$$$$$$$$$$$$$  oooooooooooooo  $$..  $$$$$$$$$$$$$$$$$$$$$$$$$$$",
"$$$$$$$$$$$$$  oooooooooooooo  $$..  $$$$$$$$$$$$$$$$$$$$$$$$$$$",
"$$$$$$$$$$$$$$$    XXoooooooo  ..oo  $$$$$$$$$$$$$$$$$$$$$$$$$$$",
"$$$$$$$$$$$$$$$    XXoooooooo  ..oo  $$$$$$$$$$$$$$$$$$$$$$$$$$$",
"$$$$$$$$$$$$$$$$$    XXooooXX  ..oo  ..  $$$$$$$$$$$$$$$$$$$$$$$",
"$$$$$$$$$$$$$$$$$    XXooooXX  ..oo  ..  $$$$$$$$$$$$$$$$$$$$$$$",
"$$$$$$$$$$$$$$$$$    XXXXXXXXXX  XX..oo  $$$$$$$$$$$$$$$$$$$$$$$",
"$$$$$$$$$$$$$$$$$    XXXXXXXXXX  XX..oo  $$$$$$$$$$$$$$$$$$$$$$$",
"$$$$$$$$$$$$$$$      XXXXXXXXXX  ..ooXX  $$$$$$$$$$$$$$$$$$$$$$$",
"$$$$$$$$$$$$$$$      XXXXXXXXXX  ..ooXX  $$$$$$$$$$$$$$$$$$$$$$$",
"$$$$$$$$$$$$$$$  oo....XXXXXXXX  ooXX  ..$$$$$$$$$$$$$$$$$$$$$$$",
"$$$$$$$$$$$$$$$  oo....XXXXXXXX  ooXX  ..$$$$$$$$$$$$$$$$$$$$$$$",
"$$$$$$$$$$$$$$$  XXoooo....XX    ....oo  $$$$$$$$$$$$$$$$$$$$$$$",
"$$$$$$$$$$$$$$$  XXoooo....XX    ....oo  $$$$$$$$$$$$$$$$$$$$$$$",
"$$$$$$$$$$$$$$$$$..  XXXXXX..@@@@  ooXX  ..$$$$$$$$$$$$$$$$$$$$$",
"$$$$$$$$$$$$$$$$$..  XXXXXX..@@@@  ooXX  ..$$$$$$$$$$$$$$$$$$$$$",
"$$$$$$$$$$$$$$$..++oo      ..++@@  oo..XX..$$$$$$$$$$$$$$$$$$$$$",
"$$$$$$$$$$$$$$$..++oo      ..++@@  oo..XX..$$$$$$$$$$$$$$$$$$$$$",
"$$$$$$$$$$$$$..++XXXXoooo####..  @@  XXXXXX..$$$$$$$$$$$$$$$$$$$",
"$$$$$$$$$$$$$..++XXXXoooo####..  @@  XXXXXX..$$$$$$$$$$$$$$$$$$$",
"$$$$$$$$$$$$$..@@XXXXXX$$  ####XX  @@  XXXX..$$$$$$$$$$$$$$$$$$$",
"$$$$$$$$$$$$$..@@XXXXXX$$  ####XX  @@  XXXX..$$$$$$$$$$$$$$$$$$$",
"$$$$$$$$$$$$$..@@@@XX@@XX$$$$..XXXX  ++    ..$$$$$$$$$$$$$$$$$$$",
"$$$$$$$$$$$$$..@@@@XX@@XX$$$$..XXXX  ++    ..$$$$$$$$$$$$$$$$$$$",
"$$$$$$$$$$$$$$$  ++++++@@....@@..XX  ..  ++@@  $$$$$$$$$$$$$$$$$",
"$$$$$$$$$$$$$$$  ++++++@@....@@..XX  ..  ++@@  $$$$$$$$$$$$$$$$$",
"$$$$$$$$$$$$$$$$$  ++++++++@@++++..@@  OO..++  $$$$$$$$$$$$$$$$$",
"$$$$$$$$$$$$$$$$$  ++++++++@@++++..@@  OO..++  $$$$$$$$$$$$$$$$$",
"$$$$$$$$$$$$$$$$$$$    ++++++++++  ++      ++....$$$$$$$$$$$$$$$",
"$$$$$$$$$$$$$$$$$$$    ++++++++++  ++      ++....$$$$$$$$$$$$$$$",
"$$$$$$$$$$$$$$$$$$$$$$$    ....    ++  $$$$  ++++..$$$$$$$$$$$$$",
"$$$$$$$$$$$$$$$$$$$$$$$    ....    ++  $$$$  ++++..$$$$$$$$$$$$$",
"$$$$$$$$$$$$$$$$$$$$$$$$$$$$$  ++++  $$$$$$$$      $$$$$$$$$$$$$",
"$$$$$$$$$$$$$$$$$$$$$$$$$$$$$  ++++  $$$$$$$$      $$$$$$$$$$$$$",
"$$$$$$$$$$$$$$$$$$$$$$$$$$$$$      $$$$$$$$$$$$$$$$$$$$$$$$$$$$$",
"$$$$$$$$$$$$$$$$$$$$$$$$$$$$$      $$$$$$$$$$$$$$$$$$$$$$$$$$$$$",
"$$$$$$$$$$$$$$$$$$$$$$$$$$$$$$$$$$$$$$$$$$$$$$$$$$$$$$$$$$$$$$$$",
"$$$$$$$$$$$$$$$$$$$$$$$$$$$$$$$$$$$$$$$$$$$$$$$$$$$$$$$$$$$$$$$$",
"$$$$$$$$$$$$$$$$$$$$$$$$$$$$$$$$$$$$$$$$$$$$$$$$$$$$$$$$$$$$$$$$",
"$$$$$$$$$$$$$$$$$$$$$$$$$$$$$$$$$$$$$$$$$$$$$$$$$$$$$$$$$$$$$$$$",
"$$$$$$$$$$$$$$$$$$$$$$$$$$$$$$$$$$$$$$$$$$$$$$$$$$$$$$$$$$$$$$$$",
"$$$$$$$$$$$$$$$$$$$$$$$$$$$$$$$$$$$$$$$$$$$$$$$$$$$$$$$$$$$$$$$$",
"$$$$$$$$$$$$$$$$$$$$$$$$$$$$$$$$$$$$$$$$$$$$$$$$$$$$$$$$$$$$$$$$",
"$$$$$$$$$$$$$$$$$$$$$$$$$$$$$$$$$$$$$$$$$$$$$$$$$$$$$$$$$$$$$$$$",
"$$$$$$$$$$$$$$$$$$$$$$$$$$$$$$$$$$$$$$$$$$$$$$$$$$$$$$$$$$$$$$$$",
"$$$$$$$$$$$$$$$$$$$$$$$$$$$$$$$$$$$$$$$$$$$$$$$$$$$$$$$$$$$$$$$$"
};
