/* XPM */
static char *result[] = {
/* columns rows colors chars-per-pixel */
"64 64 15 1 ",
"  c black",
". c #682828",
"X c #2A2A5A",
"o c #383878",
"O c #784040",
"+ c #C03838",
"@ c #A87840",
"# c #F86848",
"$ c #C07C64",
"% c #D89070",
"& c #70A0C0",
"* c #F8C090",
"= c #B0B0D0",
"- c #E8E8F8",
"; c None",
/* pixels */
";;;;;;;;;;;;;;;;;;;;;;;;;;;;;;;;;;;;;;;;;;;;;;;;;;;;;;;;;;;;;;;;",
";;;;;;;;;;;;;;;;;;;;;;;;;;;;;;;;;;;;;;;;;;;;;;;;;;;;;;;;;;;;;;;;",
";;;;;;;;;;;;;;;;;;;..........................;;;;;;;;;;;;;;;;;;;",
";;;;;;;;;;;;;;;;...+++####################+++...;;;;;;;;;;;;;;;;",
";;;;;;;;;;;;;;;;...+++####################+++...;;;;;;;;;;;;;;;;",
";;;;;;;;;;;;;;;;...+++####################+++...;;;;;;;;;;;;;;;;",
";;;;;;;;;;;;;;;;...##########################...;;;;;;;;;;;;;;;;",
";;;;;;;;;;;;;;;;...##########################...;;;;;;;;;;;;;;;;",
";;;;;;;;;;;;;;;;...##########################...;;;;;;;;;;;;;;;;",
";;;;;;;;;;;;;;;;...##########################...;;;;;;;;;;;;;;;;",
";;;;;;;;;;;;;...+++##########################+++...;;;;;;;;;;;;;",
";;;;;;;;;;;;;...+++##########################+++...;;;;;;;;;;;;;",
";;;;;;;;;;;;;...+++##########################+++...;;;;;;;;;;;;;",
";;;;;;;;;;;;;   ++++++####################++++++   ;;;;;;;;;;;;;",
";;;;;;;;;;;;;   ++++++####################++++++   ;;;;;;;;;;;;;",
";;;;;;;;;;;;;   ++++++####################++++++   ;;;;;;;;;;;;;",
";;;;;;;;;;;;;   +++++++++++++------+++++++++++++   ;;;;;;;;;;;;;",
";;;;;;;;;;;;;   +++++++++++++------+++++++++++++   ;;;;;;;;;;;;;",
";;;;;;;;;;;;;   +++++++++++++------+++++++++++++   ;;;;;;;;;;;;;",
";;;;;;;;;;   @@@...===++++===++++++===++++===...@@@   ;;;;;;;;;;",
";;;;;;;;;;   @@@...===++++===++++++===++++===...@@@   ;;;;;;;;;;",
";;;;;;;;;;   @@@...===++++===++++++===++++===...@@@   ;;;;;;;;;;",
";;;;;;;;;;   %%%   ooo--------------------ooo   %%%   ;;;;;;;;;;",
";;;;;;;;;;   %%%   ooo--------------------ooo   %%%   ;;;;;;;;;;",
";;;;;;;;;;   %%%   ooo--------------------ooo   %%%   ;;;;;;;;;;",
";;;;;;;;;;   %%%   ooo--------------------ooo   %%%   ;;;;;;;;;;",
";;;;;;;;;;;;;   OOO%%%oooooooooooooooooooo%%%OOO   ;;;;;;;;;;;;;",
";;;;;;;;;;;;;   OOO%%%oooooooooooooooooooo%%%OOO   ;;;;;;;;;;;;;",
";;;;;;;;;;;;;   OOO%%%oooooooooooooooooooo%%%OOO   ;;;;;;;;;;;;;",
";;;;;;;;;;OOO   %%%%%%****   ******   ****%%%%%%   ;;;;;;;;;;;;;",
";;;;;;;;;;OOO   %%%%%%****   ******   ****%%%%%%   ;;;;;;;;;;;;;",
";;;;;;;;;;OOO   %%%%%%****   ******   ****%%%%%%   ;;;;;;;;;;;;;",
";;;;;;;;;;%%%oooOOO%%%%%%%OOO******OOO%%%%%%%OOO;;;;;;;;;;;;;;;;",
";;;;;;;;;;%%%oooOOO%%%%%%%OOO******OOO%%%%%%%OOO;;;;;;;;;;;;;;;;",
";;;;;;;;;;%%%oooOOO%%%%%$$OOO******OOO$$%%%%%OOO;;;;;;;;;;;;;;;;",
";;;;;;;;;;%%%ooo      OOOO$%%%%%%%%%%$OOOO      ;;;;;;;;;;;;;;;;",
";;;;;;;;;;%%%ooo      OOOO$%%%%%%%%%%$OOOO      ;;;;;;;;;;;;;;;;",
";;;;;;;;;;%%%oXX      OOOO%%%%%%%%%%%%OOOO      ;;;;;;;;;;;;;;;;",
";;;;;;;;;;      XXo+++....            ++++oooooo   ;;;;;;;;;;;;;",
";;;;;;;;;;      XXo+++....            ++++oooooo   ;;;;;;;;;;;;;",
";;;;;;;;;;      ooo+++....            ++++oooooo   ;;;;;;;;;;;;;",
";;;;;;;;;;      ooo+++....            ++++oooooo   ;;;;;;;;;;;;;",
";;;;;;;;;;;;;;;;OOO++++++++++======+++OOOO******OOO;;;;;;;;;;;;;",
";;;;;;;;;;;;;;;;OOO++++++++++======+++OOOO******OOO;;;;;;;;;;;;;",
";;;;;;;;;;;;;;;;OOO++++++++++======+++OOOO******OOO;;;;;;;;;;;;;",
";;;;;;;;;;;;;;;;      ++++###------###OOOO%%%%%%OOO;;;;;;;;;;;;;",
";;;;;;;;;;;;;;;;      ++++###------###OOOO%%%%%%OOO;;;;;;;;;;;;;",
";;;;;;;;;;;;;;;;      ++++###------###OOOO%%%%%%OOO;;;;;;;;;;;;;",
";;;;;;;;;;;;;;;;   &&&oooo                OOOOOO;;;;;;;;;;;;;;;;",
";;;;;;;;;;;;;;;;   &&&oooo                OOOOOO;;;;;;;;;;;;;;;;",
";;;;;;;;;;;;;;;;   &&&oooo                OOOOOO;;;;;;;;;;;;;;;;",
";;;;;;;;;;;;;;;;;;;   &&&&&&&ooo      ;;;;;;;;;;;;;;;;;;;;;;;;;;",
";;;;;;;;;;;;;;;;;;;   &&&&&&&ooo      ;;;;;;;;;;;;;;;;;;;;;;;;;;",
";;;;;;;;;;;;;;;;;;;   &&&&&&&ooo      ;;;;;;;;;;;;;;;;;;;;;;;;;;",
";;;;;;;;;;;;;;;;;;;   ooooooo   ;;;;;;;;;;;;;;;;;;;;;;;;;;;;;;;;",
";;;;;;;;;;;;;;;;;;;   ooooooo   ;;;;;;;;;;;;;;;;;;;;;;;;;;;;;;;;",
";;;;;;;;;;;;;;;;;;;   ooooooo   ;;;;;;;;;;;;;;;;;;;;;;;;;;;;;;;;",
";;;;;;;;;;;;;;;;;;;   ooooooo   ;;;;;;;;;;;;;;;;;;;;;;;;;;;;;;;;",
";;;;;;;;;;;;;;;;;;;;;;       ;;;;;;;;;;;;;;;;;;;;;;;;;;;;;;;;;;;",
";;;;;;;;;;;;;;;;;;;;;;       ;;;;;;;;;;;;;;;;;;;;;;;;;;;;;;;;;;;",
";;;;;;;;;;;;;;;;;;;;;;       ;;;;;;;;;;;;;;;;;;;;;;;;;;;;;;;;;;;",
";;;;;;;;;;;;;;;;;;;;;;;;;;;;;;;;;;;;;;;;;;;;;;;;;;;;;;;;;;;;;;;;",
";;;;;;;;;;;;;;;;;;;;;;;;;;;;;;;;;;;;;;;;;;;;;;;;;;;;;;;;;;;;;;;;",
";;;;;;;;;;;;;;;;;;;;;;;;;;;;;;;;;;;;;;;;;;;;;;;;;;;;;;;;;;;;;;;;"
};
