/* XPM */
static char *result[] = {
/* columns rows colors chars-per-pixel */
"64 64 6 1 ",
"  c #581818",
". c #6A2A2A",
"X c #703030",
"o c #805048",
"O c #A87878",
"+ c None",
/* pixels */
"++++++++++++++++++++++++++++++++++++++++++++++++++++++++++++++++",
"++++++++++++++++++++++++++++++++++++++++++++++++++++++++++++++++",
"++++++++++++++++++++++++++++++++++++++++++++++++++++++++++++++++",
"++++++++++++++++++++++++++++++++++++++++++++++++++++++++++++++++",
"++++++++++++++++++++++++++++++++++++++++++++++++++++++++++++++++",
"++++++++++++++++++++++++++++++++++++++++++++++++++++++++++++++++",
"++++++++++++++++++++++++++++++++++++++++++++++++++++++++++++++++",
"++++++++++++++++++++++++++++++++++++++++++++++++++++++++++++++++",
"XXXXXXXXXXXXXXXX++++++++++++++++++++++++++++++++++++++++++++++++",
"XXXXXXXXXXXXXXXX++++++++++++++++++++++++++++++++++++++++++++++++",
"XXXXXXXXXXXXXXXX++++++++++++++++++++++++++++++++++++++++++++++++",
"XXXXXXXXXXXXXXXX++++++++++++++++++++++++++++++++++++++++++++++++",
"XXXXXXXXXXXXXXXX++++++++++++++++++++++++++++++++++++++++++++++++",
"XXXXXXXXXXXXXXXX++++++++++++++++++++++++++++++++++++++++++++++++",
"XXXXXXXXXXXXXXXX++++++++++++++++++++++++++++++++++++++++++++++++",
"XXXXXXXXXXXXXXXX++++++++++++++++++++++++++++++++++++++++++++++++",
"ooooooooXXXXXXXX                ++++++++++++++++++++++++++++++++",
"ooooooooXXXXXXXX                ++++++++++++++++++++++++++++++++",
"ooooooooXXXXXXXX                ++++++++++++++++++++++++++++++++",
"ooooooooXXXXXXXX                ++++++++++++++++++++++++++++++++",
"ooooooooXXXXXXXX                ++++++++++++++++++++++++++++++++",
"ooooooooXXXXXXXX                ++++++++++++++++++++++++++++++++",
"ooooooooXXXXXXXX                ++++++++++++++++++++++++++++++++",
"ooooooooXXXXXXXX                ++++++++++++++++++++++++++++++++",
"oooooooooooooooo        XXXXXXXX        ++++++++++++++++++++++++",
"oooooooooooooooo        XXXXXXXX        ++++++++++++++++++++++++",
"oooooooooooooooo        XXXXXXXX        ++++++++++++++++++++++++",
"oooooooooooooooo        XXXXXXXX        ++++++++++++++++++++++++",
"oooooooooooooooo        XXXXXXXX        ++++++++++++++++++++++++",
"oooooooooooooooo        XXXXXXXX        ++++++++++++++++++++++++",
"oooooooooooooooo        XXXXXXXX        ++++++++++++++++++++++++",
"oooooooooooooooo        XXXXXXXX        ++++++++++++++++++++++++",
"OOOOOOOOXXXXXXXX                                ++++++++++++++++",
"OOOOOOOOXXXXXXXX                                ++++++++++++++++",
"OOOOOOOOXXXXXXXX                                ++++++++++++++++",
"OOOOOOOOXXXXXXXX                                ++++++++++++++++",
"OOOOOOOOXXXXXXXX                                ++++++++++++++++",
"OOOOOOOOXXXXXXXX                                ++++++++++++++++",
"OOOOOOOOXXXXXXXX                                ++++++++++++++++",
"OOOOOOOOXXXXXXXX                                ++++++++++++++++",
"OOOOOOOOXXXXXXXX                XXXXXXXXXXXXXXXX        ++++++++",
"OOOOOOOOXXXXXXXX                XXXXXXXXXXXXXXXX        ++++++++",
"OOOOOOOOXXXXXXXX                XXXXXXXXXXXXXXXX        ++++++++",
"OOOOOOOOXXXXXXXX                XXXXXXXXXXXXXXXX        ++++++++",
"OOOOOOOOXXXXXXXX                XXXXXXXXXXXX....        ++++++++",
"OOOOOOOOXXXXXXXX                XXXXXXXXXXXX....        ++++++++",
"OOOOOOOOXXXXXXXX                XXXXXXXXXXXX....        ++++++++",
"OOOOOOOOXXXXXXXX                XXXXXXXXXXXX....        ++++++++",
"OOOOOOOOOOOOOOOOXXXXXXXX                        ....XXXX++++++++",
"OOOOOOOOOOOOOOOOXXXXXXXX                        ....XXXX++++++++",
"OOOOOOOOOOOOOOOOXXXXXXXX                        ....XXXX++++++++",
"OOOOOOOOOOOOOOOOXXXXXXXX                        ....XXXX++++++++",
"OOOOOOOOOOOOOOOOXXXXXXXX                        XXXXXXXX++++++++",
"OOOOOOOOOOOOOOOOXXXXXXXX                        XXXXXXXX++++++++",
"OOOOOOOOOOOOOOOOXXXXXXXX                        XXXXXXXX++++++++",
"OOOOOOOOOOOOOOOOXXXXXXXX                        XXXXXXXX++++++++",
"OOOOOOOOooooooooXXXXXXXX                        XXXXXXXX        ",
"OOOOOOOOooooooooXXXXXXXX                        XXXXXXXX        ",
"OOOOOOOOooooooooXXXXXXXX                        XXXXXXXX        ",
"OOOOOOOOooooooooXXXXXXXX                        XXXXXXXX        ",
"OOOOOOOOooooooooXXXXXXXX                        XXXXXXXX        ",
"OOOOOOOOooooooooXXXXXXXX                        XXXXXXXX        ",
"OOOOOOOOooooooooXXXXXXXX                        XXXXXXXX        ",
"OOOOOOOOooooooooXXXXXXXX                        XXXXXXXX        "
};
