/* XPM */
static char *result[] = {
/* columns rows colors chars-per-pixel */
"64 64 7 1 ",
"  c #703030",
". c #805048",
"X c #9E6E6C",
"o c #A87878",
"O c #C09890",
"+ c #D0A8A8",
"@ c None",
/* pixels */
"@@@@@@@@@@@@@@@@@@@@@@@@@@@@@@@@@@@@@@@@@@@@@@@@@@@@@@@@@@@@@@@@",
"@@@@@@@@@@@@@@@@@@@@@@@@@@@@@@@@@@@@@@@@@@@@@@@@@@@@@@@@@@@@@@@@",
"@@@@@@@@@@@@@@@@@@@@@@@@@@@@@@@@@@@@@@@@@@@@@@@@@@@@@@@@@@@@@@@@",
"@@@@@@@@@@@@@@@@@@@@@@@@@@@@@@@@@@@@@@@@@@@@@@@@@@@@@@@@@@@@@@@@",
"@@@@@@@@@@@@@@@@@@@@@@@@@@@@@@@@@@@@@@@@@@@@@@@@@@@@@@@@@@@@@@@@",
"@@@@@@@@@@@@@@@@@@@@@@@@@@@@@@@@@@@@@@@@@@@@@@@@@@@@@@@@@@@@@@@@",
"@@@@@@@@@@@@@@@@@@@@@@@@@@@@@@@@@@@@@@@@@@@@@@@@@@@@@@@@@@@@@@@@",
"@@@@@@@@@@@@@@@@@@@@@@@@@@@@@@@@@@@@@@@@@@@@@@@@@@@@@@@@@@@@@@@@",
"@@@@@@@@@@@@@@@@@@@@@@@@@@@@@@@@@@@@@@@@@@@@@@@@@@@@@@@@@@@@@@@@",
"@@@@@@@@@@@@@@@@@@@@@@@@@@@@@@@@@@@@@@@@@@@@@@@@@...............",
"@@@@@@@@@@@@@@@@@@@@@@@@@@@@@@@@@@@@@@@@@@@@@@@@@...............",
"@@@@@@@@@@@@@@@@@@@@@@@@@@@@@@@@@@@@@@@@@@@@@@@@@...............",
"@@@@@@@@@@@@@@@@@@@@@@@@@@@@@@@@@@@@@@@@@@@@@@@@@...............",
"@@@@@@@@@@@@@@@@@@@@@@@@@@@@@@@@@@@@@@@@@@@@@@@@@...............",
"@@@@@@@@@@@@@@@@@@@@@@@@@@@@@@@@@@@@@@@@@@@@@@@@@...............",
"@@@@@@@@@@@@@@@@@@@@@@@@@@@@@@@@@@@@@@@@@@@@@@@@@...............",
"@@@@@@@@@@@@@@@@@@@@@@@@@@@@@@@@@@@@@@@@@@@@@@@@@OOOOOOOOOOOOOOO",
"@@@@@@@@@@@@@@@@@@@@@@@@@@@@@@@@@@@@@@@@@.......OOOOOOOOOOOOOOOO",
"@@@@@@@@@@@@@@@@@@@@@@@@@@@@@@@@@@@@@@@@@.......OOOOOOOOOOOOOOOO",
"@@@@@@@@@@@@@@@@@@@@@@@@@@@@@@@@@@@@@@@@@.......OOOOOOOOOOOOOOOO",
"@@@@@@@@@@@@@@@@@@@@@@@@@@@@@@@@@@@@@@@@@.......OOOOOOOOOOOOOOOO",
"@@@@@@@@@@@@@@@@@@@@@@@@@@@@@@@@@@@@@@@@@.......OOOOOOOOOOOOOOOO",
"@@@@@@@@@@@@@@@@@@@@@@@@@@@@@@@@@@@@@@@@@.......OOOOOOOOOOOOOOOO",
"@@@@@@@@@@@@@@@@@@@@@@@@@@@@@@@@@@@@@@@@@.......OOOOOOOOOOOOOOOO",
"@@@@@@@@@@@@@@@@@@@@@@@@@@@@@@@@@@@@@@@@@ooooooooooooooooooooooo",
"@@@@@@@@@@@@@@@@@@@@@@@@@@@@@@@@@.......oooooooooooooooooooooooo",
"@@@@@@@@@@@@@@@@@@@@@@@@@@@@@@@@@.......oooooooooooooooooooooooo",
"@@@@@@@@@@@@@@@@@@@@@@@@@@@@@@@@@.......oooooooooooooooooooooooo",
"@@@@@@@@@@@@@@@@@@@@@@@@@@@@@@@@@.......XXXXoooooooooooooooooooo",
"@@@@@@@@@@@@@@@@@@@@@@@@@@@@@@@@@.......XXXXoooooooooooooooooooo",
"@@@@@@@@@@@@@@@@@@@@@@@@@@@@@@@@@.......XXXXoooooooooooooooooooo",
"@@@@@@@@@@@@@@@@@@@@@@@@@@@@@@@@@.......XXXXoooooooooooooooooooo",
"@@@@@@@@@@@@@@@@@@@@@@@@@@@@@@@@@oooXXXX........++++++++++++++++",
"@@@@@@@@@@@@@@@@@@@@@@@@@.......ooooXXXX........++++++++++++++++",
"@@@@@@@@@@@@@@@@@@@@@@@@@.......ooooXXXX........++++++++++++++++",
"@@@@@@@@@@@@@@@@@@@@@@@@@.......ooooXXXX........++++++++++++++++",
"@@@@@@@@@@@@@@@@@@@@@@@@@.......XXXXoooo........++++++++++++++++",
"@@@@@@@@@@@@@@@@@@@@@@@@@.......XXXXoooo........++++++++++++++++",
"@@@@@@@@@@@@@@@@@@@@@@@@@.......XXXXoooo........++++++++++++++++",
"@@@@@@@@@@@@@@@@@@@@@@@@@.......XXXXoooo........++++++++++++++++",
"@@@@@@@@@@@@@@@@@@@@@@@@@oooXXXX........++++++++++++++++OOOOOOOO",
"@@@@@@@@@@@@@@@@@       ooooXXXX........++++++++++++++++OOOOOOOO",
"@@@@@@@@@@@@@@@@@       ooooXXXX........++++++++++++++++OOOOOOOO",
"@@@@@@@@@@@@@@@@@       ooooXXXX........++++++++++++++++OOOOOOOO",
"@@@@@@@@@@@@@@@@@       ooooXXXX........++++++++++++++++OOOOOOOO",
"@@@@@@@@@@@@@@@@@       ooooXXXX........++++++++++++++++OOOOOOOO",
"@@@@@@@@@@@@@@@@@       ooooXXXX........++++++++++++++++OOOOOOOO",
"@@@@@@@@@@@@@@@@@       ooooXXXX........++++++++++++++++OOOOOOOO",
"@@@@@@@@@@@@@@@@@...............XXXXooooOOOOOOOOOOOOOOOOOOOOOOOO",
"@@@@@@@@@@@@@@@@@...............XXXXooooOOOOOOOOOOOOOOOOOOOOOOOO",
"@@@@@@@@@@@@@@@@@...............XXXXooooOOOOOOOOOOOOOOOOOOOOOOOO",
"@@@@@@@@@@@@@@@@@...............XXXXooooOOOOOOOOOOOOOOOOOOOOOOOO",
"@@@@@@@@@@@@@@@@@...............ooooooooOOOOOOOOOOOOOOOOOOOOOOOO",
"@@@@@@@@@@@@@@@@@...............ooooooooOOOOOOOOOOOOOOOOOOOOOOOO",
"@@@@@@@@@@@@@@@@@...............ooooooooOOOOOOOOOOOOOOOOOOOOOOOO",
"@@@@@@@@@@@@@@@@@...............ooooooooOOOOOOOOOOOOOOOOOOOOOOOO",
"@@@@@@@@@@@@@@@@@.......ooooooooOOOOOOOOOOOOOOOOOOOOOOOOoooooooo",
"@@@@@@@@@       ........ooooooooOOOOOOOOOOOOOOOOOOOOOOOOoooooooo",
"@@@@@@@@@       ........ooooooooOOOOOOOOOOOOOOOOOOOOOOOOoooooooo",
"@@@@@@@@@       ........ooooooooOOOOOOOOOOOOOOOOOOOOOOOOoooooooo",
"@@@@@@@@@       ........ooooooooOOOOOOOOOOOOOOOOOOOOOOOOoooooooo",
"@@@@@@@@@       ........ooooooooOOOOOOOOOOOOOOOOOOOOOOOOoooooooo",
"@@@@@@@@@       ........ooooooooOOOOOOOOOOOOOOOOOOOOOOOOoooooooo",
"@@@@@@@@@       ........ooooooooOOOOOOOOOOOOOOOOOOOOOOOOoooooooo"
};
