/* XPM */
static char *result[] = {
/* columns rows colors chars-per-pixel */
"64 64 9 1 ",
"  c black",
". c #402828",
"X c #A84038",
"o c #D86830",
"O c #A08050",
"+ c #B09868",
"@ c #E0C098",
"# c #E8E8F8",
"$ c None",
/* pixels */
"$$$$$$$$$$$$$$$$$$$$$$$$$$$$$$$$$$$$$$$$$$$$$$$$$$$$$$$$$$$$$$$$",
"$$$$$$$$$$$$$$$$$$$$$$$$$$$$$$$$$$$$$$$$$$$$$$$$$$$$$$$$$$$$$$$$",
"$$$$$$$$$$$$$$$$$$$$$$$$$$$$$$$$$$$$$$$$$$$$$$$$$$$$$$$$$$$$$$$$",
"$$$$$$$$$$$$$$$$$$$$$$$$$$$$$$$$$$$$$$$$$$$$$$$$$$$$$$$$$$$$$$$$",
"$$$$$$$$$$$$$$$$$$$$$$$$$$$$$$$$$$$$$$$$$$$$$$$$$$$$$$$$$$$$$$$$",
"$$$$$$$$$$$$$$$$$$$$$$$$$$$$$$$$$$$$$$$$$$$$$$$$$$$$$$$$$$$$$$$$",
"$$$$$$$$$$$$$$$$$$$$$$$$$$$$$$$$$$$$$$$$$$$$$$$$$$$$$$$$$$$$$$$$",
"$$$$$$$$$$$$$$$$$$$$$$$$$$$$$$$$$$$$$$$$$$$$$$$$$$$$$$$$$$$$$$$$",
"$$$$$$$$$$$$$$$$$$$$$$$$$$$$$$$$$$$$$$$$$$$$$$$$$$$$$$$$$$$$$$$$",
"$$$$$$$$$$$$$$$$$$$$$$$$$$$$$$$$$$$$$$$$$$$$$$$$$$$$$$$$$$$$$$$$",
"$$$$$$$$$$$$$$$$$$$$$$$$$$$$$$$$$$$$$$$$$$$$$        $$$$$$$$$$$",
"$$$$$$$$$$$$$$$$$$$$$$$$$$$$$$$$$$$$$$$$$$$$$        $$$$$$$$$$$",
"$$$$$$$$$$$$$$$$$$$$$$$$$$$$$$$$$$$$$$$$$    oooooooo  $$$$$$$$$",
"$$$$$$$$$$$$$$$$$$$$$$$$$$$$$$$$$$$$$$$$$    oooooooo  $$$$$$$$$",
"$$$$$$$$$$$$$$$$$$$$$$$$$$$$$$$$$$$$$$$  oooooooooooooo  $$$$$$$",
"$$$$$$$$$$$$$$$$$$$$$$$$$$$$$$$$$$$$$$$  oooooooooooooo  $$$$$$$",
"$$$$$$$$$$$$$$$$$$$$$$$$$$$$$$$$$$$$$$$        ooooooooXX  $$$$$",
"$$$$$$$$$$$$$$$$$$$$$$$$$$$$$$$$$$$$$$$        ooooooooXX  $$$$$",
"$$$$$$$$$$$$$$$$$$$$$$$$$$$$$$$$$$$$$$$$$        oooooooo  $$$$$",
"$$$$$$$$$$$$$$$$$$$$$$$$$$$$$$$$$$$$$$$$$        oooooooo  $$$$$",
"$$$$$$$$$$$$$$$$$$$$$$$$$..  $$$$  ..$$$$$$$$    ..ooooooXX  $$$",
"$$$$$$$$$$$$$$$$$$$$$$$$$..  $$$$  ..$$$$$$$$    ..ooooooXX  $$$",
"$$$$$$$$$$$$$$$$$$$$$$$$$  oo  ..oo  $$$$$$$$$$    ooooooXX  $$$",
"$$$$$$$$$$$$$$$$$$$$$$$$$  oo  ..oo  $$$$$$$$$$    ooooooXX  $$$",
"$$$$$$$$$        $$....$$  oo  ..oo  $$..          ..ooXXXX  $$$",
"$$$$$$$$$        $$....$$  oo  ..oo  $$..          ..ooXXXX  $$$",
"$$$$$$$  ooooXX  $$..oo..  XX    XX  ..oo  oo        XXXXXX  $$$",
"$$$$$$$  ooooXX  $$..oo..  XX    XX  ..oo  oo        XXXXXX  $$$",
"$$$$$  oooooo  $$$$..oo..  XX....XX  ..oo  ooXX      XXXXXX  $$$",
"$$$$$  oooooo  $$$$..oo..  XX....XX  ..oo  ooXX      XXXXXX  $$$",
"$$$$$  oooo..  $$$$..XX..XXXXXXXXXXXX..XX..XXXXXXXX..XXXX  $$$$$",
"$$$$$  oooo..  $$$$..XX..XXXXXXXXXXXX..XX..XXXXXXXX..XXXX  $$$$$",
"$$$  oooooo..  $$$$..XXXXXXXX    XXXXXXXXXX  XXXXXX..XX....$$$$$",
"$$$  oooooo..  $$$$..XXXXXXXX    XXXXXXXXXX  XXXXXX..XX....$$$$$",
"$$$  oooo..XX  $$..XXXXXXXX  oooo  XXXXXXXX..      XX++++..$$$$$",
"$$$  oooo..XX  $$..XXXXXXXX  oooo  XXXXXXXX..      XX++++..$$$$$",
"$$$  ooXXXX      ..XXXX..  XXooooXX  ..XXXXXX....    ++++  $$$$$",
"$$$  ooXXXX      ..XXXX..  XXooooXX  ..XXXXXX....    ++++  $$$$$",
"$$$  XXXX..  OO..XX....XXXXooooooooXXXX....XX..OOOOOO    $$$$$$$",
"$$$  XXXX..  OO..XX....XXXXooooooooXXXX....XX..OOOOOO    $$$$$$$",
"$$$$$..++..OO  XX..XX####XXooooooooXX####XX..XX      $$$$$$$$$$$",
"$$$$$..++..OO  XX..XX####XXooooooooXX####XX..XX      $$$$$$$$$$$",
"$$$$$..OO      ..++..##  ##XXooooXX##  ##..++..  ++  $$$$$$$$$$$",
"$$$$$..OO      ..++..##  ##XXooooXX##  ##..++..  ++  $$$$$$$$$$$",
"$$$$$$$  @@..OO..++@@..####XXooooXX####..@@++..OO..@@  $$$$$$$$$",
"$$$$$$$  @@..OO..++@@..####XXooooXX####..@@++..OO..@@  $$$$$$$$$",
"$$$$$$$..++  ..OO..@@++@@oooooooooooo@@++@@..OO    ++  $$$$$$$$$",
"$$$$$$$..++  ..OO..@@++@@oooooooooooo@@++@@..OO    ++  $$$$$$$$$",
"$$$$$..OO  ++  ..  ++++++@@@@++++@@@@++++++    OO  ++....$$$$$$$",
"$$$$$..OO  ++  ..  ++++++@@@@++++@@@@++++++    OO  ++....$$$$$$$",
"$$$$$..  ++++  $$$$  ++++++        ++++++  $$$$....  ++++..$$$$$",
"$$$$$..  ++++  $$$$  ++++++        ++++++  $$$$....  ++++..$$$$$",
"$$$$$$$      $$$$$$$$      $$$$$$$$      $$$$$$$$$$$$      $$$$$",
"$$$$$$$      $$$$$$$$      $$$$$$$$      $$$$$$$$$$$$      $$$$$",
"$$$$$$$$$$$$$$$$$$$$$$$$$$$$$$$$$$$$$$$$$$$$$$$$$$$$$$$$$$$$$$$$",
"$$$$$$$$$$$$$$$$$$$$$$$$$$$$$$$$$$$$$$$$$$$$$$$$$$$$$$$$$$$$$$$$",
"$$$$$$$$$$$$$$$$$$$$$$$$$$$$$$$$$$$$$$$$$$$$$$$$$$$$$$$$$$$$$$$$",
"$$$$$$$$$$$$$$$$$$$$$$$$$$$$$$$$$$$$$$$$$$$$$$$$$$$$$$$$$$$$$$$$",
"$$$$$$$$$$$$$$$$$$$$$$$$$$$$$$$$$$$$$$$$$$$$$$$$$$$$$$$$$$$$$$$$",
"$$$$$$$$$$$$$$$$$$$$$$$$$$$$$$$$$$$$$$$$$$$$$$$$$$$$$$$$$$$$$$$$",
"$$$$$$$$$$$$$$$$$$$$$$$$$$$$$$$$$$$$$$$$$$$$$$$$$$$$$$$$$$$$$$$$",
"$$$$$$$$$$$$$$$$$$$$$$$$$$$$$$$$$$$$$$$$$$$$$$$$$$$$$$$$$$$$$$$$",
"$$$$$$$$$$$$$$$$$$$$$$$$$$$$$$$$$$$$$$$$$$$$$$$$$$$$$$$$$$$$$$$$",
"$$$$$$$$$$$$$$$$$$$$$$$$$$$$$$$$$$$$$$$$$$$$$$$$$$$$$$$$$$$$$$$$"
};
