/* XPM */
static char *result[] = {
/* columns rows colors chars-per-pixel */
"64 64 244 2 ",
"   c #010101",
".  c #0A0503",
"X  c #0C0906",
"o  c #0D0B0A",
"O  c #090708",
"+  c #120D0A",
"@  c #180A06",
"#  c #15120D",
"$  c #1B120E",
"%  c #1B1412",
"&  c #181615",
"*  c #0C0E10",
"=  c #240C0C",
"-  c #2A130A",
";  c #3A1B0A",
":  c #241A15",
">  c #2A1E1A",
",  c #251916",
"<  c #331815",
"1  c #2C211C",
"2  c #2A2216",
"3  c #32221D",
"4  c #38291B",
"5  c #3D311F",
"6  c #1E1F22",
"7  c #3C2B25",
"8  c #392824",
"9  c #3C352B",
"0  c #3C3232",
"q  c #363631",
"w  c #2F2E33",
"e  c #4E1D1A",
"r  c #572A0E",
"t  c #47241B",
"y  c #57251A",
"u  c #462C15",
"i  c #6C330D",
"p  c #6C3311",
"a  c #753813",
"s  c #683012",
"d  c #422A26",
"f  c #452D2A",
"g  c #4A2D28",
"h  c #5C2C26",
"j  c #45322D",
"k  c #4B332D",
"l  c #483925",
"z  c #593B2F",
"x  c #53382C",
"c  c #443432",
"v  c #4B3631",
"b  c #443B33",
"n  c #4D3931",
"m  c #4C3B38",
"M  c #523931",
"N  c #5B3C34",
"B  c #533632",
"V  c #672722",
"C  c #643E2D",
"Z  c #663729",
"A  c #7B3826",
"S  c #673A33",
"D  c #7C3C35",
"F  c #753C34",
"G  c #7A2D29",
"H  c #56452B",
"J  c #5B4136",
"K  c #584438",
"L  c #5E523E",
"P  c #4D4236",
"I  c #6A412D",
"U  c #67412A",
"Y  c #74432C",
"T  c #7B4629",
"R  c #654B39",
"E  c #764834",
"W  c #6A5438",
"Q  c #74593C",
"!  c #7B623E",
"~  c #7F421E",
"^  c #393B45",
"/  c #4A4A52",
"(  c #695844",
")  c #775D44",
"_  c #664F41",
"`  c #6B604B",
"'  c #7A6449",
"]  c #7E6751",
"[  c #6D6550",
"{  c #6E6A6A",
"}  c #912F17",
"|  c #9E2921",
" . c #843C34",
".. c #8C3C36",
"X. c #873C37",
"o. c #993A35",
"O. c #88372D",
"+. c #A12E25",
"@. c #A23127",
"#. c #A3332A",
"$. c #A9382B",
"%. c #A63D35",
"&. c #AA3E35",
"*. c #A53D39",
"=. c #AA3E3A",
"-. c #A63433",
";. c #B43D3C",
":. c #B3372C",
">. c #961408",
",. c #C33D00",
"<. c #C03C3B",
"1. c #954717",
"2. c #8B4318",
"3. c #B2551B",
"4. c #854929",
"5. c #894A29",
"6. c #954F26",
"7. c #924B2B",
"8. c #99532A",
"9. c #834237",
"0. c #984237",
"q. c #815232",
"w. c #A94A2D",
"e. c #B74B29",
"r. c #A85424",
"t. c #B45922",
"y. c #BC5C21",
"u. c #BC5429",
"i. c #BD5625",
"p. c #AB4335",
"a. c #A64038",
"s. c #A84038",
"d. c #A74132",
"f. c #B4423A",
"g. c #BA443B",
"h. c #B64A33",
"j. c #A0513D",
"k. c #AD713C",
"l. c #BF662A",
"z. c #D65B0A",
"x. c #CB5E1B",
"c. c #C85B18",
"v. c #D25C13",
"b. c #C8500B",
"n. c #CC621E",
"m. c #C9631D",
"M. c #D2641E",
"N. c #D8681C",
"B. c #E46D1F",
"V. c #C45E22",
"C. c #C8592A",
"Z. c #C2493C",
"A. c #C05033",
"S. c #C76020",
"D. c #CA6120",
"F. c #C66A2C",
"G. c #D36422",
"H. c #DB6922",
"J. c #D86720",
"K. c #C66A32",
"L. c #CC773B",
"P. c #E66D21",
"I. c #EB7123",
"U. c #F37323",
"Y. c #FA7926",
"T. c #BA4144",
"R. c #B0524B",
"E. c #846844",
"W. c #8D7046",
"Q. c #987A4C",
"!. c #826953",
"~. c #89745A",
"^. c #997650",
"/. c #B3615E",
"(. c #B17049",
"). c #957E61",
"_. c #B76866",
"`. c #B97776",
"'. c #BC716E",
"]. c #93514C",
"[. c #CA4944",
"{. c #D84E45",
"}. c #CA7E4C",
"|. c #C07953",
" X c #A8854E",
".X c #A58552",
"XX c #AB8A55",
"oX c #AA8B58",
"OX c #B68956",
"+X c #BA955B",
"@X c #A99158",
"#X c #958165",
"$X c #AC9267",
"%X c #B69866",
"&X c #AC9775",
"*X c #B69D75",
"=X c #A2886B",
"-X c #BCA175",
";X c #BDA47D",
":X c #C28858",
">X c #D78150",
",X c #C59A65",
"<X c #C4A87B",
"1X c #CEA86A",
"2X c #797A81",
"3X c #B3908C",
"4X c #BEAC84",
"5X c #A6A2AD",
"6X c #A7ACB8",
"7X c #CA8D8C",
"8X c #C3AB83",
"9X c #CAAE83",
"0X c #CBB287",
"qX c #CBB48B",
"wX c #CAB68C",
"eX c #CEBB92",
"rX c #CAB89E",
"tX c #D8BB95",
"yX c #D4B48E",
"uX c #CEA4A9",
"iX c #D3ABA8",
"pX c #DCB2A2",
"aX c #D4B1B5",
"sX c #D0B5AA",
"dX c #CA9FA2",
"fX c #D8C398",
"gX c #CFC198",
"hX c #E4C99A",
"jX c #F4D6AC",
"kX c #EAD5A5",
"lX c #A3B3C2",
"zX c #D8CCD0",
"xX c #E8DADD",
"cX c #D8DCE8",
"vX c #E7DDE5",
"bX c #E7E4EA",
"nX c #E9E9F5",
"mX c #EFFAFF",
"MX c #F4FEFF",
"NX c #FDFFFF",
"BX c #F8F5F6",
"VX c #F2E6E7",
"CX c #E8E5D9",
"ZX c None",
/* pixels */
"ZXZXZXZXZXZXZXZXZXZXZXZXZXZXZXZXZXZXZXZXZXZXZXZXZXZXZXZXZXZXZXZXZXZXZXZXZXZXZXZXZXZXZXZXM n n M n M M k M v M ZXZXZXZXZXZXZXZXZX",
"ZXZXZXZXZXZXZXZXZXZXZXZXZXZXZXZXZXZXZXZXZXZXZXZXZXZXZXZXZXZXZXZXZXZXZXZXZXZXZXZXZXZXZXZXM M v v k v v v v v v ZXZXZXZXZXZXZXZXZX",
"ZXZXZXZXZXZXZXZXZXZXZXZXZXZXZXZXZXZXZXZXZXZXZXZXZXZXZXZXZXZXZXZXZXZXZXZXZXZXZXZXZXZXZXZXk M k c c c c c c c c ZXZXZXZXZXZXZXZXZX",
"ZXZXZXZXZXZXZXZXZXZXZXZXZXZXZXZXZXZXZXZXZXZXZXZXZXZXZXZXZXZXZXZXZXZXZXZXZXZXZXZXZXZXZXZXM M k v c v v v v v v ZXZXZXZXZXZXZXZXZX",
"ZXZXZXZXZXZXZXZXZXZXZXZXZXZXZXZXZXZXZXZXZXZXZXZXZXZXZXZXZXZXZXZXZXZXZXZXZXZXZXZXZXZXZXZXn k N U U C C C U C C ZXZXZXZXZXZXZXZXZX",
"ZXZXZXZXZXZXZXZXZXM M M M M M M M M M k ZXZXZXZXZXZXZXZXZXZXZXZXZXZXZXZXZXZXZXZXZXZXZXZXn v Y 6.6.6.6.6.6.8.6.C v M M M M ZXZXZX",
"ZXZXZXZXZXZXZXZXZXn n M k n k M k M M k ZXZXZXZXZXZXZXZXZXZXZXZXZXZXZXZXZXZXZXZXZXZXZXZXk c 4.D.D.S.V.V.V.D.V.T c v M k n ZXZXZX",
"ZXZXZXZXZXZXZXZXZXc c c c c c c c v M M ZXZXZXZXZXZXZXZXZXZXZXZXZXZXZXZXZXZXZXZXZXZXZXZXv c 6.I.I.N.G.n.M.N.M.Y w 0 c c c ZXZXZX",
"ZXZXZXZXZXZXZXZXZXv c c c c v c c v M M ZXZXZXZXZXZXZXZXZXZXZXZXZXZXZXZXZXZXZXZXZXZXZXZXv c 7.P.P.G.M.G.G.N.M.Y 0 c c c c ZXZXZX",
"ZXZXZXZXZXZXZXZXZXz z N z z z z z B M n ZXZXZXZXZXZXZXZXZXZXZXZXZXZXZXZXZXZXZXZXZXZXZXZXn m 4.x.x.x.D.D.V.N.n.4.v B z z z ZXZXZX",
"ZXZXZXZXZXZXZXZXC 4.5.5.4.4.4.5.5.I n k ZXZXZXZXZXZXZXZXZXZXZXZXZXZXZXZXZXZXZXZXZXZXZXZXM N Z p p 1.D.D.x.D.V.8.4.4.4.7.4.z ZXZX",
"ZXZXZXM M B v c Y t.y.t.t.t.t.y.y.T v n ZXZXZXM M v M M M ZXZXZXZXZXZXM M M M M M ZXZXZXZXZX5 $ = a N.G.V.V.m.y.t.t.t.y.t.C c v ",
"ZXZXZXv j v c 0 T M.B.M.M.M.N.P.B.6.c v ZXZXZXM B B n v v ZXZXZXZXZXZXv c v M M M ZXZXZXZXZXZX    i P.H.D.S.S.G.M.M.M.B.x.I 0 n ",
"ZXZXZXc c c 0 w F x.N.G.n.n.J.U.U.6.c k ZXZXZXM J J c 0 c ZXZXZXZXZXZXc 0 v N N M ZXZXZXZXZXZX  . a Y.I.D.V.S.n.G.x.G.N.V.I c n ",
"ZXZXZXM n M v c T n.N.V.x.D.n.M.M.7.m M ZXZXZXM k M M M M ZXZXZXZXZXZXM M M k M M ZXZXZXZXZXZX    s G.F.V.x.V.n.n.x.D.N.x.I c v ",
"ZXZXZXY T Y Y U 7.m.D.D.D.D.3.2.2.Y m M ZXZXZXd 4 8 C T Y ZXZXZXZXZXZXY T C 8 4 d ZXZXZXZXZX      r 1.2.3.G.D.D.V.D.D.D.y.I c v ",
"v v C 8.t.r.r.r.t.D.D.V.D.D.2.; ; d ZXZXM M M > + $ 2.V.r.N c M M c N r.y.2.$ + > M J >           @ ; u 2.G.n.S.S.S.S.M.y.U c v ",
"v c I V.N.M.D.D.D.D.x.S.G.H.p     ZXZXZXn N k $   . 2.U.S.I c n n c I S.U.1..   + B R 3                 a H.G.m.S.S.S.M.y.I c M ",
"v c I S.H.N.G.N.D.D.S.D.I.Y.a     ZXZXZXf N M o   . 1.Y.D.J q c j q C x.Y.1..   o M R 3 .               i B.N.D.S.S.m.N.S.E m N ",
"v c I V.N.D.n.n.D.D.S.n.H.I.p     ZXZXZX3 J M #   . 1.I.S.U 0 k v 0 C V.I.1.@   # M K 3       X .     . a H.D.D.V.n.D.N.y.I c M ",
"v c I y.G.n.V.n.D.D.D.y.3.3.r .     ZXZX3 J M < @ - 1.P.V.Y B S z B Y V.P.1.< = < B J 8 .   X - - = O * a G.V.V.D.V.V.D.t.z 8 7 ",
"v c I y.M.V.n.V.D.D.G.1.r r -           1 J M h V V e.H.V.0.D  . .D 0.V.H.r.V V h B N >     ; } ~ r > 1 A A.h.V.D.D.u.A.w.t % % ",
"v c I y.M.n.V.n.S.D.H.a @ X .           1 J M X.*.%.y.N.V.p.o.a.*.*.p.x.m.y.&.%.X.M m 3     r n.M.4.9 j 9.f.s.i.M.S.p.f.o.=   O ",
"M m I y.N.M.V.V.m.M.P.i                 1 b m 0.[.Z.V.m.n.h.;.f.;.=.h.S.N.V.g.[.0.m b 1     a Y.Y.8.b P X.;.=.A.m.D.g.[.o.=     ",
"N m I S.N.n.D.S.m.N.P.a .               > b c ..f.f.V.N.n.h.*.&.s.*.h.n.N.V.h.f.9.v b 2     i U.Y.8.q 0 ..T.f.V.N.m.h.[.T.=     ",
"j 0 z i.D.S.D.S.V.V.G.a + O @ @ = .     8 N N ..=.f.i.m.V.p.*.s.s.*.p.V.m.u.s.=...N N 8 O o r m.m.4.m n  .*.o.e.m.m.d.-.O.$     ",
"1 & t r.C.u.m.m.V.u.C.O.: & 4 s s -   . d  .E ..p.p.h.i.u.s.*.a.s.*.s.u.u.e.s.;.o.D D h , : t i a A D D D D D w.C.e.A V e @     ",
"+ O < %.g.h.D.m.u.p.h. .7 8 Y t.3.r     V s.*.a.a.a.p.p.p.s.a.&.&.a.s.p.p.p.s.s.%.0.a.D j j 3 - - y a.a.F M z 0.Z.d.t @ $ ZXZXZX",
"    @ o.T.f.m.m.u.=.=...m m 8.Y.U.p     V Z.g.p.a.s.*.*.*.*.s.s.s.s.*.*.a.*.s.a.s.f.Z...N K >     y [.Z.E q c  .T.o.=     ZXZXZX",
"    = *.[.Z.m.N.C.;.;.X.b q 8.Y.Y.i     V [.f.p.a.s.*.*.*.*.s.s.=.s.s.*.*.*.s.a.s.f.;...m P &     y {.{.9.0 P ..<.-.=     ZXZXZX",
"    = o.T.p.m.n.u.p.;. .c c 5.H.H.i . O V T.p.a.s.a.s.a.s.s.s.s.a.s.s.a.*.s.s.s.s.=.f.X.m M >   . y T.f.F j v ..Z.-.-     ZXZXZX",
"    @ V G O.u.V.w.9... .S S A 1.1.u % % V g.f.a.s.s.s.s.s.s.=.a.s.s.s.s.s.s.s.s.s.s.s...S E g % % e G G d 1 8 4.R.R.<     ZXZXZX",
"ZXZXZX= < e d.Z.0.S N D o.o.s e ; 4 8 8 A f.a.&.&.s.s.s.s.a.s.a.a.&.s.s.s.s.&.a.&.s.&.0.o.0.S 8 7 3 < - $ * $ W :X(.2     ZXZXZX",
"ZXZXZX. . - %.T.X.v 9 F T.Z.y X X 2 m M  .&.%.&.%.%.&.s.s.s.s.&.a.s.a.s.s.s.%.%.%.%.%.&.s.f. .M M : . . .   X W +X.X2     ZXZXZX",
"ZXZXZX    = o.<...b q D [.{.e     , K P O.#.#.@.@.@.%.s.s.s.s.s.s.s.s.s.s.%.@.@.@.@.#.-.g.g...K J % .       X W 1X@X4     ZXZXZX",
"ZXZXZX    - -.Z...M m E Z.{.V     , m v G :.#.| @.#.%.s.a.s.s.s.s.s.&.a.s.%.@.@.@.@.@.&.s.f. .M M :         . Q 1X@X4     ZXZXZX",
"ZXZXZX    < 0.[.9.d 8 h O.o.y + + 7 S N ]._._._././.j.-.s.s.s.a.s.a.s.a.%.p./._._./._.R.&.&.D v n 8 2 : X   . H Q.! :     ZXZXZX",
"ZXZXZX    2 W.}.E : # : < e < 8 1 h O...`.aXiXuXaXuX/.#.%.a.&.s.s.s.s.d.#./.uXaXuXiXiX`.&.&. .v v H W W 2     2 l 5 + ZXZXZXZXZX",
"ZXZXZX    2 .X+XW o O X @ @ : v m D #.-.dXVXbXCXVXxX_.| %.a.s.a.s.s.a.%.| _.xXVXbXbXVXuX&.:.D v v ) .X X5     X # + ZXZXZXZXZXZX",
"ZXZXZX    2 @X1XQ .         % K J ..:.:.aXMXMXNXNXBX'.| #.s.s.a.a.s.a.$.>.'.BXNXNXMXMXaX-.@. .v j E.,X+Xl           ZXZXZXZXZXZX",
"ZXZXZX    4 @X1XQ .         $ K K D -.-.iXMXmXNXNXBX'.>.| %.a.a.s.a.&.| >._.BXNXNXmXMXaX-.$. .m k E.+XXXl           ZXZXZXZXZXZX",
"ZXZXZX    : W.oXL .   O # # 1 n v D :.:.uXmXnXcXcXzX`.%.R.s.&.a.s.&.a.R.=.'.zXcXcXnXmXuX$.:.D d 7 ) @XoXl o         ZXZXZXZXZXZX",
"ZXZXZXZX  # H W 5     2 L ( K j v 4.e.e.uXmXnX5X2X2X3X7X7XT.#.a.=.#.R.7X7X3X2X2X5XnXMXuXe.e.A : , ( 1X%XK : : .   ZXZXZXZXZXZXZX",
"ZXZXZXZXZXZX$ % o     P &X4X] j c 7.b.c.pXmXnX{ 6 w 5XVXzX/.| %.&.+.R.zXVX5Xw 6 { bXNXpXc.v.a . o ( yX0X) 7 d ZXZXZXZXZXZXZXZXZX",
"ZXZXZXZXZXZX. .       P tXhX).k j 6.z.b.pXNXbX/   & 6XNXbX_.| %.*.| _.nXNX6X&   ^ cXNXpXv.z.i . O ( fXfX!.g k ZXZXZXZXZXZXZXZXZX",
"ZXZXZXZXZXZX          K hXkX=Xc c 6.z.z.pXNXbX^   * lXNXnX_.| %.%.| _.VXNXlX*   ^ nXNXpXv.z.i     ( hXfX!.g v ZXZXZXZXZXZXZXZXZX",
"ZXZXZXZXZXZX          P yXtX~.j f 7.v.c.pXNXbX/   o 6XNXbX_.| %.%.| /.xXNX6X*   / nXNXpXM.N.a     ( fXyX!.d M ZXZXZXZXZXZXZXZXZX",
"ZXZXZXZXZXZX    . $ % L ,X<X' > 1 E L.L.yXCXzX{ 9 P 3XjXpXR.$.e.p.w.(.pXjX3Xm 9 { zXCXwXL.L.a O   K $X=X' R R K ZXZXZXZXZXZXZXZX",
"ZXZXZXZXZXZXZXZX+ 8 7 R %X%XW o o ) 1X,X9XrXrX&X).).OX}.}.K.i.C.i.V.C.}.}.OX~.#X&XrXrX8X,X1XW     7 ) ( ' Q.W.R x B ZXZXZXZXZXZX",
"ZXZXZXZXZXZXZXZXZXf k E OX+XH     ` eXyX8X8X4X9X4X4XL.b.c.c.c.x.x.M.V.c.b.L.<XwX4X8X8X8XyXfX` O   2 v v E.+XXXW 7 g ZXZXZXZXZXZX",
"ZXZXZXZXZXZXZXZXZXk g Q OX+XH     [ fXgX4X*X<X0XfXyXG.,.b.v.n.x.x.M.v.b.,.G.yXfX0X-X-X4XgXfX[ O   , d d E.1X+XW 8 d ZXZXZXZXZXZX",
"ZXZXZXZXZXZXZXZXZXk f ( OX+XH . O ( fXqX8X;X-X9XeX9XK.b.b.x.n.x.x.x.x.b.b.K.9XwX8X<X;X8XeXfX( O   , k g E.%XOXW d g ZXZXZXZXZXZX",
"ZXZXZXZXZXZXZXZXZX( W Q E.W.l   . L &X&X&X*X*X<X8X8X}.K.K.l.F.l.F.l.l.K.F.:X<X4X;X*X-X&X&X*XL O   > m M W W.' W _ _ ZXZXZXZXZXZX",
"ZXZXZXZXZXZXn k _ #X=X` 5 5 :     j !.] ).+X$X*X8X;X,X:X+X(.k.k.k.k.(.OX:X,X-X8X-X$X+X).] !.7 ZXZX, N M j 5 5 ' =X).R f v ZXZXZX",
"ZXZXZXZXZXZXM g ' 0XhX' o .       3 M B E. X.X*X0X8X8X0X<X@X.X.X XQ.+X<X0X8X8X0X-X.X.XE.B M 1 ZXZX, J N :   o ~.hX8X) f M ZXZXZX",
"ZXZXZXZXZXZXB k ] hXjX] o         , k d E. X X<XwXqXeXfXyX%XXXoX@XXX%XeXfXeXqXyX-X X X' f f 3 ZXZX8 J M $   X ~.jXtX] g B ZXZXZX",
"ZXZXZXZXZXZXM d ] fXjX] X         > f f Q  X X*XwX0XwXgXwX$X.XoXoXXX$XwXgXeX0XwX*X X XQ g d g ZXZXj K M $   O ~.jXhX' j n ZXZXZX",
"ZXZXZXZXZXZXf 8 ( -X8X( X         > M M q.Q.Q.$X;X;X&X&X&XQ.W.W.W.W.Q.$X*X&X&X;X$X.XQ.E.k k ZXZXZXZXN M :   O ' 0X*XR 7 f ZXZXZX",
"ZXZXZXZXZXZX: : 7 _ ` 9 . ZX      > ZXM ( E.Q !.~.~.` L L H l H H l H L ( ( ~.~.!.Q ) W M ZXZXZXZXZXM M % ZX  9 ` W 8 : : ZXZXZX",
"ZXZXZXZXZXZXO . o # # o ZXZXZXZXZXZXZXZXM K N J K J 2 # + + + + o o # # # , K R K N J M ZXZXZXZXZXZXZXZXZXZXZXo # # X   . ZXZXZX",
"ZXZXZXZXZXZX            ZXZXZXZXZXZXZXZXk k k k M f X                     . d M k k k k ZXZXZXZXZXZXZXZXZXZXZX            ZXZXZX",
"ZXZXZXZXZXZX            ZXZXZXZXZXZXZXZXk k j k k d .                     O d k g k f k ZXZXZXZXZXZXZXZXZXZXZX            ZXZXZX",
"ZXZXZXZXZXZX            ZXZXZXZXZXZXZXZXk k k k B k +                     @ j M k k n k ZXZXZXZXZXZXZXZXZXZXZX            ZXZXZX",
"ZXZXZXZXZXZX            ZXZXZXZXZXZXZXZXM M M n N k +                     # k N M M M M ZXZXZXZXZXZXZXZXZXZXZX            ZXZXZX"
};
