/* XPM */
static char *result[] = {
/* columns rows colors chars-per-pixel */
"64 64 9 1 ",
"  c black",
". c #402828",
"X c #A84038",
"o c #D86830",
"O c #A08050",
"+ c #B09868",
"@ c #E0C098",
"# c #E8E8F8",
"$ c None",
/* pixels */
"$$$$$$$$$$$$$$$$$$$$$$$$$$$$$$$$$$$$$$$$$$$$$$$$$$$$$$$$$$$$$$$$",
"$$$$$$$$$$$$$$$$$$$$$$$$$$$$$$$$$$$$$$$$$$$$$$$$$$$$$$$$$$$$$$$$",
"$$$$$$$$$$$$$$$$$$$$$$$$$$$$$$$$$$$$$$$$$$$$$$$$$$$$$$$$$$$$$$$$",
"$$$$$$$$$$$$$$$$$$$$$$$$$$$$$$$$$$$$$$$$$$$$$$$$$$$$$$$$$$$$$$$$",
"$$$$$$$$$$$$$$$$$$$$$$$$$$$$$$$$$$$$$$$$$$$$$$$$$$$$$$$$$$$$$$$$",
"$$$$$$$$$$$$$$$$$$$$$$$$$$$$$$$$$$$$$$$$$$$$$$$$$$$$$$$$$$$$$$$$",
"$$$$$$$$$$$$$$$$$$$$$$$$$$$$$$$$$$$$$$$$$$$$$$$$$$$$$$$$$$$$$$$$",
"$$$$$$$$$$$$$$$$$$$$$$$$$$$$$$$$$$$$$$$$$$$$$$$$$$$$$$$$$$$$$$$$",
"$$$$$$$$$$$$$$$$$$$$$$$$$$$$$$$$$$$$$$$$$$$$$$$$$$$$$$$$$$$$$$$$",
"$$$$$$$$$$$$$$$$$$$$$$$$$$$$$$$$$$$$$$$$$$$$$$$$$$$$$$$$$$$$$$$$",
"$$$$$$$$$$$$$$$$$$$$$$$$$$$$$$$$$$$$$$$$$$$$$$$$$$$$$$$$$$$$$$$$",
"$$$$$$$$$$$$$$$$$$$$$$$$$$$$$$$$$$$$$$$$$$$$$        $$$$$$$$$$$",
"$$$$$$$$$$$$$$$$$$$$$$$$$$$$$$$$$$$$$$$$$$$$$        $$$$$$$$$$$",
"$$$$$$$$$$$$$$$$$$$$$$$$$$$$$$$$$$$$$$$$$    oooooooo  $$$$$$$$$",
"$$$$$$$$$$$$$$$$$$$$$$$$$$$$$$$$$$$$$$$$$    oooooooo  $$$$$$$$$",
"$$$$$$$$$$$$$$$$$$$$$$$$$$$$$$$$$$$$$$$  oooooooooooooo  $$$$$$$",
"$$$$$$$$$$$$$$$$$$$$$$$$$$$$$$$$$$$$$$$  oooooooooooooo  $$$$$$$",
"$$$$$$$$$$$$$$$$$$$$$$$$$$$$$$$$$$$$$$$        ooooooooXX  $$$$$",
"$$$$$$$$$$$$$$$$$$$$$$$$$$$$$$$$$$$$$$$        ooooooooXX  $$$$$",
"$$$$$$$$$$$$$$$$$$$$$$$$$..  $$$$  ..$$$$        oooooooo  $$$$$",
"$$$$$$$$$$$$$$$$$$$$$$$$$..  $$$$  ..$$$$        oooooooo  $$$$$",
"$$$$$$$$$        $$$$$$$$  oo  ..oo  $$$$$$$$    ..ooooooXX  $$$",
"$$$$$$$$$        $$$$$$$$  oo  ..oo  $$$$$$$$    ..ooooooXX  $$$",
"$$$$$$$  ooooXX  $$....$$  oo  ..oo  $$....$$$$    ooooooXX  $$$",
"$$$$$$$  ooooXX  $$....$$  oo  ..oo  $$....$$$$    ooooooXX  $$$",
"$$$$$  oooooo  $$$$..oo..  XX    XX  ..oo          ..ooXXXX  $$$",
"$$$$$  oooooo  $$$$..oo..  XX    XX  ..oo          ..ooXXXX  $$$",
"$$$$$  oooo..  $$$$..oo..  XX....XX  ..oo  oo        XXXXXX  $$$",
"$$$$$  oooo..  $$$$..oo..  XX....XX  ..oo  oo        XXXXXX  $$$",
"$$$  oooooo..  $$$$..XX..XXXXXXXXXXXX..XX  ooXX      XXXXXX  $$$",
"$$$  oooooo..  $$$$..XX..XXXXXXXXXXXX..XX  ooXX      XXXXXX  $$$",
"$$$  oooo..XX  $$$$..XXXXXXXX    XXXXXXXX  XXXXXXXX..XXXX  $$$$$",
"$$$  oooo..XX  $$$$..XXXXXXXX    XXXXXXXX  XXXXXXXX..XXXX  $$$$$",
"$$$  ooXXXX  $$$$..XXXXXXXX  oooo  XXXXXXXX  XXXXXX..XX....$$$$$",
"$$$  ooXXXX  $$$$..XXXXXXXX  oooo  XXXXXXXX  XXXXXX..XX....$$$$$",
"$$$  XXXX  ....  ..XXXX..  XXooooXX  ..XXXX..      XX++++..$$$$$",
"$$$  XXXX  ....  ..XXXX..  XXooooXX  ..XXXX..      XX++++..$$$$$",
"$$$$$  ++..OOOO..XX....XXXXooooooooXXXX....XX..OOOO  ++++  $$$$$",
"$$$$$  ++..OOOO..XX....XXXXooooooooXXXX....XX..OOOO  ++++  $$$$$",
"$$$$$..++OO    XX..XX####XXooooooooXX####XX..XX    OO    $$$$$$$",
"$$$$$..++OO    XX..XX####XXooooooooXX####XX..XX    OO    $$$$$$$",
"$$$$$$$..  ++  ..++..##  ##XXooooXX##  ##..++..  ....$$$$$$$$$$$",
"$$$$$$$..  ++  ..++..##  ##XXooooXX##  ##..++..  ....$$$$$$$$$$$",
"$$$$$$$  @@..OO..++@@..####XXooooXX####..@@++..++@@..$$$$$$$$$$$",
"$$$$$$$  @@..OO..++@@..####XXooooXX####..@@++..++@@..$$$$$$$$$$$",
"$$$$$$$  ++  ..OO..@@++@@oooooooooooo@@++@@..OO..++  ..$$$$$$$$$",
"$$$$$$$  ++  ..OO..@@++@@oooooooooooo@@++@@..OO..++  ..$$$$$$$$$",
"$$$$$....++  ..OO  ++++++@@@@++++@@@@++++++    ++  OOOO..$$$$$$$",
"$$$$$....++  ..OO  ++++++@@@@++++@@@@++++++    ++  OOOO..$$$$$$$",
"$$$..++++  $$....$$  ++++++        ++++++  $$  ++++  ....$$$$$$$",
"$$$..++++  $$....$$  ++++++        ++++++  $$  ++++  ....$$$$$$$",
"$$$      $$$$$$$$$$$$      $$$$$$$$      $$$$$$      $$$$$$$$$$$",
"$$$      $$$$$$$$$$$$      $$$$$$$$      $$$$$$      $$$$$$$$$$$",
"$$$$$$$$$$$$$$$$$$$$$$$$$$$$$$$$$$$$$$$$$$$$$$$$$$$$$$$$$$$$$$$$",
"$$$$$$$$$$$$$$$$$$$$$$$$$$$$$$$$$$$$$$$$$$$$$$$$$$$$$$$$$$$$$$$$",
"$$$$$$$$$$$$$$$$$$$$$$$$$$$$$$$$$$$$$$$$$$$$$$$$$$$$$$$$$$$$$$$$",
"$$$$$$$$$$$$$$$$$$$$$$$$$$$$$$$$$$$$$$$$$$$$$$$$$$$$$$$$$$$$$$$$",
"$$$$$$$$$$$$$$$$$$$$$$$$$$$$$$$$$$$$$$$$$$$$$$$$$$$$$$$$$$$$$$$$",
"$$$$$$$$$$$$$$$$$$$$$$$$$$$$$$$$$$$$$$$$$$$$$$$$$$$$$$$$$$$$$$$$",
"$$$$$$$$$$$$$$$$$$$$$$$$$$$$$$$$$$$$$$$$$$$$$$$$$$$$$$$$$$$$$$$$",
"$$$$$$$$$$$$$$$$$$$$$$$$$$$$$$$$$$$$$$$$$$$$$$$$$$$$$$$$$$$$$$$$",
"$$$$$$$$$$$$$$$$$$$$$$$$$$$$$$$$$$$$$$$$$$$$$$$$$$$$$$$$$$$$$$$$",
"$$$$$$$$$$$$$$$$$$$$$$$$$$$$$$$$$$$$$$$$$$$$$$$$$$$$$$$$$$$$$$$$",
"$$$$$$$$$$$$$$$$$$$$$$$$$$$$$$$$$$$$$$$$$$$$$$$$$$$$$$$$$$$$$$$$"
};
