/* XPM */
static char *result[] = {
/* columns rows colors chars-per-pixel */
"64 64 239 2 ",
"   c #000000",
".  c #0A0503",
"X  c #0C0A09",
"o  c #0E0A07",
"O  c #140E0C",
"+  c #1E0A0A",
"@  c #180905",
"#  c #16110E",
"$  c #1B150E",
"%  c #1F190F",
"&  c #1D1714",
"*  c #250D0D",
"=  c #291309",
"-  c #3D1D09",
";  c #231A15",
":  c #2A1D19",
">  c #261915",
",  c #341A17",
"<  c #2D2416",
"1  c #2D211B",
"2  c #25201A",
"3  c #31231D",
"4  c #362619",
"5  c #3E311E",
"6  c #3A2924",
"7  c #382824",
"8  c #3A3327",
"9  c #3B3332",
"0  c #383636",
"q  c #322A2C",
"w  c #491C19",
"e  c #4D1F15",
"r  c #5D2C0E",
"t  c #572A0E",
"y  c #45261A",
"u  c #58231C",
"i  c #48230C",
"p  c #673313",
"a  c #763814",
"s  c #6A310F",
"d  c #422B27",
"f  c #452E29",
"g  c #4A2C26",
"h  c #46342D",
"j  c #4C342E",
"k  c #463A29",
"l  c #563A2F",
"z  c #5A3A2B",
"x  c #443432",
"c  c #4C3631",
"v  c #4D3A31",
"b  c #463A34",
"n  c #523931",
"m  c #593D35",
"M  c #523631",
"N  c #592B25",
"B  c #682822",
"V  c #623E2D",
"C  c #6A3629",
"Z  c #79382A",
"A  c #693A33",
"S  c #7D3C34",
"D  c #743B33",
"F  c #7D2E2D",
"G  c #58462C",
"H  c #5C4137",
"J  c #5D443A",
"K  c #524436",
"L  c #534838",
"P  c #66402D",
"I  c #6A412D",
"U  c #69492F",
"Y  c #73442B",
"T  c #794428",
"R  c #684C37",
"E  c #7B4437",
"W  c #6C5537",
"Q  c #74583B",
"!  c #75613E",
"~  c #3E4049",
"^  c #46464B",
"/  c #5F5B59",
"(  c #6A5845",
")  c #745C46",
"_  c #6C624C",
"`  c #796249",
"'  c #7C6851",
"]  c #9E271B",
"[  c #9E2A24",
"{  c #87382C",
"}  c #843C35",
"|  c #8B3D36",
" . c #863D38",
".. c #963B36",
"X. c #983B2D",
"o. c #A12D23",
"O. c #AB2C23",
"+. c #A4352D",
"@. c #A5382F",
"#. c #A73328",
"$. c #A53D34",
"%. c #AA3D35",
"&. c #A63E39",
"*. c #AD3E3B",
"=. c #A43636",
"-. c #B63C3A",
";. c #97170A",
":. c #964717",
">. c #894216",
",. c #A9511B",
"<. c #B7571C",
"1. c #B24E1D",
"2. c #844929",
"3. c #8C4D2A",
"4. c #8B4B27",
"5. c #944E25",
"6. c #98522A",
"7. c #874234",
"8. c #964138",
"9. c #8F502B",
"0. c #AA462A",
"q. c #B74B2A",
"w. c #A55425",
"e. c #A95626",
"r. c #BD5C21",
"t. c #BC5429",
"y. c #B65725",
"u. c #AC4435",
"i. c #A84038",
"p. c #A54336",
"a. c #B3423A",
"s. c #BB443C",
"d. c #B64935",
"f. c #B96936",
"g. c #B97138",
"h. c #C54702",
"j. c #C9530A",
"k. c #CB5D18",
"l. c #D85C0E",
"z. c #CC621E",
"x. c #CC661B",
"c. c #D3641E",
"v. c #D9671D",
"b. c #E26718",
"n. c #C45D22",
"m. c #C65728",
"M. c #C2473D",
"N. c #D15E2A",
"B. c #C66223",
"V. c #C96020",
"C. c #C96929",
"Z. c #D36521",
"A. c #DD6A22",
"S. c #D76B26",
"D. c #C6763E",
"F. c #DA742F",
"G. c #E46D22",
"H. c #E96E22",
"J. c #F27325",
"K. c #FC7825",
"L. c #ED7023",
"P. c #B23F43",
"I. c #AB4942",
"U. c #B64443",
"Y. c #AF554B",
"T. c #866946",
"R. c #9B7A4C",
"E. c #836B55",
"W. c #89775B",
"Q. c #967554",
"!. c #B66259",
"~. c #AD7548",
"^. c #917D61",
"/. c #B86967",
"(. c #A56A68",
"). c #C64945",
"_. c #D54F44",
"`. c #C57D47",
"'. c #9D8351",
"]. c #A5834E",
"[. c #A38553",
"{. c #AB8A53",
"}. c #AB8A56",
"|. c #B7935A",
" X c #B28E5A",
".X c #9C8567",
"XX c #8E806C",
"oX c #A58C66",
"OX c #B49869",
"+X c #B79D74",
"@X c #B68E70",
"#X c #BDA47D",
"$X c #BBA278",
"%X c #BFA169",
"&X c #C88F58",
"*X c #C29C66",
"=X c #C29E73",
"-X c #D49576",
";X c #C0A67E",
":X c #C2A97C",
">X c #CBAA69",
",X c #E0A07A",
"<X c #7A7A82",
"1X c #B57F81",
"2X c #B099A1",
"3X c #A9ADB8",
"4X c #ABA3A9",
"5X c #C4898B",
"6X c #C89394",
"7X c #C3AC84",
"8X c #C9AC88",
"9X c #CBB38A",
"0X c #C9B187",
"qX c #D3B88B",
"wX c #C9B891",
"eX c #D3BD92",
"rX c #D8B797",
"tX c #DDB3A5",
"yX c #D3AEB6",
"uX c #D3AAA9",
"iX c #D8C499",
"pX c #E3CA9A",
"aX c #ECD09D",
"sX c #D5CAB7",
"dX c #EDCDB2",
"fX c #FFE1AB",
"gX c #AFB7C7",
"hX c #DDCBD7",
"jX c #DFC7C8",
"kX c #E3D9DE",
"lX c #F6E4D9",
"zX c #ECECFC",
"xX c #E7E6F8",
"cX c #EDF7FF",
"vX c #F4FDFF",
"bX c #FEFFFF",
"nX c #F1F4FF",
"mX c #E9EAEA",
"MX c None",
/* pixels */
"MXMXMXMXMXMXMXMXMXMXMXMXMXMXMXMXMXMXMXMXMXMXMXMXMXMXMXMXMXMXMXMXMXMXMXMXMXMXMXMXMXMXMXMXn n n l c l c l n l c MXMXMXMXMXMXMXMXMX",
"MXMXMXMXMXMXMXMXMXMXMXMXMXMXMXMXMXMXMXMXMXMXMXMXMXMXMXMXMXMXMXMXMXMXMXMXMXMXMXMXMXMXMXMXj n n l l l l l l n l MXMXMXMXMXMXMXMXMX",
"MXMXMXMXMXMXMXMXMXMXMXMXMXMXMXMXMXMXMXMXMXMXMXMXMXMXMXMXMXMXMXMXMXMXMXMXMXMXMXMXMXMXMXMXn c P 2.2.2.2.2.2.2.2.V MXMXMXMXMXMXMXMX",
"MXMXMXMXMXMXMXMXMXn n j n n n n c l n c MXMXMXMXMXMXMXMXMXMXMXMXMXMXMXMXMXMXMXMXMXMXMXMXn x T n.y.e.y.y.y.r.y.Y x c n l n MXMXMX",
"MXMXMXMXMXMXMXMXMXc c j j c c c c n l c MXMXMXMXMXMXMXMXMXMXMXMXMXMXMXMXMXMXMXMXMXMXMXMXl x 9.b.v.v.c.c.c.v.Z.T x c c c j MXMXMX",
"MXMXMXMXMXMXMXMXMXx x x x x x x x c c l MXMXMXMXMXMXMXMXMXMXMXMXMXMXMXMXMXMXMXMXMXMXMXMXc x 6.J.H.v.c.Z.Z.c.c.Y 0 x x x x MXMXMX",
"MXMXMXMXMXMXMXMXMXc c c c c c c c c n j MXMXMXMXMXMXMXMXMXMXMXMXMXMXMXMXMXMXMXMXMXMXMXMXc x 9.v.Z.V.V.V.z.V.V.T 9 c c c c MXMXMX",
"MXMXMXMXMXMXMXMXz Y Y Y Y Y Y Y Y V c n MXMXMXMXMXMXMXMXMXMXMXMXMXMXMXMXMXMXMXMXMXMXMXMXn b C :.:.,.V.V.V.z.V.9.P D Y Y Y MXMXMX",
"MXMXMXn n j M 9 I e.e.e.w.w.w.e.e.T c n MXMXMXMXl n n n n MXMXMXMXMXMXn n l c j MXMXMXMXMXMXg - - >.S.V.V.V.V.y.w.w.w.e.w.V x n ",
"MXMXMXc n n M x T Z.c.V.z.z.z.c.v.3.x c MXMXMXn c j n c j MXMXMXMXMXMXj c c l c n MXMXMXMXMXMX    s A.V.V.n.V.V.z.x.z.v.n.A x j ",
"MXMXMXc x h x 9 Y v.v.c.c.Z.A.H.L.5.x n MXMXMXn m n c x c MXMXMXMXMXMXc x c n m m MXMXMXMXMXMX    s J.S.V.V.V.x.c.Z.c.v.z.I x l ",
"MXMXMXx x x x 9 Y V.Z.V.n.k.Z.A.H.3.x n MXMXMXm m m c x x MXMXMXMXMXMXx h b m m n MXMXMXMXMXMX    a J.A.V.V.V.V.k.V.V.v.r.V x n ",
"MXMXMXV I V P l 2.z.z.V.k.V.r.,.,.T b n MXMXMXh h f z I V MXMXMXMXMXMXP I l f f h MXMXMXMXMX      r <.,.<.Z.V.V.V.V.V.c.<.P x n ",
"n x z 3.6.5.5.5.w.n.V.z.V.Z.:.t r N MXMXn n n 3 & ; T w.9.z x n c x z 3.w.T ; & 3 n R :           = r t :.S.V.V.V.V.V.V.B.I x j ",
"c x I r.z.n.n.n.n.V.z.n.z.S.a . . MXMXMXn n n &   . :.S.r.P x n n x P r.G.:.. . & n m 3           . . . a G.z.n.V.n.V.c.n.I x n ",
"n x I z.v.c.c.c.c.V.n.V.Z.H.p   . MXMXMXh m n X   . :.J.z.P 9 c n 9 P z.J.:.    X n H 3                 s A.z.z.V.z.z.c.r.I b n ",
"n x I V.c.V.c.z.V.V.n.B.A.K.a     MXMXMX7 m n X     :.L.n.V 9 h b 9 z k.L.:.    X n m 7                 a H.x.z.n.z.V.v.z.U v m ",
"j x I <.c.V.V.V.V.V.V.k.r.Z.s     MXMXMX3 m n ; . . :.G.r.I c n M x I r.H.:.o . & n H 1     . o . .   . a A.n.V.n.V.V.B.y.P x c ",
"n x V n.z.V.V.V.z.k.x.:.a a -       MXMX1 H n g w w w.v.k.7.D D D D 2.n.v.,.e w g j m 1     = r r - & & T m.t.n.z.V.t.m.q.y : : ",
"n x I r.Z.z.n.V.x.x.v.{ $ = @           1 m j F X.X.y.v.n.8...8.....p.n.c.t.{ ..Z M m 3     i r.<.Z q 8 { s.i.t.x.n.q.s.p.> X X ",
"M x P r.c.z.k.B.V.V.G.a                 1 K c 8.M.s.n.x.n.d.*.u.a.*.d.n.x.m.s.M...c K 1     p J.H.6.b v  .*.&.t.c.V.a.P...@     ",
"m v U z.c.z.V.n.V.x.H.a             .   1 b b | s.s.m.x.k.d.*.a.u.*.d.n.x.n.s.U.| c b :     p K.K.6.0 b | -.*.m.x.n.d.).*.+     ",
"n b I B.c.V.V.V.B.V.G.a                 1 b j | *.i.r.x.n.u.&.&.%.&.u.n.x.m.i.a.| b n 3     r G.A.3.9 b  .a.*.m.x.z.d.U...*     ",
"7 q g y.m.r.n.z.B.t.N.a # # = - i @     4 E A ..*.i.t.m.m.u.&.p.i.&.u.m.m.t.u.i...A I g # # t :.:.T A A S | ..e.n.m.{ { B @     ",
"O # , 0.d.q.n.x.m.u.t.{ 7 7 p :.:.-     u 8.8.p.*.i.u.d.d.p.&.*.i.&.i.d.q.u.i.i.p.| 8.C 7 q 4 i - B 8.8.S V A 8.M.0.u , = MXMXMX",
"    + ..I.d.V.c.t.i.i. .c b 3.S.G.p     B s.i.i.i.i.&.p.i.i.i.p.i.i.p.&.&.&.i.i.%.%.a.| n m :     u s.s.D 9 j | s.p.*     MXMXMX",
"    + =.U.s.x.x.m.P.P.| b 0 6.K.K.s     B M.a.i.i.i.&.&.&.&.&.p.i.i.i.&.&.&.i.i.u.a.s.7.v J &     u _.M.E 9 b | -.=.*     MXMXMX",
"    * i.).d.z.c.m.i.-.| h 9 9.L.J.s     B s.i.i.i.i.&.&.&.i.i.i.i.i.i.&.&.i.i.i.*.*.a. .b v 2     B ).s.E K m 7.-.=.*     MXMXMX",
"    + F ..X.r.n.q.8.8. .m l 2.1.<.t X X B U.i.i.i.i.p.&.i.i.i.i.*.p.&.p.i.p.&.i.i.i.u.| m A 7 X X u ....z 6 h 7.Y.8.=     MXMXMX",
"MXMX. w w B d.m.6.D D S } | C r r y 1 1 Z s.i.i.i.i.*.p.p.i.i.i.&.i.i.*.i.i.i.i.%.p.*...} | N : 1 , e w , & & E `.Y.:     MXMXMX",
"MXMXMX. . , $.s.| M x D *.a.u . . 1 n x } a.%.%.i.&.p.%.*.p.&.i.p.%.*.p.p.&.i.i.i.i.&.&.p.i.S x n > . . .     W |.R.<     MXMXMX",
"MXMXMX    + =.-.| c 9 D M._.u     ; J K } @.@.@.+.$.&.i.p.*.%.i.i.i.p.i.%.&.$.+.@.@.+.%.a.s. .n R &           W >X{.<     MXMXMX",
"MXMXMX    * =.-.| n b S )._.u     & v b F O.o.o.o.o.$.i.&.p.i.i.i.i.i.i.i.$.o.o.o.o.o.#.u.s.} v H #           ! >X X<     MXMXMX",
"MXMXMX    * *.U.7.c 9 D p.U.u   . 1 H l 7.U.I.I.I.I.i.&.i.i.i.i.i.i.i.&.i.i.u.I.I.I.I.I.i.i.E j n < . .       W  XR.<     MXMXMX",
"MXMXMX    , 6.`.7.1 : 4 B B w ; & g D D (.6X5X5X5X5XY.@.i.i.i.i.i.p.*.i.@.I.5X6X5X5X6X/.%.-.} j l k k k $     5 W G #     MXMXMX",
"MXMXMX    : R.|.W X . O + + , h 8 D &.X.6XkXhXhXkXhX/.o.i.i.i.i.i.i.p.&.o./.hXkXhXhXkX6X$.%.S h j W T.R.4     O % # MXMXMXMXMXMX",
"MXMXMX    < '.%XW           & J n  .-.@.yXbXcXvXvXnX/.o.%.i.i.i.i.i.i.&.[ /.vXvXnXnXvXyX#.%.S b h T.|.|.k .         MXMXMXMXMXMX",
"MXMXMX    <  X>X!           # H n  .-.#.yXvXcXbXbXbX/.;.o.$.i.i.i.i.$.o.;./.bXbXbXnXvXyX+.=. .v c T.|. X5           MXMXMXMXMXMX",
"MXMXMX    < ].*XQ           ; m j } -.#.uXnXxXnXnXxX/.] &.p.i.i.i.i.i.$.] /.zXbXnXzXnXuX+.%.S c h Q {.{.5           MXMXMXMXMXMX",
"MXMXMX    % W ` G     # 8 9 f M h 7.q.#.uXnXzXgX3X3X1X`./.I.$.i.i.$.I././.1X4X3XgXxXvXtX#.d.Z 7 7 ) OXOXl # # .     MXMXMXMXMXMX",
"MXMXMXMXMXMX< 4 ;     8 W..X) f h 3.k.1.uXvXzX<X^ ^ 2XjXyXY.+.i.i.#.Y.yXjX2X^ ^ <XzXvXuXj.N.p # # ) 8X=X( 3 7 X MXMXMXMXMXMXMXMX",
"MXMXMXMXMXMX          K qXiX^.f h 9.c.j.tXvXzX^     3XbXxX!.[ &.i.o.!.xXbX3X    ^ zXvXtXk.b.s     ( eX8XE.j n MXMXMXMXMXMXMXMXMX",
"MXMXMXMXMXMX          K pXaX.Xf c 5.l.j.tXvXnX0     gXbXnX/.[ &.=.[ /.cXbXgX    0 nXbXtXj.l.s     ( pXqXE.d n MXMXMXMXMXMXMXMXMX",
"MXMXMXMXMXMX          K qXeX^.j c 5.l.j.tXbXnX~     gXbXxX/.[ =.&.o.(.xXbXgX    ~ nXbXtXj.v.s     _ pXqXE.7 j MXMXMXMXMXMXMXMXMX",
"MXMXMXMXMXMX      X X K :X:XE.7 8 3.S.B.tXmXmX/ & 2 4XlXjX!.#.u.u.#.!.jXlX4X: & / mXmXuXC.F.p     J :X$X' v H MXMXMXMXMXMXMXMXMX",
"MXMXMXMXMXMXMXMX. 3 : R OX:X( & ; Q &X&X8XsXsX^._ _ @X,X-XC.1.t.t.q.C.-X,X@X_ _ ^.sXsX8X&X&XU     b W.' ' 9.` R c K MXMXMXMXMXMX",
"MXMXMXMXMXMXMXMXMXM f Q {.|.G     ( 9X;X7X7X7X7X7X+XD.n.C.m.n.n.k.n.V.B.N.`.+X$X7X7X7X7X:XqX(     3 H n T.].R.R g n MXMXMXMXMXMX",
"MXMXMXMXMXMXMXMXMXM j Q {.|.G     ( iXwX7X+X+X8XrXqXV.h.j.k.z.c.z.z.k.j.h.B.qXrX7X+X+X7XwXiX_     > f 6 T.*XOXW 6 j MXMXMXMXMXMX",
"MXMXMXMXMXMXMXMXMXg 6 Q  X*XP     _ pXwX7X7X#X8X9X0XC.h.j.k.k.k.c.z.k.j.h.C.7XwX8X;X7X7XeXiX_     : c f T.>X|.R 3 g MXMXMXMXMXMX",
"MXMXMXMXMXMXMXMXMXm v Q R.}.G     ( 9X7X#X#X7X#X7X#XD.k.B.V.B.B.n.B.n.C.k.D.;X7X;X#X#X#X#X9X(     : m j ` [.R.W j m MXMXMXMXMXMX",
"MXMXMXMXMXMXMXMX( ' E.) G R <     n ^.W.oX+XOX#X7X;X&X`.`.g.f.g.f.f.g.`.`.&X#X7X$XOX+XoXW.oXb     : m M G G G ` E.' J MXMXMXMXMX",
"MXMXMXMXMXMXn f ( @X7X_ % % o     7 ( R T.}.[.+X7X;X+X=X*X].R.].R.~.~.*X=X+X7X7X+X[. XT.J ( 7 MXMX: m n < % % ' 7X@X( d n MXMXMX",
"MXMXMXMXMXMXn f ` iXaX'           ; j d T.].R.OX0X7X0XwX7XoX'.'.[.'.oX7XwX7X7X0X+XR.].Q d f : MXMX3 m n #     W.aX9X) f n MXMXMX",
"MXMXMXMXMXMXm j ' pXfX'           > j d T.{.].:XqX9XwXiXwXOX{. X X{.OXiXiXeX9XwX:X].{.T.d f 6 MXMXf m m #     XXfXiX) h m MXMXMX",
"MXMXMXMXMXMXm f ` 0XpX'           : l j T.].].=X0X8X8X9X7X X'.].[.].}.#X9X8X8X9X%X].{.T.j j l MXMXj n n ;     W.pX8X) g n MXMXMX",
"MXMXMXMXMXMX7 1 G W..XL           : m j Q T.T.^.oX.X^.W.W.! W ! ! W ! W.W.W.oXoX^.T.T.Q j j MXMXMXMXn m &     J .XW.c 3 7 MXMXMX",
"MXMXMXMXMXMX# O & 8 k 2 MXMXMXMXMXMXMXMXH W R ( ) ) k 8 8 4 < < < < 4 8 8 K ( ) ( R R H MXMXMXMXMXMXMXMXMXMXMX2 k 8 ; O O MXMXMX",
"MXMXMXMXMXMX            MXMXMXMXMXMXMXMXj c j j M h X                     o h j j M j M MXMXMXMXMXMXMXMXMXMXMX            MXMXMX",
"MXMXMXMXMXMX            MXMXMXMXMXMXMXMXj f h f f d                         f f f h h j MXMXMXMXMXMXMXMXMXMXMX            MXMXMX",
"MXMXMXMXMXMX            MXMXMXMXMXMXMXMXc M M c M c O                     O j n j j M c MXMXMXMXMXMXMXMXMXMXMX            MXMXMX",
"MXMXMXMXMXMX            MXMXMXMXMXMXMXMXn n l j m j O                     # j m n l c n MXMXMXMXMXMXMXMXMXMXMX            MXMXMX",
"MXMXMXMXMXMX            MXMXMXMXMXMXMXMXj n c n m c O                     O n n j n n j MXMXMXMXMXMXMXMXMXMXMX            MXMXMX",
"MXMXMXMXMXMX            MXMXMXMXMXMXMXMXn n n n n n O                     O j m l c c l MXMXMXMXMXMXMXMXMXMXMX            MXMXMX",
"MXMXMXMXMXMX            MXMXMXMXMXMXMXMXn j j n m j #                     O n n c l c n MXMXMXMXMXMXMXMXMXMXMX            MXMXMX"
};
