/* XPM */
static char *result[] = {
/* columns rows colors chars-per-pixel */
"64 64 9 1 ",
"  c black",
". c #402828",
"X c #A84038",
"o c #D86830",
"O c #A08050",
"+ c #B09868",
"@ c #E0C098",
"# c #E8E8F8",
"$ c None",
/* pixels */
"$$$$$$$$$$$$$$$$$$$$$$$$$$$$$$$$$$$$$$$$$$$$$$$$$$$$$$$$$$$$$$$$",
"$$$$$$$$$$$$$$$$$$$$$$$$$$$$$$$$$$$$$$$$$$$$$$$$$$$$$$$$$$$$$$$$",
"$$$$$$$$$$$$$$$$$$$$$$$$$$$$$$$$$$$$$$$$$$$$$$$$$$$$$$$$$$$$$$$$",
"$$$$$$$$$$$$$$$$$$$$$$$$$$$$$$$$$$$$$$$$$$$$$$$$$$$$$$$$$$$$$$$$",
"$$$$$$$$$$$$$$$$$$$$$$$$$$$$$$$$$$$$$$$$$$$$$$$$$$$$$$$$$$$$$$$$",
"$$$$$$$$$$$$$$$$$$$$$$$$$$$$$$$$$$$$$$$$$$$$$$$$$$$$$$$$$$$$$$$$",
"$$$$$$$$$$$$$$$$$$$$$$$$$$$$$$$$$$$$$$$$$$$$$$$$$$$$$$$$$$$$$$$$",
"$$$$$$$$$$$$$$$$$$$$$$$$$$$$$$$$$$$$$$$$$$$$$$$$$$$$$$$$$$$$$$$$",
"$$$$$$$$$$$$$$$$$$$$$$$$$$$$$$$$$$$$$$$$$$$$$$$$$$$$$$$$$$$$$$$$",
"$$$$$$$$$$$$$$$$$        $$$$$$$$$$$$$$$$$$$$$$$$$$$$$$$$$$$$$$$",
"$$$$$$$$$$$$$$$$$        $$$$$$$$$$$$$$$$$$$$$$$$$$$$$$$$$$$$$$$",
"$$$$$$$$$$$$$$$  oooooooo  $$$$$$$$$$$$$$$$$$$$$$$$$$$$$$$$$$$$$",
"$$$$$$$$$$$$$$$  oooooooo  $$$$$$$$$$$$$$$$$$$$$$$$$$$$$$$$$$$$$",
"$$$$$$$$$$$$$  oooooooooooo  $$$$$$$$$$$$$$$$$$$$$$$$$$$$$$$$$$$",
"$$$$$$$$$$$$$  oooooooooooo  $$$$$$$$$$$$$$$$$$$$$$$$$$$$$$$$$$$",
"$$$$$$$$$$$$$  oooooooooooo  $$$$$$$$$$$$$$$$$$$$$$$$$$$$$$$$$$$",
"$$$$$$$$$$$$$  oooooooooooo  $$$$$$$$$$$$$$$$$$$$$$$$$$$$$$$$$$$",
"$$$$$$$$$$$$$  oooooooooooooo  $$$$$$$$$$$$$$$$$$$$$$$$$$$$$$$$$",
"$$$$$$$$$$$$$  oooooooooooooo  $$$$$$$$$$$$$$$$$$$$$$$$$$$$$$$$$",
"$$$$$$$$$$$$$$$    XXoooooooo  $$..  $$$$$$$$$$$$$$$$$$$$$$$$$$$",
"$$$$$$$$$$$$$$$    XXoooooooo  $$..  $$$$$$$$$$$$$$$$$$$$$$$$$$$",
"$$$$$$$$$$$$$$$$$    XXooooXX  ..oo  $$$$$$$$$$$$$$$$$$$$$$$$$$$",
"$$$$$$$$$$$$$$$$$    XXooooXX  ..oo  $$$$$$$$$$$$$$$$$$$$$$$$$$$",
"$$$$$$$$$$$$$$$$$    XXXXXXXXXX  oo  ..  $$$$$$$$$$$$$$$$$$$$$$$",
"$$$$$$$$$$$$$$$$$    XXXXXXXXXX  oo  ..  $$$$$$$$$$$$$$$$$$$$$$$",
"$$$$$$$$$$$$$$$      XXXXXXXXXX  XX..oo  $$$$$$$$$$$$$$$$$$$$$$$",
"$$$$$$$$$$$$$$$      XXXXXXXXXX  XX..oo  $$$$$$$$$$$$$$$$$$$$$$$",
"$$$$$$$$$$$$$$$  oo....XXXXXXXX  ..ooXX  $$$$$$$$$$$$$$$$$$$$$$$",
"$$$$$$$$$$$$$$$  oo....XXXXXXXX  ..ooXX  $$$$$$$$$$$$$$$$$$$$$$$",
"$$$$$$$$$$$$$$$  XXoooo....XX    ooXX  ..$$$$$$$$$$$$$$$$$$$$$$$",
"$$$$$$$$$$$$$$$  XXoooo....XX    ooXX  ..$$$$$$$$$$$$$$$$$$$$$$$",
"$$$$$$$$$$$$$$$$$..  XXXXXX..@@@@  ..oo  $$$$$$$$$$$$$$$$$$$$$$$",
"$$$$$$$$$$$$$$$$$..  XXXXXX..@@@@  ..oo  $$$$$$$$$$$$$$$$$$$$$$$",
"$$$$$$$$$$$$$$$$$..XX      ..++@@  ooXX  ..$$$$$$$$$$$$$$$$$$$$$",
"$$$$$$$$$$$$$$$$$..XX      ..++@@  ooXX  ..$$$$$$$$$$$$$$$$$$$$$",
"$$$$$$$$$$$$$$$..++ooXXXXXXXX..  @@  ..XX..$$$$$$$$$$$$$$$$$$$$$",
"$$$$$$$$$$$$$$$..++ooXXXXXXXX..  @@  ..XX..$$$$$$$$$$$$$$$$$$$$$",
"$$$$$$$$$$$$$..++XXXXoooo####XXXX  @@..XXXX..$$$$$$$$$$$$$$$$$$$",
"$$$$$$$$$$$$$..++XXXXoooo####XXXX  @@..XXXX..$$$$$$$$$$$$$$$$$$$",
"$$$$$$$$$$$$$..@@XXXXXX$$  ####XXXX  ++..XX..$$$$$$$$$$$$$$$$$$$",
"$$$$$$$$$$$$$..@@XXXXXX$$  ####XXXX  ++..XX..$$$$$$$$$$$$$$$$$$$",
"$$$$$$$$$$$$$..@@@@XX@@XX$$$$..XXXX....    ..$$$$$$$$$$$$$$$$$$$",
"$$$$$$$$$$$$$..@@@@XX@@XX$$$$..XXXX....    ..$$$$$$$$$$$$$$$$$$$",
"$$$$$$$$$$$$$$$  ++++++@@....@@....@@..  ++  $$$$$$$$$$$$$$$$$$$",
"$$$$$$$$$$$$$$$  ++++++@@....@@....@@..  ++  $$$$$$$$$$$$$$$$$$$",
"$$$$$$$$$$$$$$$$$  ++++++++@@++++..++  OO..@@  $$$$$$$$$$$$$$$$$",
"$$$$$$$$$$$$$$$$$  ++++++++@@++++..++  OO..@@  $$$$$$$$$$$$$$$$$",
"$$$$$$$$$$$$$$$$$$$    ++++++++..  ++      ++  $$$$$$$$$$$$$$$$$",
"$$$$$$$$$$$$$$$$$$$    ++++++++..  ++      ++  $$$$$$$$$$$$$$$$$",
"$$$$$$$$$$$$$$$$$$$$$$$    ....++++  $$$$  ++....$$$$$$$$$$$$$$$",
"$$$$$$$$$$$$$$$$$$$$$$$    ....++++  $$$$  ++....$$$$$$$$$$$$$$$",
"$$$$$$$$$$$$$$$$$$$$$$$$$$$$$      $$$$$$$$  ++++..$$$$$$$$$$$$$",
"$$$$$$$$$$$$$$$$$$$$$$$$$$$$$      $$$$$$$$  ++++..$$$$$$$$$$$$$",
"$$$$$$$$$$$$$$$$$$$$$$$$$$$$$$$$$$$$$$$$$$$$$      $$$$$$$$$$$$$",
"$$$$$$$$$$$$$$$$$$$$$$$$$$$$$$$$$$$$$$$$$$$$$      $$$$$$$$$$$$$",
"$$$$$$$$$$$$$$$$$$$$$$$$$$$$$$$$$$$$$$$$$$$$$$$$$$$$$$$$$$$$$$$$",
"$$$$$$$$$$$$$$$$$$$$$$$$$$$$$$$$$$$$$$$$$$$$$$$$$$$$$$$$$$$$$$$$",
"$$$$$$$$$$$$$$$$$$$$$$$$$$$$$$$$$$$$$$$$$$$$$$$$$$$$$$$$$$$$$$$$",
"$$$$$$$$$$$$$$$$$$$$$$$$$$$$$$$$$$$$$$$$$$$$$$$$$$$$$$$$$$$$$$$$",
"$$$$$$$$$$$$$$$$$$$$$$$$$$$$$$$$$$$$$$$$$$$$$$$$$$$$$$$$$$$$$$$$",
"$$$$$$$$$$$$$$$$$$$$$$$$$$$$$$$$$$$$$$$$$$$$$$$$$$$$$$$$$$$$$$$$",
"$$$$$$$$$$$$$$$$$$$$$$$$$$$$$$$$$$$$$$$$$$$$$$$$$$$$$$$$$$$$$$$$",
"$$$$$$$$$$$$$$$$$$$$$$$$$$$$$$$$$$$$$$$$$$$$$$$$$$$$$$$$$$$$$$$$",
"$$$$$$$$$$$$$$$$$$$$$$$$$$$$$$$$$$$$$$$$$$$$$$$$$$$$$$$$$$$$$$$$"
};
