/* XPM */
static char *ZW5fdl9hbmltXzE_[] = {
/* columns rows colors chars-per-pixel */
"64 64 234 2 ",
"   c #010000",
".  c #0B0604",
"X  c #0B0A08",
"o  c #130E0B",
"O  c #1B0A09",
"+  c #160905",
"@  c #19130D",
"#  c #1B1411",
"$  c #191815",
"%  c #071014",
"&  c #251205",
"*  c #2B120E",
"=  c #261409",
"-  c #361B0A",
";  c #231613",
":  c #231B15",
">  c #2A1E1A",
",  c #271B16",
"<  c #3B1916",
"1  c #240E0C",
"2  c #25221A",
"3  c #2C231C",
"4  c #2C2417",
"5  c #35271D",
"6  c #3F331F",
"7  c #342521",
"8  c #342B23",
"9  c #3C2B25",
"0  c #3B2A28",
"q  c #3D342D",
"w  c #38352A",
"e  c #3C3536",
"r  c #2C2A2C",
"t  c #212123",
"y  c #4C1D1A",
"u  c #441A17",
"i  c #511B16",
"p  c #55290D",
"a  c #582B0C",
"s  c #59231B",
"d  c #482815",
"f  c #673314",
"g  c #783B16",
"h  c #642618",
"j  c #422A25",
"k  c #442E2A",
"l  c #4B2B24",
"z  c #5C2A24",
"x  c #44342D",
"c  c #4B352E",
"v  c #443829",
"b  c #52352E",
"n  c #5A392E",
"m  c #443432",
"M  c #4C3631",
"N  c #4D3A32",
"B  c #453931",
"V  c #523931",
"C  c #5A3C33",
"Z  c #593734",
"A  c #642621",
"S  c #6A2A25",
"D  c #782D27",
"F  c #67382B",
"G  c #78322B",
"H  c #633B33",
"J  c #6C3A32",
"K  c #673732",
"L  c #743B33",
"P  c #7C3C35",
"I  c #58462B",
"U  c #4D4534",
"Y  c #5B4236",
"T  c #5D4339",
"R  c #554738",
"E  c #5C503D",
"W  c #4F402A",
"Q  c #674739",
"!  c #744436",
"~  c #695237",
"^  c #775A3D",
"/  c #76482B",
"(  c #7E643F",
")  c #7E411E",
"_  c #4E4C48",
"`  c #685642",
"'  c #765D4B",
"]  c #785947",
"[  c #6A524A",
"{  c #75644D",
"}  c #7A6349",
"|  c #7C6852",
" . c #6E674F",
".. c #767576",
"X. c #666A6E",
"o. c #9B281C",
"O. c #A2261D",
"+. c #87342E",
"@. c #843D35",
"#. c #8A3A34",
"$. c #943C35",
"%. c #9B3B34",
"&. c #9A3A36",
"*. c #903128",
"=. c #A32D26",
"-. c #A5342C",
";. c #A9332C",
":. c #AA3632",
">. c #A43D35",
",. c #AB3B34",
"<. c #A53B3B",
"1. c #A73A36",
"2. c #B33B34",
"3. c #B73B36",
"4. c #B63229",
"5. c #9A190C",
"6. c #C93F35",
"7. c #894217",
"8. c #994918",
"9. c #A7511B",
"0. c #B5571C",
"q. c #A34D18",
"w. c #8A4C29",
"e. c #834929",
"r. c #884137",
"t. c #994138",
"y. c #954F2B",
"u. c #AB5725",
"i. c #BD5C21",
"p. c #BC532A",
"a. c #B65724",
"s. c #AC4236",
"d. c #A64139",
"f. c #AA4139",
"g. c #A74037",
"h. c #B3423A",
"j. c #BB443C",
"k. c #B64936",
"l. c #AD4B2C",
"z. c #82673E",
"x. c #C45E1F",
"c. c #CB621F",
"v. c #D3631E",
"b. c #DA671E",
"n. c #ED6E1F",
"m. c #C55E22",
"M. c #C85F22",
"N. c #C6463E",
"B. c #CA5535",
"V. c #C76020",
"C. c #C96120",
"Z. c #D26522",
"A. c #DA6923",
"S. c #DA6723",
"D. c #E46D23",
"F. c #EB6F23",
"G. c #F77626",
"H. c #E87124",
"J. c #B23C42",
"K. c #905245",
"L. c #A94B43",
"P. c #AC5547",
"I. c #B5594C",
"U. c #B4544F",
"Y. c #866948",
"T. c #8F7148",
"R. c #99784A",
"E. c #836D56",
"W. c #877559",
"Q. c #967B58",
"!. c #AA6F55",
"~. c #957E62",
"^. c #86726D",
"/. c #B56966",
"(. c #B77978",
"). c #AE7A6D",
"_. c #C64A42",
"`. c #D75247",
"'. c #C45650",
"]. c #E4564B",
"[. c #C27C78",
"{. c #A3814D",
"}. c #A78754",
"|. c #B18F56",
" X c #B9945A",
".X c #998566",
"XX c #A58D6D",
"oX c #A88966",
"OX c #B98769",
"+X c #AD9166",
"@X c #B99B69",
"#X c #AB9573",
"$X c #A79372",
"%X c #B59A76",
"&X c #BCA37B",
"*X c #B4A37B",
"=X c #C79468",
"-X c #CAA66F",
";X c #787C85",
":X c #9A7D80",
">X c #948B92",
",X c #B68D90",
"<X c #BEA981",
"1X c #AFAFB4",
"2X c #C58F91",
"3X c #C4AB83",
"4X c #C8AE85",
"5X c #C5B58A",
"6X c #CCB389",
"7X c #C7B78B",
"8X c #D3B88B",
"9X c #D5BE91",
"0X c #C7BF92",
"qX c #D0AEB2",
"wX c #CAC394",
"eX c #D8C495",
"rX c #E6CA9B",
"tX c #EDD39F",
"yX c #F7D8A4",
"uX c #ECD1A4",
"iX c #B2B7C0",
"pX c #C9BDC5",
"aX c #B3CAD5",
"sX c #D0CCD3",
"dX c #E5D6D7",
"fX c #DBDCE9",
"gX c #DBEFF3",
"hX c #E9EAF9",
"jX c #FDFFFF",
"kX c #F4F8FF",
"lX c #EDF5FF",
"zX c #E2DDEB",
"xX c None",
"cX c black",
/* pixels */
"xXxXxXxXxXxXxXxXxXxXxXxXxXxXxXxXxXxXxXxXV c V M b V V C x > .       xXxXxXxXxXxXxXxXxXxXxXxXxXxXxXxXxXxXxXxXxXxXxXxXxXxXxXxXxXxX",
"xXxXxXxXxXxXxXxXxXxXxXxXxXxXxXxXxXxXxXxXV N V M V M M V M > X       xXxXxXxXxXxXxXxXxXxXxXxXxXxXxXxXxXxXxXxXxXxXxXxXxXxXxXxXxXxX",
"xXxXxXxXxXxXxXxXxXxXxXxXxXxXxXxXxXxXxXxXm m q m m M m M k $         xXxXxXxXxXxXxXxXxXxXxXxXxXxXxXxXxXxXxXxXxXxXxXxXxXxXxXxXxXxX",
"xXxXxXxXxXxXxXxXxXxXxXxXxXxXxXxXxXxXxXxXn V V b V V V C b > o       xXxXxXxXxXxXxXxXxXxXxXxXxXxXxXxXxXxXxXxXxXxXxXxXxXxXxXxXxXxX",
"xXxXxXxXxXxXxXxXcXcXcXcXxXxXxXxXxXxXV / / w.y.7.w.w.w.w.e.g f a f a =   xXxXxXxXxXxXxXxXcXcXcXcXxXxXxXxXxXxXxXxXxXxXxXxXxXxXxXxX",
"xXxXxXxXxXxXxXxXcXcXcXcXxXxXxXM m M C / u.c.c.x.i.i.m.i.i.a.0.m.v.9.a .                 cXcXcXcXxXxXxXxXxXxXxXxXxXxXxXxXxXxXxXxX",
"xXxXxXxXxXxXxXxXcXcXcXcXcXcXxXN m V Q w.i.D.G.n.A.b.v.c.b.A.A.H.G.C.f                   cXcXcXcXxXxXxXxXxXxXxXxXxXxXxXxXxXxXxXxX",
"xXxXxXxXxXxXxXxXcXcXcXcXcXcXcXV B V Q y.i.F.n.D.S.C.c.c.C.C.Z.S.F.0.p                 X cXcXcXcXxXxXxXxXxXxXxXxXxXxXxXxXxXxXxXxX",
"xXxXxXxXxXxXxXxXcXcXcXcXcXcXcX0 0 0 k F 7.9.9.q.9.c.C.C.C.0.c.c.A.0.g - = & & & & & = 5 l cXcXcXxXxXxXxXxXxXxXxXxXxXxXxXxXxXxXxX",
"xXxXxXxXxXxXxXxXcXcXcXcXcXcXxX# @ @ # * - d p p g a.A.A.C.c.c.c.S.m.q.7.7.7.7.7.7.8.7.+.F n N N xXxXxXxXxXxXxXxXxXxXxXxXxXxXxXxX",
"xXxXxXxXxXxXxXxXcXcXcXcXxXxXxX                . p 9.H.D.C.C.c.i.V.C.c.Z.Z.Z.Z.C.b.n.b.0.e.Y M m M xXxXxXxXxXxXxXxXxXxXxXxXxXxXxX",
"xXxXxXxXxXxXxXxXcXcXcXcXxXxXxX                  p 0.G.G.A.Z.c.c.x.C.Z.Z.A.A.A.Z.A.n.D.i.w.C c m M xXxXxXxXxXxXxXxXxXxXxXxXxXxXxX",
"xXxXxXxXxXxXxXxXxXxXxXxXxXxXxX                + p 9.H.D.c.c.c.c.C.C.C.c.m.c.m.c.c.b.c.u.e.I M m M xXxXxXxXxXxXxXxXxXxXxXxXxXxXxX",
"xXxXxXxXxXxXxXxXxXxXxXxXxXxXxX; ; ; # o .     . - a 7.7.+.q.0.v.C.c.C.C.c.m.c.m.c.b.c.u.e.n M m N xXxXxXxXxXxXxXxXxXxXxXxXxXxXxX",
"xXxXxXxXxXxXxXxXxXxXxXxXxXxXxXx M x 9 > @       . + & O & f 0.A.C.C.C.C.m.c.m.c.c.b.v.0.e.H c m V xXxXxXxXxXxXxXxXxXxXxXxXxXxXxX",
"xXxXxXxXxXxXxXxXxXxXxXxXxXxXxXQ Q Q c 7 @                 p 0.D.Z.C.C.C.c.m.c.m.c.b.v.u./ C m q m xXxXxXxXxXxXxXxXxXxXxXxXxXxXxX",
"xXxXxXxXxXxXxXxXxXxXxXxXxXxXxXQ Q C M 7 X                 a 0.D.b.c.C.C.V.x.V.V.v.b.v.u./ V m e 0 xXxXxXxXxXxXxXxXxXxXxXxXxXxXxX",
"xXxXxXxXxXxXxXxXxXxXxXxXxXxXc c c m 0 5 ; O O + . .     + a a.S.C.m.m.C.V.c.m.V.c.b.x.u.w./ Q V j ; xXxXxXxXxXxXxXxXxXxXxXxXxXxX",
"xXxXxXxXxXxXxXxXxXxXxXZ Y M 9 > , ; , < z D D A < +     . s y.B.k.p.a.m.c.V.V.c.x.v.C.i.u.u.u.y.g - +     xXxXxXxXxXxXxXxXxXxXxX",
"xXxXxXxXxXxXxXxXxXxXV C Y x > o     + u +._._.>.A 1     . s %.j.f.f.p.m.c.C.c.c.x.M.C.m.M.S.F.x.8.p &       xXxXxXxXxXxXxXxXxXxX",
"xXxXxXxXxXxXxXxXxXxXN R R 0 :         u %.].].j.S O       y &._.J.s.p.C.c.c.c.c.v.x.c.M.Z.D.F.v.8.a &       xXxXxXxXxXxXxXxXxXxX",
"xXxXxXxXxXxXxXxXxXxXN C Z x 2 %     . u +._.`.f.A 1       y &.j.J.f.p.C.c.M.c.c.M.M.C.x.C.A.D.c.8.a &       xXxXxXxXxXxXxXxXxXxX",
"xXxXxXxXxXxXxXxXcXZ J L ! K z u < < < i S G +.S s u u < < z @.t.@.t.l.p.m.p.p.m.m.V.C.C.C.Z.D.x.8.p =       xXxXxXxXxXxXxXxXxXxX",
"xXxXxXxXxXV c m N J r.t.t.&.$.*.&.*.D A u * 1 * y D %.&.+.G H C n H r.d.s.s.k.m.m.V.c.c.C.Z.D.x.8.p O       xXxXxXxXxXxXxXxXxXxX",
"xXxXxXxXxXN x e V L t.s.h.j.h.N._._.d.A O       u %.`.`.L.r.Z w w N P &.<.<.<.p.V.V.c.c.c.b.H.c.8.a &       xXxXxXxXxXxXxXxXxXxX",
"xXxXxXxXxXc x w c J t.s.h.j.s.L._.j.%.z O       u &.].].j.#.n q q V P &.<.<.g.B.c.c.c.c.c.H.G.v.q.a &       xXxXxXxXxXxXxXxXxXxX",
"xXxXxXxXxXn V B Z P $.f.s.f.f.s.L.s.%.A < . . O y +.h.h.%.L n B x C P >.<.<.s.p.m.C.m.m.c.Z.A.i.7.p O       xXxXxXxXxXxXxXxXxXxX",
"V N B c C L P P @.$.t.g.f.,.f.f.j.,.>.+.D A s s s i z s y l N N B C P >.s.,.h.l.l.B.k.l.y.y.y.e.f 5 O       xXxXxXxXxXxXxXxXxXxX",
"V c B c J r.>.g.f.g.g.g.g.f.g.g.,.,.<.>.f.h.g.$.A 1     X > x C B Z P g.f.f.f.f.,.j.s.&.L H Y x 9 ; o       xXxXxXxXxXxXxXxXxXxX",
"V N B c L %.2.2.3.,.g.f.f.g.,.>.-.-.:.3._.`._.h.A .       o c T U T r.f.j.j.h.1.1.3.1.+.K M q r 3 # X     . xXxXxXxXxXxXxXxXxXxX",
"b V B c J $.;.>.:.:.>.f.f.g.>.>.-.-.-.2.j._.L.,.h +       ; c T V H r.h.L.j.j.1.,.3.1.#.S b M 0 7 # .     o xXxXxXxXxXxXxXxXxXxX",
"N c x c ! K.I.I.I.P.f.g.>.f.L.U././.!.K.#.+.+.D K Z _ e e e 0 x 8 k z D *.G #.t.P.I.U.P.K.' ' ` N 3 o     o 7 xXxXxXxXxXxXxXxXxX",
"b M j c ] !.%X%X=X/.P.-.=.f./.2XqXpX,X..Z < * >  .>XpX1X1XX.3 o o @ ; * * * l Y.oXOX=X%XXX%X%XXX| B $     o 5 V Q V N cXcXcXcXcX",
"b c j c ' #X0XwX5XOXP.=.=.f.(.pXgXgXaX;Xr     % X.sXjXjXhX;X$               2 { %X5X0X9X6X9XrX4X.XR $     o 3 M T V V cXcXcXcXcX",
"Z M 0 c ' $X5XwX5XOXP.=.O.L.:XsXlXgXaX;Xt       _ sXjXjXhX;X%               $  .*X5X9XwX8XrXuX8XXXU $     . > c Q C N cXcXcXcXcX",
"M M j M ' XX5X0X-XOXP.=.=.<.(.qXfXgXiX..e % % $ X.sXjXjXfX;Xt               8 { #X3X6X3X<X6X8X<X.XR :     o 5 c C Z N cXcXcXcXcX",
"M c j c ' XX5X7X3XOXP.-.=.<.U.(.,X,X,X>X^...;X..1XfXlXlXzX,XK u i y < , $ ; x } }.@X&X+X~.~.~.E.' Q z s i l l V N N V xXcXcXcXcX",
"V c j c ' XX4X0X3XOXP.<.1.>.L.d.>.d.U.OXqXfXgXfXfXzXhXlXhX2XL.o.-.$.L V k 0 n } {.|.|.R.] E N V H P >.,.>.$.J V m M V xXcXcXcXcX",
"b c j k ' $X7X0X-X=XP.<.-.:.:.=.5.O.U.2XdXjXjXjXjXkXlXkXhX2X'.4.6.L.r.T x x R } {.|.}.T.~ k 7 0 z #.j._.N.d.! V x B V xXcXcXcXcX",
"V b j c ' $X7X0X3X).P.1.=.-.-.-.O.=.U.2XdXjXjXjXkXjXkXjXhXqX'.=.3.2.! V 0 0 R z.{. X|.R.^ V 0 k Z @.f.j.h.&.L C q c V cXcXcXcXcX",
"M c j c ] ).&X&X&X|.I.P.P.f.L.,.=.:.L.(.qXdXdXdXsXsXsXsXpX:XL.*.%.$.P K Z K H ] T.R.R.Y.~ V x x H r.g.3.h.t.L n B c b xXxXxXxXxX",
"V b k c ` Q.|.+X+X+XOX%XOXOX!.L.-.:.f.U./.[.[.(.).^.....^.E.L K J L P @.*.$.@.! ^ ~ ~ Q C N B c K @.g.h.s.$.J b x B V xXxXxXxXxX",
"c V k M ~ T.{.R.}.+X&XwXwX3XOXP.d.:.-.,.,.:.;.=.D s 9 9 j l M m q C P ,.j.j.<.L b k m m c x x V H @.<.j.h.$.L V B c V xXxXxXxXxX",
"V c k M ~ T.{.R.}.%X-XwXeX0X=XU.f.:.:.2.3.4.4.-.+.d ; , < 0 M m q V P f.j.N.%.G l 0 7 0 k 0 8 k F #.j._._.d.L C q B V xXxXxXxXxX",
"V M k V ~ T.R.R.{.+X&X3X5X3XOXI.g.-.:.s.s.h.s.>.@.n x m c c V N B Z P g.h.j.&.L b M v c c x x c n @.s.j.h.&.L V x B V xXxXxXxXxX",
"V V k c Q ^ Y.z.Y.E.Q..X.X~.Y.r.r.+.+.G D S A S ! ] | E.' ` C x x n P %.2.,.L.K.Y.| | { | E.E.| ] J D S S S b V N V xXxXxXxXxXxX",
"xXxXxXxXxXC I C Q Y T T Q T T H H C b j ; + O ; T .X4X4X#XE.Y 0 q C P d.:.:.L.!.#X%X,X%X#X&X3X#XW.R > O + , 8 xXxXxXxXxXxXxXxXxX",
"xXxXxXxXxXc k x x k k k k 0 k x N m 0 $         U #XyXyX6X~.T k x C @.>.;.;.I.=X4X8XeX9X8XrXrX6X.XU $       xXxXxXxXxXxXxXxXxXxX",
"xXxXxXxXxXc M c M c c c c c k k M k 7 #         U %XyXyX8X.XQ k m H r.,.4.;.U.=X8XeXeXwX0XeXrX-X.XU $       cXcXcXcXcXcXcXcXcXcX",
"xXxXxXxXxXV V b b V b c b V Y T Q ` C x 3 # # 2 R .X3X<X.X{ V 7 0 c L $.&.-.L.!.XX#X#X#X%X-XeX&X~.U $         cXcXcXcXcXcXcXcXcX",
"xXxXxXxXxXxXxXxXxXV N c x C ` E.~..XQ.W.E.| {  .` E R R U 8 : @ $ , l J P P J Y U U R ~ W.+X-X=XY.W :               cXcXcXcXcXcX",
"xXxXxXxXxXxXxXxXxXxXc j j C E.XX3X8X7X3X7X8X4X%X .3               . > M C Z k $       4 I R. X X( v #                 cXcXcXcXcX",
"xXxXxXxXxXxXxXxXxXxXc j j T W.&XeXtXrXeXrXyXrX6XW.2                 : m R Z 0 o       = I }.-X Xz.6 X                 cXcXcXcXcX",
"xXxXxXxXxXxXxXxXxXxXb j j Y E.#X3XeX8X6X8X9X8X*X| 8               . > c T T x ;       4 I {. X XY.6 @                 cXcXcXcXcX",
"xXxXxXxXxXxXxXxXxXxXV x x C ` ' W..XW.E.W.W.W.{ U :               . > c T C x : .   . # v ~ ( ( ~ v 6 5 6 8 w v U w 8 @ cXcXcXcX",
"xXxXxXxXxXxXxXxXxXxXV C V c 0 7 3 2 2 2 3 3 2 : @ cXcXcXcXcXcXcXxXxXxXxXxXxXxXcXcXcXcXcX@ @ 2 4 6 I ( T.T.T.{..X$X.X| w         ",
"xXxXxXxXxXxXxXxXxXxXV Y Y x , .                   xXxXxXxXxXxXxXxXxXxXxXxXxXxXxXcXcXcXcX        - I R.-X-X=X-XrXrXeX$XR         ",
"xXxXxXxXxXxXxXxXxXxXV Y C m , .                   xXxXxXxXxXxXxXxXxXxXxXxXxXxXxXcXcXcXcX      X 4 ~ {.-X-X-X8XrXuXrX#XR X       ",
"xXxXxXxXxXxXxXxXxXxXV C C x 7 o .                 xXxXxXxXxXxXxXxXxXxXxXxXxXxXxXcXcXcXcX      X 4 I ( {.{.{.XX*X<X*XW.q         ",
"xXxXxXxXxXxXxXxXxXxXxXxXxXxXxXxXxXxXxXxXxXxXxXxXxXxXxXxXxXxXxXxXxXxXxXxXxXxXxXxXcXcXcXcXcXcXcXX o 4 d W I W R E ` R q 2         ",
"xXxXxXxXxXxXxXxXxXxXxXxXxXxXxXxXxXxXxXxXxXxXxXxXxXxXxXxXxXxXxXxXxXxXxXxXxXxXxXxXcXcXcXcXcXcXcXcXcX  X       . .   .             ",
"xXxXxXxXxXxXxXxXxXxXxXxXxXxXxXxXxXxXxXxXxXxXxXxXxXxXxXxXxXxXxXxXxXxXxXxXxXxXxXxXcXcXcXcXcXcXcXcXcX                              ",
"xXxXxXxXxXxXxXxXxXxXxXxXxXxXxXxXxXxXxXxXxXxXxXxXxXxXxXxXxXxXxXxXxXxXxXxXxXxXxXxXcXcXcXcXcXcXcXcXcX                              ",
"xXxXxXxXxXxXxXxXxXxXxXxXxXxXxXxXxXxXxXxXxXxXxXxXxXxXxXxXxXxXxXxXxXxXxXxXxXxXxXxXcXcXcXcXcXcXcXcXcX                              "
};
