/* XPM */
static char *ZW5fdl9hbmltXzI_[] = {
/* columns rows colors chars-per-pixel */
"64 64 248 2 ",
"   c #000000",
".  c #0A0504",
"X  c #0D0B09",
"o  c #0B0906",
"O  c #1C0C05",
"+  c #120C0A",
"@  c #1B0A09",
"#  c #130804",
"$  c #17120F",
"%  c #19140D",
"&  c #151311",
"*  c #1C1511",
"=  c #1B1A15",
"-  c #0D110D",
";  c #240E0C",
":  c #26120A",
">  c #221613",
",  c #271C17",
"<  c #341411",
"1  c #381A16",
"2  c #36180B",
"3  c #28221A",
"4  c #33221D",
"5  c #38271C",
"6  c #342621",
"7  c #3B2A24",
"8  c #3A2A26",
"9  c #3D352D",
"0  c #37372B",
"q  c #3C3433",
"w  c #272526",
"e  c #1E221A",
"r  c #4C1D19",
"t  c #441A16",
"y  c #551F1B",
"u  c #431F0C",
"i  c #47220B",
"p  c #59271A",
"a  c #592C15",
"s  c #612E0F",
"d  c #6B3310",
"f  c #733612",
"g  c #7B3B14",
"h  c #6C2916",
"j  c #432B26",
"k  c #452E29",
"l  c #482B27",
"z  c #592A25",
"x  c #45342D",
"c  c #4C352E",
"v  c #433B2E",
"b  c #4A3A27",
"n  c #52342D",
"m  c #5D3C2E",
"M  c #53392D",
"N  c #443432",
"B  c #4D3730",
"V  c #4D3931",
"C  c #453931",
"Z  c #513630",
"A  c #523A31",
"S  c #5A3B33",
"D  c #5D3731",
"F  c #682823",
"G  c #782D27",
"H  c #613E2E",
"J  c #66352C",
"K  c #7A322B",
"L  c #653A32",
"P  c #6D3A33",
"I  c #6A3730",
"U  c #743B33",
"Y  c #7B3C34",
"T  c #753531",
"R  c #641B15",
"E  c #3D4030",
"W  c #54442B",
"Q  c #5C4339",
"!  c #594536",
"~  c #4E4434",
"^  c #644B3D",
"/  c #654736",
"(  c #7B4239",
")  c #695435",
"_  c #76593D",
"`  c #72432C",
"'  c #7E653F",
"]  c #383D43",
"[  c #544B4B",
"{  c #6A4C44",
"}  c #6E5645",
"|  c #695945",
" . c #725B49",
".. c #755745",
"X. c #704F41",
"o. c #76634A",
"O. c #7B6B52",
"+. c #786750",
"@. c #71684E",
"#. c #823F15",
"$. c #8B352E",
"%. c #86342C",
"&. c #833C34",
"*. c #8B3D35",
"=. c #8F3630",
"-. c #9A3E36",
";. c #943A33",
":. c #8C2C23",
">. c #A22C26",
",. c #A43127",
"<. c #A5322C",
"1. c #AB3329",
"2. c #B6342B",
"3. c #A53632",
"4. c #A53C34",
"5. c #A93D36",
"6. c #AB3E3B",
"7. c #A93937",
"8. c #B43C36",
"9. c #9E2016",
"0. c #9A4A1A",
"q. c #8A4216",
"w. c #A9511B",
"e. c #B5571D",
"r. c #944D25",
"t. c #9B5126",
"y. c #9B532A",
"u. c #8C4137",
"i. c #98443B",
"p. c #8C4D29",
"a. c #B64D2E",
"s. c #A65425",
"d. c #BB5728",
"f. c #A44139",
"g. c #AA4139",
"h. c #AB4236",
"j. c #B2423A",
"k. c #BA443B",
"l. c #BE493E",
"z. c #B64436",
"x. c #AC4B2F",
"c. c #80653E",
"v. c #C25D1F",
"b. c #C95F1E",
"n. c #CC621E",
"m. c #D3641E",
"M. c #DB681E",
"N. c #C55E21",
"B. c #C85F20",
"V. c #C4463D",
"C. c #C96020",
"Z. c #C76020",
"A. c #D26521",
"S. c #DD6A22",
"D. c #D66424",
"F. c #E76E22",
"G. c #EC7126",
"H. c #F27223",
"J. c #B23F43",
"K. c #925248",
"L. c #A94B43",
"P. c #B84543",
"I. c #AE5A4B",
"U. c #AC5548",
"Y. c #B3574A",
"T. c #AE5A55",
"R. c #B45F5B",
"E. c #8A6B46",
"W. c #98784C",
"Q. c #88745A",
"!. c #957858",
"~. c #8A6E4E",
"^. c #A17E4C",
"/. c #B66559",
"(. c #B06B56",
"). c #937A68",
"_. c #B66966",
"`. c #BA7A79",
"'. c #A47C70",
"]. c #C74B41",
"[. c #DA5348",
"{. c #E7574C",
"}. c #C36862",
"|. c #C2745D",
" X c #A38351",
".X c #AB8A57",
"XX c #BC965B",
"oX c #AD8A53",
"OX c #9A8362",
"+X c #A38D6C",
"@X c #A78764",
"#X c #BA8B6C",
"$X c #B58565",
"%X c #A6916C",
"&X c #BA996A",
"*X c #AB9472",
"=X c #A69572",
"-X c #B79A75",
";X c #BBA37C",
":X c #BDA879",
">X c #9C815E",
",X c #C49971",
"<X c #C7A77A",
"1X c #CFA565",
"2X c #C59C5E",
"3X c #7A868C",
"4X c #85848A",
"5X c #B88384",
"6X c #B6979D",
"7X c #A7A3A9",
"8X c #BDA0A3",
"9X c #AF9FA6",
"0X c #C6888A",
"qX c #C3AB82",
"wX c #CDA881",
"eX c #CAB287",
"rX c #CCB58A",
"tX c #CCBB8D",
"yX c #C5B388",
"uX c #D2B98C",
"iX c #D7BE92",
"pX c #D0B58A",
"aX c #C5A4A9",
"sX c #D7B6BD",
"dX c #CDAFB4",
"fX c #DCC394",
"gX c #D6C597",
"hX c #CEC594",
"jX c #E5CA9A",
"kX c #EBD19F",
"lX c #F4D8A5",
"zX c #EAD8A4",
"xX c #FFE0AC",
"cX c #C0BFCE",
"vX c #BCC4CD",
"bX c #D5C9D2",
"nX c #E8C6C6",
"mX c #D7DAE5",
"MX c #D4EAF0",
"NX c #EAECFC",
"BX c #E8E7F8",
"VX c #EDF7FF",
"CX c #F3FBFF",
"ZX c #FEFFFF",
"AX c #F4F6FF",
"SX c #EFDEE9",
"DX c None",
"FX c black",
/* pixels */
"DXDXDXDXDXDXDXDXDXDXDXDXDXDXDXDXDXDXDXDXZ V Z V M V Z S Z 6 +         DXDXDXDXDXDXDXDXDXDXDXDXDXDXDXDXDXDXDXDXDXDXDXDXDXDXDXDXDX",
"DXDXDXDXDXDXDXDXDXDXDXDXDXDXDXDXDXDXDXDXV V B c V B V S N 6 o         DXDXDXDXDXDXDXDXDXDXDXDXDXDXDXDXDXDXDXDXDXDXDXDXDXDXDXDXDX",
"DXDXDXDXDXDXDXDXDXDXDXDXDXDXDXDXDXDXDXDXN N N N C C N V c , .         DXDXDXDXDXDXDXDXDXDXDXDXDXDXDXDXDXDXDXDXDXDXDXDXDXDXDXDXDX",
"DXDXDXDXDXDXDXDXDXDXDXDXDXDXDXDXDXDXDXDXm H m m L S S / W j > O O # o DXDXDXDXDXDXDXDXDXDXDXDXDXDXDXDXDXDXDXDXDXDXDXDXDXDXDXDXDX",
"DXDXDXDXDXDXDXDXDXDXDXDXDXDXDXDXV N A ` r.t.t.t.t.t.t.y.t.r.q.g q.g i #                 DXDXDXDXDXDXDXDXDXDXDXDXDXDXDXDXDXDXDXDX",
"DXDXDXDXDXDXDXDXDXDXDXDXDXDXDXZ V N V ( d.M.M.m.n.C.m.n.n.n.C.D.G.m.g :                   DXDXDXDXDXDXDXDXDXDXDXDXDXDXDXDXDXDXDX",
"DXDXDXDXDXDXDXDXDXDXDXDXDXDXDXS A C S p.Z.H.H.F.F.m.m.n.m.D.m.F.H.S.g #                 o DXDXDXDXDXDXDXDXDXDXDXDXDXDXDXDXDXDXDX",
"DXDXDXDXDXDXDXDXDXDXDXDXDXDXDXZ V N Z ` s.n.n.b.N.N.Z.C.b.B.b.A.S.n.g : .       .       > DXDXDXDXDXDXDXDXDXDXDXDXDXDXDXDXDXDXDX",
"DXDXDXDXDXDXDXDXDXDXDXDXDXDXDX3 , , , 5 a f d d q.e.C.A.C.Z.C.C.A.Z.0.f s s s s s s d s a S DXDXDXDXDXDXDXDXDXDXDXDXDXDXDXDXDXDX",
"DXDXDXDXDXDXDXDXDXDXDXDXDXDXDX      .     . . . i w.S.S.Z.C.C.Z.C.C.n.N.v.d.v.v.e.n.m.e.r.m N B Z Z DXDXDXDXDXDXDXDXDXDXDXDXDXDX",
"DXDXDXDXDXDXDXDXDXDXDXDXDXDXDX                  2 w.G.G.D.A.C.n.N.C.C.S.F.S.S.S.S.F.H.S.s./ N N Z V DXDXDXDXDXDXDXDXDXDXDXDXDXDX",
"DXDXDXDXDXDXDXDXDXDXDXDXDXDXDX                  i w.G.F.D.A.C.Z.Z.Z.Z.C.C.C.C.C.Z.n.m.b.t.L N C A Z DXDXDXDXDXDXDXDXDXDXDXDXDXDX",
"DXDXDXDXDXDXDXDXDXDXDXDXDXDXDX* * > * + .       2 d q.q.q.0.e.C.C.C.Z.C.Z.C.C.Z.Z.C.m.b.t.m N N A A DXDXDXDXDXDXDXDXDXDXDXDXDXDX",
"DXDXDXDXDXDXDXDXDXDXDXDXDXDXDXx k c x , o       . # : : O s w.M.S.C.C.C.C.Z.Z.Z.C.C.m.N.t.H N N A ! DXDXDXDXDXDXDXDXDXDXDXDXDXDX",
"DXDXDXDXDXDXDXDXDXDXDXDXDXDXDXQ Q { Q 8 X                 2 0.M.S.n.C.Z.C.Z.C.Z.C.C.M.b.r.m q N B B DXDXDXDXDXDXDXDXDXDXDXDXDXDX",
"DXDXDXDXDXDXDXDXDXDXDXDXDXDXDXS S ^ Q 6 o                 i w.M.M.n.n.C.Z.C.n.Z.C.C.M.N.r.S q q q 4 DXDXDXDXDXDXDXDXDXDXDXDXDXDX",
"DXDXDXDXDXDXDXDXDXDXDXDXDXDXFXk j x k 4 < ; ; ; @         u 0.D.D.N.N.Z.n.Z.C.C.C.C.m.Z.s.` / / H 5 DXDXDXDXDXDXDXDXDXDXDXDXDXDX",
"DXDXDXDXDXDXDXDXDXDXDXDXDXDXFX+ $ $ ; 1 F %.=.%.r @       1 $.V.l.x.a.N.n.n.C.C.C.C.n.C.v.w.s.d.s.a #       DXDXDXDXDXDXDXDXDXDX",
"DXDXDXDXDXDXDXDXDXDXDXDXDXDXDX        < ;.[.[.].G ;       1 $.J.J.6.x.N.n.n.C.C.C.C.Z.C.n.m.S.F.n.f O         DXDXDXDXDXDXDXDXDX",
"DXDXDXDXDXDXDXDXDXDXDXDXDXDXDX        < ;.[.{.].G @       < $.k.P.6.a.n.n.n.C.C.n.C.Z.C.C.n.S.F.b.f O         DXDXDXDXDXDXDXDXDX",
"DXDXDXDXDXDXDXDXDXDXDXDXDXDXDX% . . X 1 K 6.j.4.F ; . # . t %.f.6.f.x.d.Z.Z.N.N.N.Z.C.N.Z.Z.A.S.v.f O         DXDXDXDXDXDXDXDXDX",
"DXDXDXDXDXDXDXDXDXDXDXA S S c 7 4 4 4 1 t r r r y p F G F J P ( P U u.h.a.z.a.d.N.C.n.C.Z.N.A.S.v.f O         DXDXDXDXDXDXDXDXDX",
"DXDXDXDXDXDXDXDXDXDXZ V V Z A V A Q A 6 X       < =.].V.6.*.L 9 0 V U i.6.6.6.a.v.n.n.Z.Z.Z.C.S.v.f O         DXDXDXDXDXDXDXDXDX",
"DXDXDXDXDXDXDXDXDXDXC V v C V V V Q ~ w         < -.[.{.].i.L 0 0 V P ;.6.6.5.x.n.n.n.n.m.n.F.G.n.f O         DXDXDXDXDXDXDXDXDX",
"DXDXDXDXDXDXDXDXDXDXZ V Z V Z V A ! Z 6 X       < $.P.V.6.*.J C q V U i.6.6.6.x.N.C.n.B.C.B.D.S.N.d O         DXDXDXDXDXDXDXDXDX",
"DXDXDXDXDXDXDXDXDXS P Y Y U U Y Y ( U J p r z r r p F F z z n V C n U ;.j.6.6.x.a.d.d.a.x.t.r.y.p.a #         DXDXDXDXDXDXDXDXDX",
"DXDXDXDXDXZ V x V L *.h.6.4.f.4.4.g.4.-.-.4.g.4.F ;   # . > k A V V U i.j.h.6.g.5.h.j.g.u.L A S M 4 o         DXDXDXDXDXDXDXDXDX",
"DXDXDXDXDXV B v x I -.k.k.j.h.j.h.6.j.k.k.P.[.].F @       + 8 Q ! A ( f.k.k.z.6.7.3.7.3.K k 0 q 8 > .         DXDXDXDXDXDXDXDXDX",
"DXDXDXDXDXV c 9 v L *.j.j.h.g.f.g.g.g.f.g.g.].g.F @       $ x Q ~ ! ( f.k.k.k.6.4.3.8.<.%.n x N x , .         DXDXDXDXDXDXDXDXDX",
"DXDXDXDXS L P P I Y -.h.h.6.g.5.g.g.g.g.g.g.j.h.%.r < 2 < 1 1 8 8 6 z F K G G u.U././.I.K. . .+.} 9 X         DXDXDXDXDXDXDXDXDX",
"Z Z C V L &.4.i.-.-.g.g.6.g.g.f.g.5.g.5.f.6.g.g.-.=.$.-.=.y : + X X + @ @ @ > S @XwX<X-X-X*X-X;X=X^ &         DXDXDXDXDXDXDXDXDX",
"Z V v V I -.8.8.6.6.5.g.g.g.5.5.4.4.4.4.h.j.g.h.8.j.k.V.k.G #                 ~ =XfXgXyXrXrXfXjXeX@.&       . DXDXDXDXDXDXDXDXDX",
"Z V x B T =.1.8.3.5.5.g.g.g.-.<.>.>.>.7.j.l.P.P.6.1.1.2.1.R #                 v =XgXhXyXeXrXiXjXeX@.-       DXDXDXDXFXFXFXFXFXFX",
"Z V x c P K.Y.Y.U.L.g.5.f.f.g.T.T.R.T.L.*.$.$.$.-.U.}.}.R.( 1 ; @ @ @ + X o & ~ +XeX<X:X-X*X*XqX%X} 1 @ @ ; 5 DXDXDXFXFXFXFXFXFX",
"Z V l c { !.#X,X#X(.Y.4.<.5.R.5X8XsX8X).Z < < < { 6XnXnXsX5XK.R h G F j 6 3 8 ^ >XXX&X.X!.o. .|  .( T G G G J S A A V FXFXFXFXFX",
"Z V l c  .*XtXhXyX,XI.<.9.4._.cXMXVXmX3Xw       ] bXZXZXVXsX_.2.2.k.u.L V N A _ W.oXoXW._ m 8 8 c U f.V.].j.&.D N V Z Z FXFXFXFX",
"V V j c  .%XtXhXyX#XI.4.9.4.`.8XMXVXMX3X=       ] vXZXZXAXsX}.2.2.j.u.S q 8 V  . XXX2XoXE./ k 8 M Y 5.k.V.j.*.S v V V V FXFXFXFX",
"A V j c  .+XeXtXyX#XI.<.>.5._.8XbXMXbX3Xq & - & [ vXZXZXNXdXR.>.1.g.*.L V x A ) E. X XW...S 8 9 c U -.k.k.g.Y S N V M Z FXFXFXFX",
"M V j c  .+XyXtXqX#XI.4.,.5.I._.5X#X`.'.4X4X3X4X7XmXAXCXNXdXR.<.,.g.;.u.Y &.&.P b b W b 7 , * * , z ;.k.k.4.Y S v B V M FXFXFXFX",
"V n j l ..+XyXtXyX#XI.3.3.g.g.g.7.>.-.`.bXCXCXNXBXBXNXVXNXdX/.>.,.g.6.g.j.l.f.F @               . r =.k.k.g.&.S x B V A FXFXFXFX",
"Z c j c } %XrXiXyX#XU.,.>.3.3.<.>.9.>.0XSXZXZXZXZXCXCXZXCXsX}.>.1.h.j.j.k.V.j.y #               . t ;.].V.g.&.S C V A V DXDXDXDX",
"Z V j c  .+XrXtXyX&XU.<.<.5.5.h.4.9.4.`.bXAXCXNXNXNXAXCXAXsX_.<.,.g.g.6.j.P.g.F O               . t ;.V.V.g.&.S x V V Z DXDXDXDX",
"Z V k c } >X-X:X-X$X(.(.(.(.I.g.4.>.4./.0XdXdXaXaX9X7X7X9X'.K.T K &.*.f.h.k.f.T 1 * * > * > > > > p T u.u.&.P A C V V V DXDXDXDX",
"Z V c c ^ ~..X.X X@X-X;XqXqX'.Y.7.3.g.L.P.Y.Y.P.K.{ ! [ [ L A A n A Y -.j.z.5.&.n 9 x c c x c c k B A S D S S Z Z Z M Z DXDXDXDX",
"V n c c ) E.oX^. X.X:XhXhXtX#XY.<.<.4.4.1.1.2.1.:.r , < 1 5 x C 9 C P ;.j.k.g.&.D x B Z Z Z Z Z Z Z V V V V ~ A S A S A DXDXDXDX",
"Z B k c ) ~.oXoX XXX:XhXgXrX,XU.<.>.<.8.z.k.V.z.*.z 6 6 j x c V v V U -.j.k.g.( n 8 k k l x k c c c V S A S S A S S ~ S DXDXDXDX",
"Z V c c ! ' E.E.E.!.OX+X=X+X'.T.Y.Y.T.i.&.G :.G U _  . ...^ S N x Z U i.8.8.6.u... .| } } }  . .} ! x 6 7 7 7 7 8 8 7 7 DXDXDXDX",
"DXDXDXDXDX/ / / ! ! { { ! { ~.@X,XwX#XE.j ; ; ; V Q.;X;X*XQ.^ k k V U ;.h.8.g.I.@X*X=X*X*X+X*X-X+X| 3 + X + X + + X + + DXDXDXDX",
"DXDXDXDXDXc x k B k j l 1 j } =XgXzXtXO.e       0 %XjXzXtX+X} k 9 S U i.8.7.x.(.<XgXhXuXuXrXfXjXyX@.X                   DXDXDXDX",
"DXDXDXDXDXV c c c c c x 8 l  .*XgXlXiXQ.w       0 %XfXjXrX+X} k x S Y 4.8.2.j._.pXjXfXgXfXiXjXlXpXo.o                 DXDXDXDXDX",
"DXDXDXDXFXA Z Z Z Z Z V k c } ).-XpX-Xo.3     . 0 OXuXiX:X!.! 6 6 k I *.5.3.-.T.@X=X%X%X+X+X*X;X+X| 3 % % % % = = = = o DXDXDXDX",
"DXDXDXDXFXFXFXDXDXDXDXDXDXDX! ..+.Q.+.V &       5 ~.:X1X.Xo.7 % - * 6 J U Y P S V v v v v 9 v v 0 W ) _ ) ) ' O.Q.OX+.~ $       ",
"DXDXDXDXDXDXDXDXDXDXDXDXDXDXDXc l Z c , X       5 ' oXXX X) %       * 8 ~ Q V , .               . b W.XXoXoX&XeXfXjXyX@.%       ",
"DXDXDXDXDXDXDXDXDXDXDXDXDXDXDXj 6 j 7 ;         3 E.2X1XoX) %     . * 8 A Q C ,                 . b  X1X2XXX<XgXkXxXfXO.=       ",
"DXDXDXDXDXDXDXDXDXDXDXDXDXDXDXZ S Q ! 6 % .   o 5 ' oXXX X) %     . * k S / V 4 X               . b c. X X X.X;XqXtX=X| %       ",
"DXDXDXDXDXDXDXDXDXDXDXc c c ^ +.!.).Q.O.| | @.| ) W W W W 3 o FXDXDXDXDXDXDXDXDXDXDXDXDXDXDXDXDX  = b W W b W ! | | ^ 6 o       ",
"DXDXDXDXDXDXDXDXDXDXA c x c  .+XqXeXqX;X;XqXuX<XO.3         DXDXDXDXDXDXDXDXDXDXDXDXDXDXDXDXDXDXDXDX                            ",
"DXDXDXDXDXDXDXDXDXDXZ c j c +.-XjXkXgXfXjXjXxXjX).3         DXDXDXDXDXDXDXDXDXDXDXDXDXDXDXDXDXDXDXDX                            ",
"DXDXDXDXDXDXDXDXDXDXA c k c  .*XuXiXrXyXeXrXjXrXQ.3         DXDXDXDXDXDXDXDXDXDXDXDXDXDXDXDXDXDXDXDX                            ",
"DXDXDXDXDXDXDXDXDXDXZ n c Z Q  .O.O.+.+.+.O.Q.+.~ $       DXDXDXDXDXDXDXDXDXDXDXDXDXDXDXDXDXDXDXDXDX                            ",
"DXDXDXDXDXDXDXDXDXDXV A A A j , * % & % & % & * o FXFXFXDXDXDXDXDXDXDXDXDXDXDXDXDXDXDXDXDXDXDXDXDXDXDXDXDXDXDXDXDXDXDXDXDXDXDXDX",
"DXDXDXDXDXDXDXDXDXDXZ A Q A 3 .                   FXFXFXDXDXDXDXDXDXDXDXDXDXDXDXDXDXDXDXDXDXDXDXDXDXDXDXDXDXDXDXDXDXDXDXDXDXDXDX",
"DXDXDXDXDXDXDXDXDXDXZ A S A 6 +                   FXFXFXDXDXDXDXDXDXDXDXDXDXDXDXDXDXDXDXDXDXDXDXDXDXDXDXDXDXDXDXDXDXDXDXDXDXDXDX",
"DXDXDXDXDXDXDXDXDXDXV A S A 6 +                   FXFXFXDXDXDXDXDXDXDXDXDXDXDXDXDXDXDXDXDXDXDXDXDXDXDXDXDXDXDXDXDXDXDXDXDXDXDXDX"
};
